xetbook-bold.sfdir
StartChar: exclam
Encoding: 33 33 22
Width: 272
Flags: W
HStem: -9 111<121.5 152 121.5 152.5> 670 20G<118 154 154 177>
VStem: 81 113<30.5 63.5> 97 80
LayerCount: 2
Fore
SplineSet
160 185 m 1xd0
 153 172 126 159 114 185 c 1
 80 637 l 2
 78 663 79 690 118 690 c 2
 154 690 l 2
 200 690 197 671 194 637 c 2xe0
 160 185 l 1xd0
137 -9 m 0
 106 -9 81 14 81 47 c 0
 81 80 106 102 137 102 c 0
 167 102 194 80 194 47 c 0
 194 14 168 -9 137 -9 c 0
EndSplineSet
Validated: 33
EndChar
StartChar: quotedbl
Encoding: 34 34 23
Width: 425
Flags: W
HStem: 654 20G<101.5 143.5 279.5 323>
VStem: 63 125<597.5 622> 238 128<592 619>
LayerCount: 2
Fore
SplineSet
355 518 m 2
 327 374 l 1
 317 345 279 361 276 375 c 2
 251 517 l 2
 247 543 238 568 238 595 c 0
 238 643 256 674 303 674 c 0
 343 674 366 645 366 605 c 0
 366 579 360 543 355 518 c 2
184 562 m 0
 182 547 179 533 176 519 c 2
 149 373 l 1
 134 351 102 361 98 386 c 2
 74 520 l 2
 69 547 63 573 63 600 c 0
 63 644 80 674 123 674 c 0
 164 674 188 645 188 605 c 0
 188 590 186 576 184 562 c 0
EndSplineSet
Validated: 33
EndChar
StartChar: numbersign
Encoding: 35 35 24
Width: 699
Flags: W
HStem: -29 21G<386.5 398 398 427> 175 84<53 147 68 130 527 610> 421 82<548 651 555 651>
LayerCount: 2
Fore
SplineSet
658 439 m 0
 655 424 641 422 625 421 c 0
 607 421 574 421 555 421 c 0
 541 421 543 411 541 400 c 2
 512 264 l 2
 512 260 523 259 527 259 c 0
 555 258 580 258 615 259 c 0
 623 259 633 260 641 257 c 0
 651 254 656 245 653 231 c 2
 647 202 l 2
 642 178 630 176 610 175 c 0
 580 174 539 174 512 175 c 0
 493 176 494 172 492 158 c 2
 459 2 l 2
 456 -15 451 -29 427 -29 c 2
 398 -29 l 2
 375 -29 372 -11 376 17 c 0
 381 46 393 92 408 162 c 0
 410 173 406 175 399 175 c 0
 346 177 285 178 232 175 c 0
 224 174 222 169 221 161 c 2
 188 3 l 2
 182 -30 164 -26 139 -28 c 0
 124 -29 103 -27 103 -3 c 0
 103 2 105 7 106 13 c 2
 138 168 l 2
 140 174 137 175 130 175 c 2
 62 175 l 2
 44 175 31 176 31 203 c 0
 33 217 34 222 36 234 c 0
 36 252 47 259 68 259 c 2
 147 259 l 2
 156 259 157 259 159 268 c 2
 191 418 l 2
 191 420 180 421 178 421 c 0
 151 421 114 422 86 421 c 0
 66 421 50 425 51 446 c 0
 49 459 55 472 57 484 c 0
 58 496 69 504 88 505 c 0
 126 506 171 506 203 505 c 0
 208 505 209 505 210 510 c 2
 247 683 l 2
 254 720 273 710 300 707 c 0
 326 705 332 701 327 673 c 2
 295 517 l 2
 294 511 299 505 303 505 c 0
 349 507 427 503 472 505 c 0
 480 505 480 508 481 514 c 2
 481 514 507 640 514 671 c 0
 518 691 519 706 547 708 c 2
 570 710 l 2
 597 712 601 695 597 665 c 0
 593 634 580 584 564 508 c 0
 563 506 575 505 577 505 c 0
 601 502 618 505 643 503 c 0
 659 503 667 498 666 480 c 0
 663 463 661 454 658 439 c 0
447 421 m 0
 408 422 318 422 288 421 c 0
 275 421 276 424 273 411 c 2
 241 264 l 2
 241 261 251 261 252 260 c 0
 300 262 374 261 414 260 c 0
 425 259 428 260 430 269 c 2
 460 410 l 2
 462 419 453 421 447 421 c 0
EndSplineSet
Validated: 33
EndChar
StartChar: dollar
Encoding: 36 36 25
Width: 479
Flags: W
HStem: -107 21G<168 196 168 168 267 283 267 267> 637 20G<272 285 285 298.5> 638 20G
VStem: 31 176<98 258.5> 48 84<474 481> 156 51<254 258.5 254 294 254 294 518 523 609 641> 251 52<-27 -25.5 -32 40 58.5 64 64 195 370 503> 251 164<479.5 513 479.5 533 479.5 536 479.5 640 479.5 640> 347 92<114 146.5>
LayerCount: 2
Fore
SplineSet
208 600 m 1xb280
 220 601 235 601 248 600 c 0
 249 600 251 609 251 610 c 2
 251 640 l 2
 253 650 265 655 272 657 c 2
 285 657 l 2
 312 657 303 610 303 599 c 0xd280
 303 593 306 588 310 587 c 0
 368 568 415 534 415 492 c 0xb1
 415 467 396 446 370 446 c 0
 335 446 322 477 305 501 c 0
 304 502 303 506 303 503 c 2
 303 342 l 2
 303 339 303 331 305 329 c 0
 368 290 439 241 439 152 c 0
 439 76 386 15 305 -11 c 0
 301 -12 303 -16 303 -19 c 0
 303 -45 303 -61 304 -88 c 0
 304 -105 290 -107 283 -107 c 2
 267 -107 l 2
 256 -105 249 -94 250 -84 c 2
 251 -27 l 2
 251 -24 248 -20 244 -21 c 0
 233 -22 224 -21 214 -20 c 0
 211 -19 208 -21 208 -30 c 0
 208 -48 207 -66 210 -84 c 0
 211 -94 209 -102 196 -107 c 1
 168 -107 l 1
 154 -102 155 -90 156 -85 c 2
 156 -72 l 1
 156 -16 l 2xae80
 156 -11 153 -8 149 -7 c 0
 120 3 86 16 63 40 c 0
 43 61 31 87 31 109 c 0xb280
 31 134 53 158 79 158 c 0
 124 158 128 106 143 76 c 0
 145 71 149 66 155 60 c 1
 155 62 156 64 156 65 c 2
 156 294 l 2
 155 296 154 297 153 298 c 0
 99 339 48 373 48 450 c 0
 48 512 89 563 151 587 c 0
 154 588 156 592 156 598 c 2
 156 643 l 1xae80
 161 658 173 657 186 658 c 0
 195 656 203 650 207 641 c 1
 207 609 l 2
 208 608 208 600 208 600 c 1xb280
249 364 m 1
 250 366 251 368 251 370 c 2
 251 533 l 2
 251 539 252 544 249 545 c 0
 236 548 221 551 207 548 c 0
 206 548 207 547 207 545 c 2
 207 403 l 2
 207 398 207 395 210 392 c 2
 212 389 l 1
 224 379 237 372 249 364 c 1
155 530 m 1
 140 518 132 501 132 484 c 0
 132 464 138 451 151 437 c 0
 155 432 155 435 155 445 c 2
 156 518 l 2xae80
 156 528 155 530 155 530 c 1
309 54 m 0
 337 73 347 96 347 130 c 0
 347 163 329 183 304 201 c 0
 300 203 303 198 303 195 c 2
 303 64 l 2
 303 53 304 51 309 54 c 0
213 261 m 0
 213 262 207 263 207 254 c 2
 208 41 l 2
 208 33 209 32 212 32 c 0
 215 31 250 27 251 32 c 0
 251 34 251 37 251 40 c 2
 251 229 l 2
 251 232 250 238 248 238 c 0
 235 247 226 252 213 261 c 0
EndSplineSet
Validated: 33
EndChar
StartChar: percent
Encoding: 37 37 26
Width: 696
Flags: W
HStem: -43 53<475 518 475 538> 209 51<473 516.5> 303 52<168 211 168 230.5> 554 52<165.5 209>
VStem: 37 79<421 488 421 498> 263 78<456 456> 344 79<75.5 142.5 75.5 152> 570 78<110 110>
LayerCount: 2
Fore
SplineSet
189 303 m 0
 109 303 37 366 37 453 c 0
 37 543 105 606 188 606 c 0
 270 606 342 546 341 456 c 0
 339 367 272 303 189 303 c 0
178 -54 m 2
 169 -73 154 -71 141 -68 c 0
 121 -63 109 -52 120 -33 c 2
 504 627 l 2
 514 639 531 641 539 637 c 2
 551 632 l 2
 565 627 563 610 560 602 c 2
 178 -54 l 2
496 -43 m 0
 416 -43 344 20 344 107 c 0
 344 197 413 260 495 260 c 0
 576 260 650 200 648 110 c 0
 646 21 580 -43 496 -43 c 0
186 554 m 0
 145 554 116 521 116 455 c 0
 116 387 147 355 189 355 c 0
 233 355 263 388 263 456 c 0
 263 523 232 554 186 554 c 0
493 209 m 0
 453 209 423 176 423 109 c 0
 423 42 454 10 496 10 c 0
 540 10 570 42 570 110 c 0
 570 178 540 209 493 209 c 0
EndSplineSet
Validated: 33
EndChar
StartChar: ampersand
Encoding: 38 38 27
Width: 763
Flags: W
HStem: -19 66<548 633.5> -19 84<229 256.5> 566 52<276.5 309.5>
VStem: 35 119<141.5 190> 142 99<493.5 526> 351 95<479.5 518.5>
LayerCount: 2
Fore
SplineSet
737 411 m 0xac
 717 408 683 410 667 395 c 0
 658 386 644 363 631 340 c 0
 618 316 607 293 603 286 c 0
 582 249 553 210 530 184 c 0
 526 179 523 178 526 173 c 0
 538 155 547 137 558 119 c 0
 594 53 607 47 626 47 c 0
 641 47 662 56 702 83 c 1
 724 88 745 49 726 39 c 0
 679 2 633 -19 589 -19 c 0
 507 -19 486 32 453 90 c 0
 450 95 447 94 447 94 c 1
 374 23 293 -19 220 -19 c 0
 117 -19 35 61 35 164 c 0xb4
 35 216 60 265 99 298 c 0
 129 324 164 339 200 355 c 0
 203 358 203 360 202 361 c 0
 165 397 142 442 142 485 c 0
 142 567 209 618 299 618 c 0
 379 618 446 574 446 504 c 0
 446 455 411 412 352 378 c 0
 349 376 344 373 351 368 c 0
 373 351 397 329 419 308 c 0
 451 278 466 261 488 230 c 0
 492 223 494 225 498 230 c 0
 515 252 537 282 556 310 c 0
 581 349 595 381 601 398 c 0
 602 402 606 407 601 408 c 0
 597 409 593 409 588 410 c 0
 575 412 561 412 554 413 c 0
 542 419 541 438 543 447 c 0
 545 457 553 460 562 460 c 0
 563 460 564 460 566 460 c 0
 604 459 688 459 737 461 c 0
 747 463 758 457 760 444 c 2
 760 431 l 2
 760 415 747 412 737 411 c 0xac
292 566 m 0
 261 566 241 547 241 510 c 0x6c
 241 477 259 442 298 410 c 0
 302 406 301 407 306 410 c 0
 338 432 351 457 351 496 c 0
 351 541 327 566 292 566 c 0
418 148 m 0
 376 211 312 277 249 319 c 0
 247 320 246 318 242 315 c 0
 178 268 154 228 154 176 c 0xb4
 154 107 197 65 261 65 c 0
 309 65 372 92 415 135 c 0
 418 138 423 145 418 148 c 0
EndSplineSet
Validated: 33
EndChar
StartChar: quotesingle
Encoding: 39 39 28
Width: 185
Flags: W
HStem: 654 20G<71 111.5>
VStem: 35 117<598 619.5>
LayerCount: 2
Fore
SplineSet
147 560 m 0
 137 504 130 447 120 391 c 0
 119 381 112 361 91 363 c 0
 68 365 71 372 68 389 c 2
 46 519 l 2
 42 545 35 570 35 596 c 0
 35 643 50 674 92 674 c 0
 131 674 152 646 152 605 c 0
 152 591 150 576 147 560 c 0
EndSplineSet
Validated: 33
EndChar
StartChar: parenleft
Encoding: 40 40 29
Width: 326
Flags: W
VStem: 70 92<177 283 177 325>
LayerCount: 2
Fore
SplineSet
283 -223 m 0
 268 -230 257 -219 251 -213 c 0
 145 -92 70 76 70 240 c 0
 70 410 149 578 261 702 c 1
 292 727 326 682 310 656 c 1
 270 610 224 528 198 457 c 0
 173 389 162 326 162 240 c 0
 162 114 186 26 249 -87 c 0
 274 -133 282 -144 311 -178 c 1
 320 -199 300 -215 283 -223 c 0
EndSplineSet
Validated: 33
EndChar
StartChar: parenright
Encoding: 41 41 30
Width: 316
Flags: W
VStem: 158 90<198.5 304.5>
LayerCount: 2
Fore
SplineSet
58 -221 m 1
 33 -241 -15 -214 9 -175 c 1
 50 -128 96 -47 122 24 c 0
 147 92 158 155 158 242 c 0
 158 367 133 455 70 569 c 0
 47 611 39 625 16 651 c 0
 5 663 5 685 20 698 c 0
 36 711 56 708 67 696 c 0
 176 573 248 408 248 242 c 0
 248 72 173 -98 58 -221 c 1
EndSplineSet
Validated: 33
EndChar
StartChar: asterisk
Encoding: 42 42 31
Width: 534
Flags: W
LayerCount: 2
Fore
SplineSet
236 447 m 2
 235 446 l 1
 235 446 170 420 131 410 c 0
 100 403 77 396 77 357 c 0
 77 339 94 317 118 317 c 0
 149 317 162 335 179 356 c 0
 194 375 213 398 250 421 c 0
 253 423 255 415 255 413 c 0
 253 363 247 345 242 329 c 0
 234 307 228 299 228 274 c 0
 228 249 244 225 272 225 c 0
 300 225 316 249 316 274 c 0
 316 286 315 296 312 303 c 0
 310 311 307 319 303 329 c 0
 297 345 291 364 290 414 c 0
 290 419 296 420 297 420 c 0
 335 396 351 375 366 356 c 0
 382 335 396 317 426 317 c 0
 451 317 467 339 467 357 c 0
 467 414 398 412 360 424 c 0
 344 429 332 434 310 447 c 0
 307 448 309 454 312 455 c 0
 334 466 345 470 361 475 c 0
 398 487 467 488 467 543 c 0
 467 553 460 584 422 584 c 0
 398 584 381 563 367 546 c 0
 351 527 335 507 298 483 c 0
 296 482 289 482 289 486 c 0
 290 526 296 545 302 566 c 0
 308 586 315 605 315 627 c 0
 315 649 301 674 272 674 c 0
 243 674 229 649 229 627 c 0
 229 605 237 586 243 566 c 0
 248 546 254 524 256 486 c 0
 256 478 254 479 249 482 c 0
 213 504 193 528 177 546 c 0
 163 562 147 584 123 584 c 0
 85 584 77 553 77 543 c 0
 77 506 99 497 130 489 c 0
 145 484 163 482 184 475 c 0
 199 470 214 466 234 456 c 0
 239 452 240 450 236 447 c 2
EndSplineSet
EndChar
StartChar: plus
Encoding: 43 43 32
Width: 698
Flags: W
HStem: 52 21G<331 363 331 339> 296 84<81.5 296 93 296 296 297 408 599> 600 20G<330 369 369 379>
VStem: 307 86<80 283 391 585 585 588.5>
LayerCount: 2
Fore
SplineSet
599 296 m 2
 403 296 l 2
 398 296 393 289 393 283 c 2
 393 80 l 2
 393 53 386 52 363 52 c 0
 350 52 347 52 331 52 c 0
 308 53 307 62 307 80 c 2
 307 291 l 2
 307 293 300 296 297 296 c 2
 92 296 l 2
 71 296 66 301 66 324 c 2
 66 352 l 2
 66 373 65 380 93 380 c 2
 296 380 l 2
 304 380 307 387 307 391 c 2
 307 585 l 2
 307 592 306 600 308 607 c 0
 310 615 317 620 330 620 c 2
 369 620 l 2
 389 620 393 611 393 589 c 2
 393 389 l 1
 400 384 399 380 408 380 c 2
 606 380 l 2
 631 380 633 370 633 353 c 2
 633 324 l 2
 633 296 617 296 599 296 c 2
EndSplineSet
Validated: 33
EndChar
StartChar: comma
Encoding: 44 44 33
Width: 251
Flags: W
HStem: 62 20G<109 146.5>
VStem: 65 127<8.5 24 -26.5 42.5>
LayerCount: 2
Fore
SplineSet
105 -126 m 0
 96 -130 80 -137 73 -128 c 0
 71 -125 68 -123 66 -121 c 0
 63 -112 71 -99 76 -97 c 0
 112 -76 129 -53 131 -33 c 0
 132 -31 131 -26 129 -26 c 0
 94 -34 65 -9 65 26 c 0
 65 59 93 82 125 82 c 0
 168 82 192 47 192 1 c 0
 192 -54 160 -101 105 -126 c 0
EndSplineSet
Validated: 33
EndChar
StartChar: hyphen
Encoding: 45 45 34
Width: 435
Flags: W
HStem: 202 65<53 376 69 376 376 378>
LayerCount: 2
Fore
SplineSet
398 220 m 2
 395 208 388 203 378 202 c 0
 253 200 199 200 60 202 c 0
 46 202 42 213 40 218 c 2
 40 246 l 2
 40 262 60 267 69 267 c 0
 149 267 301 267 376 267 c 0
 389 267 401 256 400 246 c 2
 398 220 l 2
EndSplineSet
Validated: 33
EndChar
StartChar: period
Encoding: 46 46 35
Width: 217
Flags: W
HStem: -12 103<105.5 139>
VStem: 63 116<25.5 55 25.5 55>
LayerCount: 2
Fore
SplineSet
122 -12 m 0
 89 -12 63 9 63 39 c 0
 63 71 88 91 122 91 c 0
 156 91 179 70 179 40 c 0
 179 11 156 -12 122 -12 c 0
EndSplineSet
Validated: 1
EndChar
StartChar: slash
Encoding: 47 47 36
Width: 479
Flags: W
LayerCount: 2
Fore
SplineSet
126 3 m 2
 112 -23 106 -21 81 -21 c 0
 73 -21 65 -21 58 -20 c 0
 43 -18 22 -7 36 19 c 0
 148 233 254 442 366 656 c 0
 383 689 413 679 442 675 c 0
 460 672 466 652 454 633 c 2
 126 3 l 2
EndSplineSet
Validated: 33
EndChar
StartChar: zero
Encoding: 48 48 37
Width: 489
Flags: MW
HStem: -18 55<224 268 224 308.5> 585 55<218.5 266>
VStem: 29 106<277.5 344.5 277.5 398.5> 355 106<278 344>
LayerCount: 2
Fore
SplineSet
245 -18 m 0
 118 -18 29 136 29 311 c 0
 29 486 118 640 245 640 c 0
 372 640 461 486 461 311 c 0
 461 136 372 -18 245 -18 c 0
337 492 m 0
 323 557 287 585 245 585 c 0
 192 585 164 542 152 492 c 0
 140 444 135 378 135 311 c 0
 135 244 141 178 152 130 c 0
 167 65 203 37 245 37 c 0
 291 37 326 79 337 130 c 0
 349 181 355 245 355 311 c 0
 355 377 349 440 337 492 c 0
EndSplineSet
Validated: 1
Substitution2: "'onum' Oldstyle Figures in Latin lookup 1-1" zero.onum
EndChar
StartChar: two
Encoding: 50 50 232
Width: 489
Flags: MW
HStem: -4 94<175 307 175 402> 401 20G<58.5 73> 551 89<202.5 259>
VStem: 320 114<424.5 473.5>
LayerCount: 2
Fore
SplineSet
434 23 m 0
 430 6 419 -4 402 -4 c 2
 69 -4 l 2
 44 -4 40 -1 32 13 c 1
 30 30 31 33 41 46 c 0
 80 91 123 137 164 180 c 0
 238 255 320 324 320 440 c 0
 320 507 289 551 229 551 c 0
 175 551 121 510 98 440 c 0
 93 424 77 421 69 421 c 0
 48 421 47 439 48 445 c 0
 65 563 147 640 258 640 c 0
 370 640 434 559 434 454 c 0
 434 395 400 352 370 313 c 0
 309 235 235 169 166 98 c 0
 162 94 164 91 175 90 c 0
 211 92 271 89 307 90 c 0
 365 91 389 86 400 145 c 0
 402 155 407 160 417 162 c 2
 438 162 l 2
 454 162 451 147 450 137 c 0
 446 100 440 59 434 23 c 0
EndSplineSet
Validated: 33
Substitution2: "'onum' Oldstyle Figures in Latin lookup 1-1" two.onum
EndChar
StartChar: three
Encoding: 51 51 40
Width: 489
Flags: W
HStem: -18 62<218 260.5 218 266.5> -18 135<71 266.5> 557 83<219 247.5>
VStem: 301 101<495 504.5> 340 113<159 235>
LayerCount: 2
Fore
SplineSet
342 391 m 0xa8
 409 370 453 301 453 223 c 0
 453 95 335 -18 198 -18 c 0
 124 -18 36 12 36 68 c 0
 36 93 58 117 84 117 c 0x68
 110 117 133 96 152 81 c 0
 191 48 206 44 230 44 c 0
 291 44 340 109 340 199 c 0xa8
 340 271 308 314 264 314 c 0
 249 314 234 313 217 301 c 0
 206 293 187 294 178 306 c 0
 169 319 176 335 183 341 c 0
 211 362 236 382 261 407 c 0
 292 439 301 463 301 485 c 0
 301 524 269 557 226 557 c 0
 189 557 145 528 116 476 c 0
 108 462 92 464 83 467 c 0
 70 473 61 483 68 499 c 0
 106 586 179 640 259 640 c 0
 337 640 402 589 402 516 c 0xb0
 402 474 380 430 340 399 c 0
 336 396 337 393 342 391 c 0xa8
EndSplineSet
Substitution2: "'onum' Oldstyle Figures in Latin lookup 1-1" three.onum
EndChar
StartChar: five
Encoding: 53 53 42
Width: 489
Flags: W
HStem: -18 58<212 247 212 264.5> -18 125<85.5 264.5> 318 98<212 241.5> 528 97<298 348> 620 20G<357 375 375 382>
VStem: 98 62 321 108<144.5 225.5>
LayerCount: 2
Fore
SplineSet
164 408 m 0xb6
 183 414 200 416 224 416 c 0
 341 416 429 324 429 207 c 0
 429 82 332 -18 197 -18 c 0
 124 -18 50 6 50 58 c 0
 50 85 72 107 99 107 c 0x76
 136 107 164 73 188 51 c 0
 199 42 205 40 219 40 c 0
 275 40 321 102 321 185 c 0
 321 266 276 318 207 318 c 0
 172 318 155 309 125 291 c 0
 118 287 108 284 98 290 c 0
 86 299 84 306 85 321 c 2
 105 595 l 2
 107 621 141 628 160 627 c 2
 298 625 l 2
 311 625 321 625 329 625 c 0xb6
 347 627 343 640 357 640 c 2
 375 640 l 2xae
 389 640 392 626 390 610 c 2
 382 554 l 1
 374 535 376 531 348 528 c 2
 173 531 l 2
 168 530 163 527 162 522 c 2
 155 414 l 2
 155 410 158 406 164 408 c 0xb6
EndSplineSet
Substitution2: "'onum' Oldstyle Figures in Latin lookup 1-1" five.onum
EndChar
StartChar: eight
Encoding: 56 56 45
Width: 488
Flags: W
HStem: -18 52<222 279 222 303.5> 586 52<219.5 271>
VStem: 50 103 65 88<464 515> 327 91<461 515.5> 354 97<121 161.5>
LayerCount: 2
Fore
SplineSet
159 318 m 0xe4
 96 357 65 405 65 467 c 0
 65 563 149 638 247 638 c 0
 346 638 418 572 418 484 c 0xd8
 418 427 394 382 338 348 c 0
 334 346 336 342 340 339 c 0
 411 298 451 247 451 175 c 0
 451 67 358 -18 249 -18 c 0
 131 -18 50 59 50 157 c 0
 50 220 90 269 153 306 c 0
 155 307 157 308 158 309 c 0
 162 312 161 316 159 318 c 0xe4
246 586 m 0
 193 586 153 547 153 495 c 0
 153 433 210 402 267 376 c 0
 275 373 280 374 285 379 c 0
 318 407 327 439 327 483 c 0
 327 548 296 586 246 586 c 0
330 215 m 0
 311 234 276 258 237 279 c 0
 226 285 222 283 217 279 c 0
 171 248 147 207 147 158 c 0
 147 84 194 34 250 34 c 0
 308 34 354 82 354 148 c 0xe4
 354 175 345 199 330 215 c 0
EndSplineSet
Substitution2: "'onum' Oldstyle Figures in Latin lookup 1-1" eight.onum
EndChar
StartChar: nine
Encoding: 57 57 46
Width: 489
Flags: MW
HStem: 236 57<213 243> 586 51<213 272>
VStem: 39 106<391 486.5> 344 109<382.5 451 285.5 459.5>
LayerCount: 2
Fore
SplineSet
318 258 m 0
 288 239 260 236 226 236 c 0
 121 236 39 322 39 429 c 0
 39 544 130 637 242 637 c 0
 374 637 453 527 453 375 c 0
 453 196 339 50 142 -13 c 0
 104 -25 77 18 111 33 c 0
 188 66 237 102 274 147 c 0
 300 179 314 206 325 248 c 0
 326 255 325 261 318 258 c 0
240 586 m 0
 186 586 145 539 145 439 c 0
 145 343 187 293 239 293 c 0
 265 293 307 314 326 332 c 0
 344 350 344 371 344 394 c 0
 344 525 304 586 240 586 c 0
EndSplineSet
Substitution2: "'onum' Oldstyle Figures in Latin lookup 1-1" nine.onum
EndChar
StartChar: colon
Encoding: 58 58 47
Width: 257
Flags: W
HStem: -7 110<113.5 144.5> 288 110<113.5 144.5>
VStem: 74 110<33 65 326.5 359>
LayerCount: 2
Fore
SplineSet
129 288 m 0
 98 288 74 311 74 342 c 0
 74 376 98 398 129 398 c 0
 160 398 184 376 184 342 c 0
 184 311 160 288 129 288 c 0
129 -7 m 0
 98 -7 74 17 74 49 c 0
 74 81 98 103 129 103 c 0
 160 103 184 81 184 49 c 0
 184 16 160 -7 129 -7 c 0
EndSplineSet
Validated: 1
EndChar
StartChar: semicolon
Encoding: 59 59 48
Width: 230
Flags: W
HStem: -18 112<104 113> -17 21G<120.5 122> 284 112<102 133.5>
VStem: 62 113<324 356.5> 62 129
LayerCount: 2
Fore
SplineSet
118 284 m 0x70
 86 284 62 308 62 340 c 0
 62 373 86 396 118 396 c 0
 149 396 175 374 175 340 c 0
 175 307 149 284 118 284 c 0x70
122 -17 m 0
 119 -17 115 -18 111 -18 c 0
 82 -18 61 7 61 36 c 0
 61 70 88 94 120 94 c 0
 162 94 191 57 191 9 c 0
 191 -52 150 -109 89 -134 c 0
 67 -143 51 -105 72 -95 c 0
 112 -69 129 -43 129 -18 c 0xa8
 129 -14 128 -16 122 -17 c 0
EndSplineSet
Validated: 33
EndChar
StartChar: less
Encoding: 60 60 49
Width: 698
Flags: W
LayerCount: 2
Fore
SplineSet
591 85 m 0
 453 135 204 244 82 299 c 0
 67 306 65 314 65 327 c 0
 62 337 64 349 65 353 c 0
 65 364 67 373 83 380 c 0
 210 435 485 551 595 593 c 0
 630 607 635 581 635 554 c 2
 635 539 l 2
 635 524 616 511 607 507 c 0
 505 465 307 383 201 341 c 0
 199 341 197 339 200 337 c 0
 307 291 511 208 615 168 c 0
 632 161 635 149 635 136 c 2
 635 115 l 2
 635 96 626 73 591 85 c 0
EndSplineSet
Validated: 33
EndChar
StartChar: equal
Encoding: 61 61 50
Width: 698
Flags: W
HStem: 186 85<539.5 607> 410 86
LayerCount: 2
Fore
SplineSet
625 412 m 0
 618 409 608 410 600 410 c 2
 97 410 l 2
 75 407 71 420 67 436 c 1
 69 473 l 2
 73 490 90 493 100 493 c 0
 226 494 482 493 604 496 c 0
 633 497 635 475 635 456 c 0
 635 451 636 444 636 436 c 0
 636 424 633 416 625 412 c 0
635 216 m 0
 634 195 636 186 607 186 c 2
 100 186 l 2
 81 186 63 189 63 216 c 2
 63 246 l 2
 63 265 72 272 90 272 c 0
 94 272 98 273 101 272 c 0
 227 270 472 271 607 271 c 0
 643 271 636 239 635 216 c 0
EndSplineSet
Validated: 33
EndChar
StartChar: greater
Encoding: 62 62 51
Width: 698
Flags: W
VStem: 64 1<115.374 135.718>
LayerCount: 2
Fore
SplineSet
608 295 m 0
 485 240 235 137 109 86 c 0
 72 71 65 98 65 115 c 0
 65 123 64 130 64 136 c 0
 64 149 68 161 84 168 c 0
 187 209 393 291 499 337 c 1
 499 337 502 339 497 342 c 0
 359 400 190 468 92 507 c 0
 73 515 65 516 65 541 c 2
 65 558 l 2
 65 586 77 604 104 593 c 0
 258 531 483 437 611 382 c 0
 623 377 634 368 634 354 c 0
 635 349 637 337 635 327 c 0
 635 311 629 304 608 295 c 0
EndSplineSet
Validated: 33
EndChar
StartChar: question
Encoding: 63 63 52
Width: 362
Flags: W
HStem: -11 115<139.5 173> 552 118<113.5 122.5>
VStem: 96 120<30 64> 271 59<439 510>
LayerCount: 2
Fore
SplineSet
254 320 m 0
 231 305 220 298 183 284 c 0
 153 274 149 265 149 253 c 0
 149 238 155 224 188 185 c 0
 194 176 184 162 178 159 c 0
 166 155 145 161 138 170 c 0
 101 213 84 249 84 285 c 0
 84 421 271 366 271 488 c 0
 271 532 242 559 185 559 c 0
 157 559 135 552 110 552 c 0
 70 552 37 568 37 606 c 0
 37 654 87 670 140 670 c 0
 251 670 330 588 330 473 c 0
 330 405 302 354 254 320 c 0
156 -11 m 0
 123 -11 96 13 96 47 c 0
 96 81 123 104 156 104 c 0
 190 104 216 81 216 47 c 0
 216 13 190 -11 156 -11 c 0
EndSplineSet
Validated: 33
EndChar
StartChar: at
Encoding: 64 64 53
Width: 960
Flags: W
HStem: -105 61<410 564.5 410 576.5> 90 60<612 630 612 658.5> 90 81<342.5 421> 644 53<430.5 599.5>
VStem: 109 73<173 372.5 173 394.5> 278 98<200.5 240> 783 59<368 474>
LayerCount: 2
Fore
SplineSet
584 477 m 1xde
 595 501 599 505 626 507 c 0
 635 508 659 507 666 507 c 0
 681 507 687 497 687 485 c 0
 677 452 646 340 626 273 c 0
 617 242 612 224 608 211 c 0
 604 199 603 190 602 177 c 0
 601 158 606 150 618 150 c 0
 642 150 681 172 709 205 c 0
 752 257 783 332 783 404 c 0
 783 544 674 644 525 644 c 0
 336 644 182 479 182 266 c 0
 182 80 327 -44 493 -44 c 0
 636 -44 748 26 811 166 c 0
 817 179 821 185 839 185 c 0
 842 185 846 184 850 184 c 0
 869 179 866 164 863 156 c 0
 808 -4 662 -105 491 -105 c 0
 275 -105 109 58 109 277 c 0
 109 512 294 697 522 697 c 0
 706 697 842 585 842 407 c 0
 842 242 727 90 590 90 c 0
 540 90 511 115 511 164 c 0
 511 171 511 173 506 167 c 0
 471 130 421 90 370 90 c 0
 315 90 278 143 278 203 c 0
 278 277 313 371 378 437 c 0
 421 481 473 508 515 508 c 0
 545 508 568 498 584 478 c 1
 584 477 l 1xde
519 458 m 0
 504 458 482 447 462 425 c 0
 412 366 376 267 376 215 c 0
 376 186 393 171 408 171 c 0xbe
 434 171 466 189 506 242 c 0
 542 289 561 353 561 411 c 0
 561 441 540 458 519 458 c 0
EndSplineSet
Validated: 33
EndChar
StartChar: A
Encoding: 65 65 54
Width: 711
Flags: W
HStem: -3 54 274 76<251.5 376 289 376 376 378.5 289 405> 652 20G<313 346 346 359 357 366.5>
LayerCount: 2
Fore
SplineSet
696 23 m 0
 696 12 692 -5 676 -4 c 0
 612 -1 483 -1 413 -3 c 0
 394 -4 391 12 391 27 c 0
 391 50 410 54 422 54 c 0
 440 54 452 55 463 55 c 0
 492 57 497 66 488 91 c 0
 464 153 445 206 421 268 c 0
 420 270 413 274 405 274 c 0
 360 275 292 274 255 274 c 0
 248 274 244 268 240 263 c 0
 222 211 194 136 179 96 c 0
 174 86 174 77 174 69 c 0
 174 48 216 52 233 53 c 0
 239 54 245 55 254 53 c 0
 262 52 270 37 270 23 c 0
 268 9 258 -3 252 -3 c 0
 194 -2 93 0 40 -3 c 0
 36 -3 32 -3 27 -3 c 0
 3 1 0 54 28 54 c 0
 74 54 77 55 95 97 c 0
 102 112 107 126 111 137 c 2
 295 629 l 1
 289 651 l 2
 286 660 297 670 313 672 c 0
 322 672 344 672 346 672 c 0
 350 672 355 672 359 672 c 0
 374 672 389 670 398 657 c 0
 514 354 560 232 582 176 c 0
 592 150 601 125 610 100 c 0
 625 58 631 51 670 51 c 2
 677 51 l 2
 691 51 696 35 696 23 c 0
328 501 m 0
 312 450 289 395 275 356 c 0
 272 350 283 350 289 350 c 0
 324 351 347 351 376 350 c 0
 381 350 388 356 386 360 c 0
 372 397 354 450 339 498 c 0
 336 507 329 503 328 501 c 0
EndSplineSet
Validated: 33
EndChar
StartChar: B
Encoding: 66 66 55
Width: 656
Flags: W
HStem: -4 62<323.5 325> 339 55<271.5 298> 640 20G<279.5 374.5>
VStem: 137 121<164.5 181 181 320 399.5 403 403 509 509 532.5> 456 126<471.5 511> 491 129<158 222.5>
LayerCount: 2
Fore
SplineSet
459 6 m 0xf4
 427 0 409 -6 325 -4 c 0
 228 -2 119 -2 34 -4 c 0
 6 -2 20 49 31 53 c 0
 39 54 50 56 58 54 c 0
 130 54 137 63 137 139 c 2
 137 509 l 2
 137 556 133 577 123 587 c 0
 111 599 80 597 65 597 c 2
 42 597 l 2
 25 597 28 650 41 651 c 0
 144 662 228 660 331 660 c 0
 418 660 441 653 488 632 c 0
 545 607 582 555 582 498 c 0xf8
 582 445 548 399 500 374 c 0
 494 371 497 368 501 366 c 0
 572 332 620 275 620 203 c 0
 620 109 549 23 459 6 c 0xf4
417 583 m 0
 373 619 319 613 267 609 c 0
 262 607 258 603 258 596 c 2
 258 403 l 2
 258 396 271 394 272 394 c 0
 350 394 456 379 456 492 c 0
 456 530 442 562 417 583 c 0
422 319 m 0
 373 348 325 339 271 339 c 0
 264 337 258 327 258 320 c 2
 258 181 l 2
 258 148 260 120 263 105 c 0
 268 75 290 58 357 58 c 0
 437 58 491 119 491 197 c 0xf4
 491 248 465 294 422 319 c 0
EndSplineSet
Validated: 33
EndChar
StartChar: C
Encoding: 67 67 56
Width: 762
Flags: W
LayerCount: 2
Fore
SplineSet
627 6 m 1
 611 10 609 10 602 10 c 0
 570 10 557 5 527 -5 c 0
 490 -17 450 -19 412 -19 c 0
 201 -19 53 123 53 317 c 0
 53 522 205 665 423 665 c 0
 487 665 525 654 586 631 c 0
 599 626 617 618 629 628 c 0
 636 634 660 631 662 624 c 0
 670 586 672 558 671 534 c 0
 671 512 670 493 671 474 c 1
 667 457 639 451 631 464 c 0
 598 560 530 616 429 616 c 0
 273 616 178 509 178 338 c 0
 178 163 287 34 443 34 c 0
 508 34 553 54 600 96 c 0
 625 119 632 128 657 173 c 0
 663 187 704 187 699 168 c 0
 683 116 656 54 627 6 c 1
EndSplineSet
EndChar
StartChar: D
Encoding: 68 68 57
Width: 773
Flags: W
HStem: -4 21G<19.5 43> -3 57<279 315> 597 62
VStem: 106 120<140 509 509 517.5> 597 130<270.5 376.5>
LayerCount: 2
Fore
SplineSet
476 18 m 0xb8
 405 -2 351 -3 279 -3 c 2x78
 43 -4 l 2
 -4 -4 3 48 27 55 c 0
 55 59 91 51 102 85 c 0
 108 102 106 122 106 140 c 2
 106 509 l 2
 106 526 109 568 98 583 c 0
 91 593 75 597 34 597 c 2
 25 597 l 2
 5 597 10 645 22 649 c 2
 31 651 l 1
 129 655 224 659 322 659 c 0
 452 659 530 639 603 588 c 0
 683 531 727 445 727 345 c 0
 727 196 624 60 476 18 c 0xb8
501 550 m 0
 460 582 425 595 348 603 c 0
 306 607 283 607 241 605 c 0
 234 604 226 597 226 591 c 2
 226 109 l 2
 226 69 231 54 291 54 c 0
 472 54 597 131 597 330 c 0
 597 423 561 505 501 550 c 0
EndSplineSet
Validated: 33
EndChar
StartChar: F
Encoding: 70 70 59
Width: 543
Flags: W
HStem: -3 53 313 68<251 353> 583 67<249 251 251 354>
VStem: 113 118<106 299> 451 50<511 523>
LayerCount: 2
Fore
SplineSet
501 511 m 1
 486 501 473 503 462 506 c 0
 453 508 451 515 451 523 c 0
 447 574 438 583 354 583 c 2
 251 583 l 2
 247 583 233 581 231 572 c 2
 230 397 l 2
 230 381 242 383 251 381 c 0
 291 378 316 380 357 381 c 0
 427 381 430 384 434 423 c 0
 437 444 480 450 483 426 c 0
 483 417 485 302 483 251 c 0
 481 240 438 223 435 251 c 0
 430 308 425 315 353 313 c 0
 325 312 277 312 248 313 c 0
 240 312 231 304 231 299 c 2
 231 106 l 2
 231 61 241 52 293 52 c 2
 304 52 l 2
 318 50 320 37 320 23 c 0
 320 10 313 -3 302 -3 c 0
 229 -1 131 -1 56 -3 c 0
 29 -4 35 47 52 50 c 0
 104 53 113 61 113 106 c 2
 113 542 l 2
 113 587 101 595 52 597 c 1
 31 602 31 653 58 650 c 0
 171 651 365 651 478 650 c 0
 491 650 504 635 504 622 c 2
 501 511 l 1
EndSplineSet
Validated: 33
EndChar
StartChar: G
Encoding: 71 71 60
Width: 763
Flags: W
HStem: -19 57<346.5 428.5> 243 55<481 481> 612 55<360.5 441 360.5 479.5>
VStem: 50 130<235 364> 547 112
LayerCount: 2
Fore
SplineSet
709 245 m 0
 668 240 664 234 663 189 c 0
 662 163 662 108 663 79 c 0
 663 69 662 50 649 43 c 0
 580 9 471 -19 386 -19 c 0
 188 -19 50 124 50 314 c 0
 50 414 96 508 167 574 c 0
 237 638 307 667 414 667 c 0
 468 667 506 659 579 637 c 0
 596 632 601 632 607 632 c 0
 613 632 615 633 620 638 c 0
 626 646 650 646 654 637 c 0
 661 626 662 511 659 461 c 0
 658 433 611 440 607 458 c 0
 586 560 530 612 429 612 c 0
 273 612 180 502 180 319 c 0
 180 151 275 38 418 38 c 0
 459 38 501 50 541 68 c 0
 548 70 547 84 547 90 c 0
 547 116 547 157 547 188 c 0
 547 233 536 242 481 243 c 2
 443 244 l 2
 426 244 408 294 443 298 c 1
 517 296 649 298 715 298 c 0
 736 299 736 278 735 270 c 0
 733 262 734 254 729 249 c 0
 724 245 714 244 709 245 c 0
EndSplineSet
Validated: 33
EndChar
StartChar: H
Encoding: 72 72 61
Width: 788
Flags: W
HStem: -3 59<716 751> 294 66<240 289.5 240 540 240 541> 599 51<266.5 293> 633 20G<478.5 484>
VStem: 111 117<106 280 370 375 375 542> 559 117<106 153 153 287 287 287 377 542 513 542>
LayerCount: 2
Fore
SplineSet
751 -3 m 0xec
 682 -1 604 -3 471 -3 c 0
 460 -3 450 2 448 13 c 0
 444 26 447 55 470 55 c 2
 494 55 l 2
 543 55 559 65 559 106 c 2
 559 287 l 2
 558 292 546 294 541 294 c 0
 444 293 341 294 238 294 c 0
 237 294 228 290 228 280 c 2
 228 106 l 2
 228 62 238 54 288 54 c 2
 297 54 l 2
 324 57 332 2 298 -3 c 1
 234 -1 109 -3 47 -3 c 0
 39 -3 27 -2 22 10 c 0
 15 28 18 53 41 55 c 0
 47 56 54 55 60 55 c 0
 101 57 111 64 111 106 c 2
 111 542 l 2
 111 586 100 595 61 598 c 2
 55 598 l 2
 31 600 40 651 57 650 c 0
 120 647 237 647 293 650 c 0
 302 651 303 648 310 644 c 0
 319 635 317 623 315 612 c 0
 312 600 303 600 293 599 c 0
 240 599 228 582 228 542 c 2
 228 375 l 2
 228 365 234 360 240 360 c 0
 340 360 431 359 540 360 c 0
 544 361 559 367 559 377 c 0
 560 436 559 484 559 542 c 0
 559 599 515 597 473 599 c 0xec
 454 602 453 626 457 638 c 0
 464 651 473 653 484 653 c 0xdc
 556 655 673 648 732 650 c 0
 759 651 770 603 741 597 c 0
 738 596 734 596 732 596 c 0
 700 593 678 586 676 542 c 0
 673 394 676 200 676 106 c 0
 676 69 691 56 741 56 c 0
 795 56 776 -4 751 -3 c 0xec
EndSplineSet
Validated: 33
EndChar
StartChar: I
Encoding: 73 73 62
Width: 363
Flags: W
HStem: -4 21G<60.5 67 67 306> 598 53<71 73 294 296 296 298>
VStem: 124 114<140 508>
LayerCount: 2
Fore
SplineSet
319 608 m 0
 314 600 302 598 294 598 c 0
 244 597 238 595 238 508 c 2
 238 106 l 2
 238 78 243 67 251 61 c 0
 263 54 289 55 302 54 c 0
 312 54 317 52 322 41 c 0
 329 24 323 -4 306 -4 c 0
 245 -2 127 -2 67 -4 c 0
 54 -4 45 8 45 22 c 0
 45 34 44 49 60 52 c 0
 64 53 68 53 73 53 c 0
 115 58 122 66 123 106 c 2
 124 140 l 1
 124 508 l 1
 123 542 l 2
 122 588 119 593 73 598 c 0
 69 598 63 599 59 601 c 0
 43 612 47 650 70 651 c 0
 71 651 73 651 76 651 c 0
 154 650 179 646 296 651 c 0
 306 651 320 649 322 631 c 0
 323 624 322 615 319 608 c 0
EndSplineSet
Validated: 33
EndChar
StartChar: J
Encoding: 74 74 63
Width: 324
Flags: W
HStem: -289 127<-57 41.5> 596 54<34 67.5>
VStem: 106 115<34 75 75 481 454 491>
LayerCount: 2
Fore
SplineSet
277 597 m 0
 271 596 264 596 260 596 c 0
 234 594 221 575 221 541 c 2
 221 75 l 2
 221 -7 201 -127 155 -197 c 0
 120 -252 73 -289 10 -289 c 0
 -47 -289 -95 -263 -95 -218 c 0
 -95 -189 -72 -162 -42 -162 c 0
 -22 -162 -8 -178 6 -189 c 0
 14 -195 21 -201 29 -206 c 0
 45 -215 71 -205 83 -188 c 0
 102 -160 106 -126 106 11 c 0
 106 305 106 427 106 481 c 0
 106 501 106 521 105 541 c 0
 104 588 93 596 42 596 c 0
 36 595 30 598 26 598 c 0
 13 599 10 615 10 626 c 0
 10 637 16 652 34 650 c 0
 40 650 46 650 55 649 c 0
 114 649 178 651 283 650 c 0
 317 650 304 603 292 600 c 0
 288 598 282 597 277 597 c 0
EndSplineSet
Validated: 33
EndChar
StartChar: K
Encoding: 75 75 64
Width: 740
Flags: W
HStem: -4 58<38 43 42 48 48 58 58 77.5 35 309> 600 50<372 631> 631 20G<308 312> 632 20G<39 43>
VStem: 122 117<106 266 344 345 345 542> 332 99<560 636>
LayerCount: 2
Fore
SplineSet
698 -3 m 1xcc
 618 2 482 -3 414 -4 c 0
 405 -2 399 -2 393 8 c 0
 387 24 389 50 411 50 c 0
 431 51 473 55 451 82 c 0
 397 151 345 223 272 275 c 0
 261 283 253 286 243 288 c 0
 236 288 239 274 239 266 c 2
 239 106 l 2
 239 67 250 53 304 53 c 0
 313 53 327 51 332 41 c 0
 336 32 337 14 332 6 c 0
 328 -3 317 -4 309 -4 c 0
 235 -1 104 -2 48 -4 c 0
 46 -4 44 -4 42 -4 c 0
 34 -4 26 -3 21 4 c 0
 13 15 9 45 35 54 c 0
 42 56 51 55 58 54 c 0
 97 54 122 65 122 106 c 2
 122 542 l 2
 122 587 111 598 57 598 c 2
 37 598 l 2
 15 600 15 629 20 639 c 0
 24 651 35 652 43 652 c 0x9c
 163 649 255 649 308 651 c 0xac
 316 651 332 647 332 625 c 0
 332 606 320 598 304 598 c 0
 249 598 239 587 239 542 c 2
 239 345 l 2
 239 343 240 341 242 341 c 0
 253 345 262 352 273 362 c 0
 323 405 431 535 431 585 c 0
 431 594 430 594 390 598 c 2
 372 600 l 1
 356 612 360 631 363 639 c 0
 367 649 379 651 386 650 c 0
 483 647 584 648 631 650 c 0
 664 651 663 596 631 600 c 1
 568 599 535 587 505 546 c 0
 494 531 485 516 476 502 c 0
 445 455 397 390 360 347 c 1
 358 345 l 1
 370 337 383 325 404 306 c 0
 467 246 518 175 574 109 c 0
 615 60 635 54 693 54 c 0
 702 54 710 54 716 43 c 0
 722 30 724 2 698 -3 c 1xcc
EndSplineSet
Validated: 33
EndChar
StartChar: L
Encoding: 76 76 65
Width: 595
Flags: W
HStem: -4 70 593 59<300 333.5>
VStem: 117 116<144 542 542 552>
LayerCount: 2
Fore
SplineSet
515 19 m 0
 507 8 496 -4 475 -4 c 0
 298 -1 73 -1 43 -3 c 0
 31 -4 21 4 18 13 c 0
 14 26 14 54 33 56 c 2
 39 56 l 2
 41 56 44 55 46 56 c 0
 69 56 109 61 115 88 c 0
 116 99 117 105 117 144 c 2
 117 542 l 2
 117 587 106 596 52 597 c 2
 40 597 l 2
 20 599 21 632 26 641 c 0
 33 652 46 652 51 651 c 0
 149 649 217 650 330 652 c 0
 337 652 350 651 354 636 c 0
 358 620 357 597 332 595 c 0
 322 594 311 593 300 593 c 0
 240 591 233 587 233 552 c 2
 233 108 l 2
 233 75 252 66 288 66 c 2
 371 66 l 2
 442 66 454 67 500 127 c 2
 536 174 l 1
 546 178 559 181 568 174 c 0
 581 167 577 152 576 150 c 0
 553 95 528 40 515 19 c 0
EndSplineSet
Validated: 33
EndChar
StartChar: M
Encoding: 77 77 66
Width: 942
Flags: W
HStem: -3 21G<893 899> -2 54<639 645> 630 20G<230 235.5 711 846>
VStem: 113 73 139 59 689 122 709 116
LayerCount: 2
Fore
SplineSet
679 467 m 2x6c
 477 5 l 2
 471 -9 432 -9 426 5 c 2
 216 469 l 2
 216 471 209 484 209 481 c 2
 188 144 l 2
 187 125 186 107 186 96 c 0
 186 67 193 55 245 51 c 0
 253 51 266 49 270 35 c 0
 273 22 272 3 256 -1 c 0
 253 -2 249 -2 245 -3 c 0xb4
 194 -1 115 0 47 -2 c 0
 36 0 27 -2 22 12 c 0
 19 20 19 31 23 39 c 0
 28 49 34 52 45 51 c 0
 90 49 105 58 110 96 c 0
 111 109 112 124 113 141 c 0x74
 122 282 139 423 139 564 c 0
 139 614 85 579 72 607 c 0
 69 614 68 624 70 632 c 0
 73 647 82 652 94 651 c 0
 128 649 198 649 230 650 c 0
 241 650 256 650 263 634 c 2
 468 176 l 2
 471 169 476 178 480 186 c 2
 677 633 l 2
 685 647 704 650 711 650 c 0
 756 649 801 649 846 650 c 0
 873 651 879 599 851 597 c 0
 838 595 823 596 811 592 c 0x6c
 802 589 796 583 796 566 c 0
 796 551 797 540 798 526 c 2
 825 143 l 2
 831 54 842 52 890 52 c 0x6a
 922 52 918 35 918 14 c 0
 916 1 905 -3 893 -3 c 0xac
 844 0 710 -1 645 -2 c 0
 630 -2 620 1 618 13 c 0
 616 19 617 28 618 35 c 0
 619 44 633 52 645 52 c 0
 726 52 711 88 709 149 c 0x6a
 704 258 696 368 689 478 c 0
 688 492 683 476 679 467 c 2x6c
EndSplineSet
Validated: 33
EndChar
StartChar: N
Encoding: 78 78 67
Width: 834
Flags: W
HStem: -4 57 598 53<45 202> 632 20G<793 801>
VStem: 121 82<135 145 145 489> 635 80<198 509 509 525>
LayerCount: 2
Fore
SplineSet
623 199 m 1xd8
 622 199 l 1
 628 192 635 185 635 198 c 2
 635 509 l 2
 635 560 634 575 626 583 c 0
 622 587 615 590 604 592 c 0
 590 594 573 594 551 596 c 0
 526 597 522 652 552 651 c 0xd8
 628 648 704 650 793 652 c 0xb8
 809 652 809 633 810 623 c 0
 811 604 803 598 786 598 c 0
 716 596 715 596 715 525 c 2
 715 14 l 2
 715 -17 661 -13 651 -2 c 0
 486 183 360 327 213 492 c 0
 206 497 203 506 203 489 c 2
 203 145 l 2
 203 125 202 100 208 82 c 0
 219 50 250 58 275 57 c 0
 288 56 301 52 304 44 c 0
 311 30 311 -4 283 -3 c 0
 222 -2 112 -1 52 -4 c 0
 26 -6 16 53 57 53 c 0
 115 53 121 80 121 99 c 2
 121 583 l 1
 105 593 82 597 49 598 c 0
 41 598 35 612 35 625 c 0
 35 645 47 650 61 651 c 0
 116 654 168 650 202 651 c 0
 210 651 226 645 234 636 c 2
 623 199 l 1xd8
EndSplineSet
Validated: 33
EndChar
StartChar: O
Encoding: 79 79 68
Width: 827
Flags: W
HStem: -19 58<356 512 356 517.5> 610 57<323.5 464.5>
VStem: 45 131<252 413.5> 646 131<238.5 398>
LayerCount: 2
Fore
SplineSet
413 -19 m 0
 202 -19 45 125 45 312 c 0
 45 515 200 667 415 667 c 0
 626 667 777 527 777 339 c 0
 777 138 622 -19 413 -19 c 0
387 610 m 0
 260 610 176 502 176 338 c 0
 176 166 282 39 430 39 c 0
 594 39 646 163 646 309 c 0
 646 487 542 610 387 610 c 0
EndSplineSet
Validated: 1
EndChar
StartChar: P
Encoding: 80 80 69
Width: 577
Flags: W
HStem: -4 60<60.5 66> 261 51<277.5 328.5 274.5 366.5> 639 20G<225 297.5>
VStem: 122 119<87 106 106 254 329 332 332 532 532 563.5> 418 126<421.5 500>
LayerCount: 2
Fore
SplineSet
288 261 m 0
 267 261 259 262 245 264 c 0
 242 265 241 263 241 254 c 2
 241 106 l 2
 241 68 251 54 287 55 c 0
 298 55 311 57 324 57 c 0
 342 56 348 57 356 45 c 0
 359 40 361 32 360 22 c 0
 359 9 351 -7 337 -5 c 0
 260 -2 135 -2 66 -4 c 0
 55 -4 46 -3 39 7 c 0
 36 12 34 18 35 25 c 0
 36 58 40 56 74 56 c 0
 120 56 122 59 122 86 c 2
 122 532 l 2
 122 595 116 601 87 601 c 0
 62 600 25 588 20 623 c 0
 20 634 25 649 37 650 c 0
 116 659 187 659 263 659 c 0
 332 659 357 656 396 646 c 0
 486 623 544 553 544 468 c 0
 544 339 445 261 288 261 c 0
357 592 m 0
 326 608 287 611 252 607 c 0
 242 606 241 598 241 592 c 2
 241 332 l 2
 241 326 245 317 252 315 c 0
 267 312 267 312 282 312 c 0
 375 312 418 373 418 470 c 0
 418 530 393 573 357 592 c 0
EndSplineSet
Validated: 33
EndChar
StartChar: Q
Encoding: 81 81 70
Width: 822
Flags: W
HStem: -213 62 609 58<320 462.5>
VStem: 38 131<248.5 412.5> 635 133<260 397>
LayerCount: 2
Fore
SplineSet
808 -182 m 0
 802 -193 791 -205 781 -207 c 0
 762 -211 748 -213 729 -213 c 0
 634 -213 555 -159 488 -103 c 0
 452 -73 435 -56 420 -45 c 0
 407 -35 396 -31 373 -22 c 1
 172 -4 38 132 38 312 c 0
 38 513 196 667 412 667 c 0
 625 667 768 526 768 336 c 0
 768 184 672 55 530 1 c 0
 528 1 528 0 530 -1 c 0
 575 -22 615 -54 651 -84 c 0
 710 -134 741 -149 802 -151 c 0
 815 -155 816 -169 808 -182 c 0
385 609 m 0
 255 609 169 500 169 335 c 0
 169 162 277 32 426 32 c 0
 566 32 635 179 635 307 c 0
 635 487 540 609 385 609 c 0
EndSplineSet
Validated: 33
EndChar
StartChar: R
Encoding: 82 82 71
Width: 696
Flags: W
HStem: -15 21G<593 641.5> -3 56<31 55> 608 51<263.5 331>
VStem: 117 120<106 245.5 220 245.5 318.5 322 322 509 509 520.5> 423 129<430 504.5>
LayerCount: 2
Fore
SplineSet
659 -14 m 0x78
 652 -15 645 -15 638 -15 c 0xb8
 548 -15 510 17 483 48 c 0
 451 84 424 125 398 165 c 0
 382 191 370 217 355 243 c 0
 353 248 348 261 341 260 c 0
 308 257 280 256 246 257 c 0
 240 258 237 246 237 245 c 0
 237 195 237 156 238 106 c 0
 240 64 250 55 300 55 c 0
 317 57 337 60 344 39 c 0
 348 19 349 -3 321 -3 c 0
 250 -3 119 1 47 -4 c 1
 31 -3 l 2
 11 -2 1 47 35 52 c 0
 38 53 42 53 46 53 c 0
 49 53 52 53 55 53 c 0
 109 53 117 66 117 106 c 2
 117 140 l 1
 117 509 l 2
 117 532 117 549 116 562 c 0
 115 575 113 582 108 587 c 0
 100 597 81 598 35 599 c 0
 12 599 12 641 32 651 c 1
 114 659 198 659 279 659 c 0
 402 659 552 619 552 466 c 0
 552 394 512 329 453 295 c 0
 451 294 449 293 455 282 c 0
 490 227 527 174 563 120 c 0
 585 89 592 82 623 58 c 0
 635 48 649 41 674 36 c 1
 687 26 692 10 681 -6 c 0
 674 -11 667 -13 659 -14 c 0x78
269 608 m 0
 258 608 237 609 237 596 c 2
 237 322 l 2
 237 315 245 311 245 311 c 1
 269 310 306 307 329 314 c 0
 390 335 423 395 423 460 c 0
 423 549 393 608 269 608 c 0
EndSplineSet
Validated: 33
EndChar
StartChar: S
Encoding: 83 83 72
Width: 513
Flags: W
HStem: -19 60<235 279 228 316> 611 56<219.5 256.5 185 278>
VStem: 54 110<503.5 552.5> 354 114<114.5 178>
LayerCount: 2
Fore
SplineSet
253 -19 m 0
 217 -19 183 -8 149 2 c 0
 128 8 126 8 123 8 c 0
 121 8 120 7 115 0 c 1
 101 -7 75 -9 72 12 c 0
 65 52 58 103 51 164 c 0
 49 180 89 186 99 175 c 1
 119 115 135 90 169 67 c 0
 196 48 212 41 244 41 c 0
 314 41 354 84 354 140 c 0
 354 216 267 262 211 299 c 0
 137 348 54 408 54 505 c 0
 54 600 131 667 239 667 c 0
 274 667 292 660 324 650 c 0
 345 643 352 642 356 642 c 0
 358 642 360 643 361 645 c 2
 367 649 l 2
 375 652 384 652 392 651 c 0
 402 652 406 644 407 635 c 0
 418 552 422 523 423 509 c 0
 421 474 380 493 377 499 c 0
 348 571 308 611 248 611 c 0
 191 611 164 579 164 534 c 0
 164 473 243 424 289 393 c 0
 369 340 468 277 468 169 c 0
 468 60 379 -19 253 -19 c 0
EndSplineSet
Validated: 33
EndChar
StartChar: T
Encoding: 84 84 73
Width: 681
Flags: W
HStem: -4 58<191 192> -3 21G<492 496> 582 69<125.5 545 139 159 159 265 413.5 416 416 545 545 548>
VStem: 282 121<106 140 140 557>
LayerCount: 2
Fore
SplineSet
657 490 m 2xb0
 658 474 643 469 634 469 c 0
 614 469 608 476 605 492 c 0
 588 575 574 582 548 582 c 2
 416 582 l 2
 411 582 403 578 403 557 c 0
 403 493 403 249 403 140 c 2
 403 106 l 2
 403 75 408 57 466 57 c 2
 494 57 l 2
 519 57 523 25 518 12 c 0
 512 -4 500 -3 492 -3 c 0x70
 414 0 265 -2 192 -4 c 0
 177 -4 172 4 170 10 c 0
 167 18 167 32 170 41 c 0
 177 52 180 52 191 54 c 0
 204 54 215 55 230 54 c 0
 256 54 282 56 282 106 c 2
 282 140 l 2
 282 260 283 547 282 560 c 0
 282 566 280 582 265 582 c 2
 159 582 l 1
 139 582 l 2
 112 582 97 574 78 478 c 1
 60 466 28 474 29 491 c 0
 31 531 39 614 45 661 c 1
 61 679 89 674 94 661 c 0
 99 649 129 651 139 651 c 0
 239 650 442 650 545 651 c 0
 557 651 577 651 582 652 c 0
 586 653 589 654 592 661 c 0
 596 671 617 672 628 670 c 0
 638 668 641 661 642 652 c 2
 657 490 l 2xb0
EndSplineSet
Validated: 33
EndChar
StartChar: U
Encoding: 85 85 74
Width: 815
Flags: W
HStem: -19 84<347.5 451.5> 598 52<539 539>
VStem: 110 121<296 310 310 499> 619 79<304 305 305 480 480 484>
LayerCount: 2
Fore
SplineSet
780 599 m 0
 711 597 698 586 698 484 c 2
 698 305 l 2
 698 204 697 130 612 55 c 0
 554 4 501 -19 402 -19 c 0
 265 -19 178 35 133 132 c 0
 112 178 110 201 110 296 c 2
 110 549 l 2
 110 605 93 595 41 597 c 0
 19 599 13 626 24 641 c 0
 30 649 36 650 46 650 c 0
 111 650 231 650 297 650 c 0
 338 650 324 597 306 597 c 2
 297 597 l 2
 243 597 233 589 232 542 c 0
 232 527 231 514 231 499 c 2
 231 310 l 2
 231 170 270 65 425 65 c 0
 526 65 578 106 604 174 c 0
 620 216 619 260 619 304 c 2
 619 480 l 2
 619 585 609 596 539 598 c 0
 531 600 525 600 521 610 c 0
 517 618 517 631 521 640 c 0
 524 646 533 650 539 650 c 0
 589 651 718 651 779 650 c 0
 792 650 798 636 798 625 c 0
 798 618 795 602 780 599 c 0
EndSplineSet
Validated: 33
EndChar
StartChar: V
Encoding: 86 86 75
Width: 761
Flags: W
HStem: 600 50<702.5 723>
LayerCount: 2
Fore
SplineSet
629 505 m 2
 431 1 l 2
 428 -7 415 -23 404 -24 c 0
 397 -25 378 -25 363 -23 c 0
 353 -21 344 -9 341 -1 c 2
 129 520 l 2
 100 592 80 594 40 595 c 0
 31 597 25 599 20 609 c 0
 17 618 18 629 21 635 c 0
 25 649 40 650 47 650 c 0
 114 648 244 648 307 650 c 0
 317 650 331 652 337 643 c 0
 343 635 345 620 341 611 c 0
 337 600 330 599 322 595 c 0
 293 593 272 592 259 589 c 0
 235 584 240 565 245 548 c 0
 248 541 251 534 254 526 c 2
 401 166 l 2
 403 162 410 155 412 161 c 2
 549 517 l 2
 555 532 562 550 563 565 c 0
 564 580 559 591 540 596 c 0
 530 598 516 598 495 598 c 0
 484 598 479 599 473 610 c 0
 468 620 468 633 474 642 c 0
 478 648 491 651 498 650 c 0
 536 647 685 649 723 650 c 0
 756 651 748 603 727 600 c 0
 678 600 661 587 629 505 c 2
EndSplineSet
Validated: 33
EndChar
StartChar: W
Encoding: 87 87 76
Width: 1086
Flags: W
HStem: 599 52<281 285.5 281 286.5 550 557 550 591> 630 20G<20.5 64> 632 20G<1050 1056.5>
LayerCount: 2
Fore
SplineSet
414 153 m 1x80
 413 153 l 1
 417 147 421 143 426 156 c 2
 505 347 l 2
 508 354 509 369 507 375 c 2
 437 537 l 2
 413 594 410 597 340 600 c 0
 325 603 319 652 342 651 c 0
 444 649 620 649 749 651 c 0
 758 652 762 650 770 646 c 0
 782 638 781 607 769 600 c 0
 765 598 759 598 755 598 c 0
 695 597 687 591 664 536 c 2
 615 418 l 2
 613 414 612 406 615 399 c 0
 658 297 722 146 722 146 c 2
 725 138 728 135 732 146 c 2
 882 533 l 2
 906 595 902 599 845 601 c 1
 817 606 827 653 851 651 c 0x80
 898 648 987 650 1050 652 c 0x20
 1063 652 1071 639 1072 627 c 0
 1072 618 1068 600 1050 600 c 0
 998 600 985 594 957 520 c 2
 757 5 l 2
 755 0 750 -14 738 -16 c 0
 725 -18 680 -20 670 -8 c 0
 668 -5 666 1 664 5 c 2
 560 249 l 2
 555 261 550 257 546 247 c 2
 446 6 l 2
 441 -7 435 -15 421 -18 c 0
 409 -21 380 -19 368 -16 c 0
 358 -12 351 -2 347 8 c 2
 149 505 l 2
 131 551 122 572 109 582 c 0
 94 595 61 593 43 594 c 0
 37 594 30 594 23 598 c 0
 9 606 4 650 37 650 c 0x40
 91 650 191 650 281 651 c 0
 290 651 302 649 305 638 c 0
 307 629 306 617 303 609 c 0
 299 600 290 599 283 599 c 0
 247 599 245 592 245 582 c 0
 245 574 247 563 263 524 c 2
 414 153 l 1x80
591 599 m 0
 581 598 564 599 550 599 c 0
 535 598 532 598 536 584 c 0
 539 574 562 518 565 510 c 0
 570 500 573 502 576 510 c 0
 586 533 596 562 604 585 c 0
 607 594 605 598 591 599 c 0
EndSplineSet
Validated: 33
EndChar
StartChar: X
Encoding: 88 88 77
Width: 785
Flags: W
HStem: -3 21G<274 288> -2 51 599 51 632 20G<326 329.5>
LayerCount: 2
Fore
SplineSet
752 -2 m 0x60
 700 0 529 -1 486 -3 c 0xa0
 477 -4 469 -2 464 7 c 0
 457 21 462 49 476 49 c 2
 489 49 l 2
 501 49 523 50 523 58 c 0
 522 73 505 94 496 106 c 2
 384 256 l 2
 373 271 373 268 362 254 c 2
 235 97 l 2
 219 77 215 66 215 63 c 0
 215 59 216 57 220 55 c 0
 225 52 237 49 263 49 c 2
 272 49 l 2x60
 300 49 302 -3 274 -3 c 0xa0
 222 -2 111 1 42 -2 c 0
 28 -3 22 15 22 25 c 0
 22 34 28 50 42 51 c 0
 91 55 117 62 145 99 c 0
 205 176 261 244 322 320 c 0
 331 329 322 333 320 338 c 2
 183 511 l 2
 168 531 142 567 120 579 c 0
 104 589 86 591 47 592 c 0
 41 592 25 599 22 610 c 0
 21 615 18 629 22 638 c 0
 26 647 36 652 50 651 c 0
 117 648 251 648 326 652 c 0x50
 333 652 346 652 352 638 c 0
 355 633 356 612 347 603 c 0
 341 601 335 599 327 599 c 0
 306 598 294 598 285 597 c 0
 277 596 275 592 280 581 c 0
 284 571 294 557 302 547 c 2
 398 421 l 2
 401 418 409 427 409 427 c 1
 445 474 482 520 516 570 c 0
 530 590 525 597 502 597 c 0
 493 597 470 596 463 602 c 0
 452 612 452 636 462 644 c 0
 466 648 474 650 480 650 c 0
 561 650 630 647 711 651 c 1
 742 647 738 598 711 599 c 0
 630 594 591 547 541 483 c 2
 451 365 l 2
 446 359 447 358 451 353 c 0
 511 286 618 139 622 134 c 0
 667 75 670 58 755 48 c 0
 767 47 773 33 773 22 c 0
 773 14 768 -3 752 -2 c 0x60
EndSplineSet
Validated: 33
EndChar
StartChar: Y
Encoding: 89 89 78
Width: 728
Flags: W
HStem: -4 61 -3 21G<251 255> 598 52<33 35 502 503>
VStem: 328 119<240 240>
LayerCount: 2
Fore
SplineSet
716 599 m 0xb0
 645 595 623 544 592 493 c 2
 447 252 l 1
 448 205 447 134 447 106 c 0
 447 65 471 58 506 56 c 0
 517 56 527 59 537 53 c 0
 549 47 547 34 547 23 c 0
 547 13 542 -4 525 -4 c 0xb0
 405 -2 362 0 255 -3 c 0x70
 247 -3 233 2 229 10 c 0
 225 20 226 32 228 39 c 0
 239 67 262 56 285 57 c 0
 315 59 325 74 327 107 c 0
 329 138 330 203 328 240 c 1
 149 515 l 2
 103 586 89 596 35 598 c 0
 26 598 15 598 11 612 c 0
 10 616 10 625 11 630 c 0
 13 639 20 652 33 650 c 0
 101 649 244 648 297 650 c 0
 319 651 333 597 294 597 c 0
 276 597 265 597 258 596 c 0
 245 593 245 587 249 576 c 0
 252 569 258 558 272 536 c 2
 396 349 l 2
 401 341 404 334 413 349 c 2
 519 524 l 2
 537 554 546 575 546 583 c 0
 546 594 543 598 503 598 c 2
 491 598 l 1
 478 604 464 652 502 650 c 0
 552 648 638 648 715 650 c 0
 730 650 735 635 735 625 c 0
 735 617 731 599 716 599 c 0xb0
EndSplineSet
Validated: 33
EndChar
StartChar: Z
Encoding: 90 90 79
Width: 705
Flags: W
HStem: -3 70<227 332> -2 21G<55.5 67 553 592.5> 583 67<199.5 246 246 448>
LayerCount: 2
Fore
SplineSet
628 18 m 0xa0
 625 5 597 -2 588 -2 c 0x60
 518 -2 388 -3 276 -3 c 0xa0
 167 -3 73 -2 61 -2 c 0x60
 50 -2 28 3 31 26 c 0
 32 32 35 41 38 45 c 2
 446 574 l 2
 448 577 449 583 448 583 c 2
 246 583 l 2
 153 583 144 579 133 488 c 1
 132 483 l 2
 131 474 81 470 81 492 c 0
 81 530 82 598 86 632 c 0
 89 643 106 648 117 650 c 2
 585 650 l 2
 594 650 610 651 615 640 c 0
 618 635 624 619 615 604 c 2
 201 72 l 2
 196 67 224 67 227 67 c 2
 457 67 l 2
 562 67 576 99 586 196 c 0
 587 205 587 210 601 211 c 0
 609 212 620 211 625 211 c 0
 638 211 642 206 642 198 c 0
 640 149 633 63 628 18 c 0xa0
EndSplineSet
Validated: 33
EndChar
StartChar: bracketleft
Encoding: 91 91 80
Width: 337
Flags: W
VStem: 99 95<-163.5 -56.5 -56.5 612 552.5 612> 99 178<650 656 656 659 650 656 656 670.5>
LayerCount: 2
Fore
SplineSet
250 -227 m 0x40
 218 -229 160 -230 128 -229 c 0
 111 -228 99 -220 99 -199 c 0
 99 14 99 446 99 659 c 0
 99 682 107 688 129 690 c 0
 165 693 219 689 255 689 c 0
 265 689 277 689 277 676 c 2
 277 656 l 2x40
 277 644 270 641 260 640 c 0
 248 639 210 638 201 633 c 0
 198 631 194 628 194 612 c 0
 194 422 194 40 194 -153 c 0x80
 194 -174 199 -173 235 -176 c 2
 261 -178 l 2
 274 -179 277 -184 277 -199 c 2
 277 -215 l 2
 277 -228 261 -226 250 -227 c 0x40
EndSplineSet
Validated: 33
EndChar
StartChar: backslash
Encoding: 92 92 81
Width: 479
Flags: W
HStem: 654 20G
LayerCount: 2
Fore
SplineSet
424 -14 m 2
 383 -19 l 2
 364 -21 358 -12 351 2 c 2
 36 645 l 2
 26 665 44 674 63 674 c 2
 94 674 l 2
 114 674 119 675 130 654 c 2
 440 23 l 2
 446 10 454 -11 424 -14 c 2
EndSplineSet
Validated: 33
EndChar
StartChar: bracketright
Encoding: 93 93 82
Width: 343
Flags: W
VStem: 27 178<-209.5 -194 -194 -190> 110 95<-152 -92.5 -92.5 614>
LayerCount: 2
Fore
SplineSet
205 -199 m 0x80
 205 -220 191 -228 174 -229 c 0
 142 -230 79 -231 47 -229 c 0
 38 -228 27 -223 27 -210 c 2
 27 -194 l 2x80
 27 -186 33 -182 41 -180 c 0
 49 -178 64 -178 73 -177 c 0
 95 -176 109 -176 110 -152 c 0
 111 39 113 421 110 614 c 0x40
 109 634 106 635 89 637 c 0
 74 638 59 639 44 640 c 0
 36 641 27 642 27 655 c 2
 27 673 l 2
 27 687 36 690 43 690 c 2
 54 690 l 2
 86 690 145 692 175 690 c 0
 198 688 205 677 205 654 c 0
 205 441 205 14 205 -199 c 0x80
EndSplineSet
Validated: 33
EndChar
StartChar: asciicircum
Encoding: 94 94 83
Width: 491
Flags: W
HStem: 691 20G<238 257 257 261>
LayerCount: 2
Fore
SplineSet
454 336 m 0
 426 333 414 328 398 355 c 0
 362 418 297 524 256 588 c 0
 249 599 245 598 238 588 c 0
 197 525 130 412 94 351 c 0
 84 335 74 334 59 334 c 0
 50 335 39 334 30 338 c 0
 15 344 16 359 24 374 c 0
 70 453 166 612 227 703 c 0
 228 706 232 711 238 711 c 2
 257 711 l 2
 265 711 268 706 270 703 c 0
 339 592 422 456 472 370 c 0
 486 346 468 337 454 336 c 0
EndSplineSet
Validated: 33
EndChar
StartChar: underscore
Encoding: 95 95 84
Width: 523
Flags: W
HStem: -232 53<449.5 500 500 518 449.5 520> -198 20G<5 15>
LayerCount: 2
Fore
SplineSet
520 -232 m 0x80
 513 -233 508 -232 500 -232 c 2
 19 -232 l 2x80
 -8 -232 -4 -226 -4 -211 c 2
 -4 -193 l 2
 -4 -184 -5 -178 15 -178 c 0x40
 140 -179 388 -179 511 -179 c 0
 525 -179 529 -183 529 -195 c 2
 529 -216 l 2
 529 -226 530 -231 520 -232 c 0x80
EndSplineSet
Validated: 1
EndChar
StartChar: grave
Encoding: 96 96 85
Width: 348
Flags: W
HStem: 637 20G<82 88> 638 20G<160 164.5>
LayerCount: 2
Fore
SplineSet
193 483 m 0x40
 163 521 108 582 68 624 c 0
 52 641 76 657 88 657 c 2x80
 160 658 l 2
 169 658 179 658 187 646 c 0
 204 604 224 537 234 497 c 0
 236 473 205 473 193 483 c 0x40
EndSplineSet
Validated: 33
EndChar
StartChar: a
Encoding: 97 97 86
Width: 421
Flags: W
HStem: -12 66<98 169.5> 371 60<175 189>
VStem: 29 90 227 101<96 104 104 162 162 164>
LayerCount: 2
Fore
SplineSet
234 36 m 1
 234 35 l 1
 190 1 168 -12 128 -12 c 0
 68 -12 23 27 23 84 c 0
 23 140 65 173 134 191 c 0
 165 199 194 212 223 225 c 0
 225 227 228 230 228 234 c 2
 227 295 l 2
 226 348 205 371 173 371 c 0
 155 371 128 351 128 338 c 0
 128 325 127 326 132 313 c 1
 120 299 72 279 65 277 c 0
 44 270 29 273 29 301 c 0
 29 330 57 361 94 390 c 0
 131 418 158 431 192 431 c 0
 237 431 285 406 309 372 c 0
 327 348 328 338 328 278 c 2
 328 104 l 2
 328 69 332 67 339 67 c 0
 352 67 362 73 373 82 c 0
 379 86 381 87 389 87 c 0
 410 84 408 60 404 48 c 1
 362 11 321 -12 292 -12 c 0
 261 -12 242 5 234 36 c 1
227 162 m 2
 227 166 224 171 221 170 c 0
 201 160 186 154 165 145 c 0
 128 131 119 116 119 96 c 0
 119 72 137 54 162 54 c 0
 177 54 219 79 227 96 c 1
 227 162 l 2
EndSplineSet
Validated: 33
EndChar
StartChar: b
Encoding: 98 98 87
Width: 494
Flags: W
HStem: -15 63<234.5 287.5 234.5 298.5> 357 79<274 288>
VStem: 75 95<198 234.5 385 430.5 430.5 586 586 594.5> 366 98<162.5 249.5>
LayerCount: 2
Fore
SplineSet
171 376 m 1
 204 399 253 436 295 436 c 0
 391 436 464 341 464 232 c 0
 464 93 367 -15 230 -15 c 0
 200 -15 142 -7 92 4 c 0
 83 7 76 20 75 31 c 0
 77 224 76 461 75 586 c 0
 75 603 74 614 74 621 c 0
 74 626 73 628 61 630 c 0
 47 632 34 635 19 638 c 0
 1 644 1 678 19 684 c 2
 138 724 l 2
 164 732 170 720 170 700 c 0
 170 633 170 473 170 388 c 0
 170 382 170 378 171 376 c 1
258 357 m 0
 235 357 213 345 174 317 c 0
 171 315 171 306 171 294 c 0
 170 275 170 248 170 221 c 0
 170 175 171 128 177 106 c 0
 185 71 214 48 255 48 c 0
 320 48 366 106 366 201 c 0
 366 298 318 357 258 357 c 0
EndSplineSet
Validated: 33
EndChar
StartChar: c
Encoding: 99 99 88
Width: 432
Flags: W
LayerCount: 2
Fore
SplineSet
389 93 m 0
 346 24 285 -12 213 -12 c 0
 107 -12 30 76 30 193 c 0
 30 326 137 432 270 432 c 0
 331 432 391 408 391 364 c 0
 391 341 373 323 351 323 c 0
 328 323 312 334 287 358 c 0
 266 379 253 384 235 384 c 0
 176 384 121 309 121 216 c 0
 121 117 174 53 247 53 c 0
 294 53 330 75 357 114 c 0
 360 121 369 131 380 128 c 0
 385 126 392 118 393 112 c 0
 395 105 391 96 389 93 c 0
EndSplineSet
EndChar
StartChar: d
Encoding: 100 100 89
Width: 513
Flags: W
LayerCount: 2
Fore
SplineSet
492 39 m 0
 459 23 397 0 363 -10 c 0
 338 -18 333 12 334 26 c 0
 335 42 330 45 326 43 c 0
 270 4 230 -15 192 -15 c 0
 96 -15 22 80 22 193 c 0
 22 327 120 432 248 432 c 0
 273 432 297 427 323 419 c 0
 334 416 334 433 335 442 c 0
 336 481 335 615 335 632 c 0
 334 636 334 642 330 644 c 0
 318 651 289 650 275 652 c 0
 264 653 263 661 262 670 c 0
 261 680 265 689 276 691 c 0
 310 702 360 719 399 734 c 0
 417 741 423 725 423 711 c 2
 423 121 l 2
 423 72 426 71 444 71 c 0
 449 71 469 78 473 80 c 0
 485 82 492 85 498 68 c 0
 501 56 498 42 492 39 c 0
334 310 m 1
 299 361 268 380 227 380 c 0
 159 380 113 319 113 224 c 0
 113 123 164 55 228 55 c 0
 253 55 288 68 327 95 c 0
 328 95 333 102 334 113 c 2
 334 310 l 1
EndSplineSet
EndChar
StartChar: e
Encoding: 101 101 90
Width: 432
Flags: W
LayerCount: 2
Fore
SplineSet
386 260 m 0
 311 257 193 259 131 260 c 0
 114 260 112 238 112 227 c 0
 112 128 172 58 251 58 c 0
 295 58 330 75 367 119 c 0
 371 124 380 127 387 125 c 0
 398 123 406 107 400 97 c 0
 351 40 291 -15 212 -15 c 0
 105 -15 26 82 26 202 c 0
 26 331 113 429 231 429 c 0
 301 429 347 401 376 340 c 0
 384 323 391 308 403 293 c 1
 408 277 406 261 386 260 c 0
210 388 m 0
 173 388 144 363 125 312 c 0
 122 304 138 302 142 302 c 2
 277 302 l 2
 282 302 295 303 293 309 c 0
 279 362 248 388 210 388 c 0
EndSplineSet
EndChar
StartChar: f
Encoding: 102 102 91
Width: 324
Flags: W
HStem: -3 54<46.5 70.5 46.5 286> 343 81<200 285> 650 77<266.5 344>
VStem: 93 101<138 330 330 332>
LayerCount: 2
Fore
SplineSet
426 616 m 0
 408 587 386 602 371 614 c 0
 346 635 310 650 284 650 c 0
 249 650 219 628 206 593 c 0
 197 568 192 544 193 500 c 2
 194 437 l 2
 194 426 197 424 200 424 c 2
 268 424 l 2
 277 424 288 423 291 414 c 0
 292 413 292 412 293 410 c 0
 298 390 300 361 300 361 c 2
 298 347 293 343 277 343 c 2
 196 344 l 2
 194 344 194 338 194 332 c 2
 194 135 l 2
 194 86 196 72 202 64 c 0
 214 48 264 55 283 53 c 0
 301 52 304 37 305 23 c 0
 305 12 297 -3 286 -3 c 0
 224 -1 101 0 41 -3 c 0
 27 -4 22 13 22 23 c 0
 22 26 23 33 25 38 c 0
 31 50 41 51 52 51 c 0
 89 51 93 58 93 138 c 2
 93 330 l 1
 93 337 l 2
 93 339 89 345 87 346 c 2
 41 346 l 2
 32 346 23 347 20 357 c 0
 17 367 16 388 27 395 c 0
 34 397 89 410 93 421 c 0
 94 424 94 428 94 431 c 0
 94 441 95 449 95 465 c 0
 99 540 112 586 167 646 c 0
 217 700 272 727 328 727 c 0
 360 727 419 713 443 679 c 0
 446 674 447 668 447 662 c 0
 447 650 436 631 426 616 c 0
EndSplineSet
Validated: 33
EndChar
StartChar: g
Encoding: 103 103 92
Width: 486
Flags: W
HStem: -250 70<209 261.5> -32 90 108 54<202.5 239 199 258.5> 376 53<192.5 232>
VStem: 23 94<-107 -103> 48 94<239.5 307> 291 93<227 273 218.5 296> 379 81<-111.5 -74>
LayerCount: 2
Fore
SplineSet
460 -65 m 0xf9
 460 -173 332 -250 191 -250 c 0
 125 -250 23 -210 23 -133 c 0
 23 -73 59 -47 103 -20 c 0
 107 -17 109 -13 106 -12 c 0
 60 7 41 35 41 66 c 0
 41 91 71 105 89 115 c 0
 100 121 109 126 117 131 c 0xf9
 121 134 115 137 115 137 c 1
 73 164 48 206 48 258 c 0
 48 356 126 429 223 429 c 0
 266 429 303 416 331 388 c 1
 334 388 l 2
 340 388 397 395 421 399 c 0
 439 401 450 401 452 379 c 0
 453 362 456 344 455 326 c 0
 453 318 450 305 435 305 c 0
 426 305 397 309 383 310 c 0
 378 311 379 302 379 303 c 1xf5
 383 290 384 280 384 266 c 0xfa
 384 171 308 108 209 108 c 0
 196 108 184 109 172 112 c 1
 165 104 156 98 148 91 c 0
 137 82 124 71 145 65 c 0
 159 61 187 58 244 58 c 0
 334 57 460 56 460 -65 c 0xf9
291 260 m 0xf6
 291 332 253 376 211 376 c 0
 174 376 142 338 142 278 c 0
 142 201 179 162 219 162 c 0
 259 162 291 194 291 260 c 0xf6
379 -91 m 0xf9
 379 -57 363 -38 281 -32 c 0
 240 -29 213 -31 174 -29 c 1
 166 -39 156 -46 148 -55 c 0
 135 -68 117 -91 117 -107 c 0
 116 -147 173 -180 245 -180 c 0
 306 -180 379 -132 379 -91 c 0xf9
EndSplineSet
Validated: 33
EndChar
StartChar: h
Encoding: 104 104 93
Width: 526
Flags: W
HStem: -3 57 -2 21G<284 296 296 504> 365 70<257.5 351>
VStem: 85 101<138 299 407 408 408 583 583 583> 350 95<63.5 263>
LayerCount: 2
Fore
SplineSet
504 -2 m 0x78
 406 -4 347 -1 296 -2 c 0x78
 272 -2 270 19 269 24 c 0
 269 32 272 52 289 52 c 2
 294 52 l 2
 337 52 339 58 343 87 c 0
 348 129 350 172 350 219 c 0
 350 307 343 326 327 343 c 0
 314 357 296 365 275 365 c 0
 240 365 221 349 193 332 c 0
 185 328 186 306 186 299 c 2
 186 97 l 2
 187 52 192 51 227 51 c 0
 240 51 250 49 252 33 c 0
 252 28 251 21 252 16 c 0
 252 0 246 -5 230 -3 c 0
 179 -1 88 -5 32 -3 c 0
 22 -4 20 1 15 12 c 0
 11 21 12 37 16 44 c 0
 19 50 23 49 32 51 c 0
 36 51 41 52 45 52 c 0
 80 55 85 57 85 138 c 2
 85 583 l 1
 84 619 l 2
 84 628 78 633 69 635 c 0
 55 637 43 638 30 640 c 0
 10 642 9 679 27 686 c 0
 59 699 112 717 154 729 c 0
 172 734 186 728 186 702 c 2
 186 408 l 2
 186 406 188 390 192 392 c 0
 235 419 267 435 323 435 c 0
 379 435 421 412 437 359 c 0
 448 327 451 288 451 248 c 0
 451 190 445 131 445 72 c 0
 445 55 448 54 495 54 c 0xb8
 517 54 518 41 520 25 c 0
 521 13 516 -2 504 -2 c 0x78
EndSplineSet
Validated: 33
EndChar
StartChar: i
Encoding: 105 105 94
Width: 273
Flags: W
HStem: -3 56<211 227 211 230> 548 114<113.5 145>
VStem: 71 120 94 97<121 131 121 131 131 305 305 317.5>
LayerCount: 2
Fore
SplineSet
129 548 m 0xe0
 94 548 71 572 71 604 c 0
 71 637 97 662 130 662 c 0
 164 662 189 638 189 603 c 0
 189 570 161 548 129 548 c 0xe0
255 15 m 0
 255 0 244 -4 230 -3 c 0
 184 0 87 -2 38 -3 c 0
 28 -3 20 11 18 22 c 0
 17 33 21 49 35 50 c 0
 71 53 84 56 89 65 c 0
 92 70 93 76 94 87 c 0
 94 98 94 113 94 131 c 2
 94 305 l 2xd0
 94 330 93 339 91 343 c 0
 89 346 79 347 76 348 c 0
 61 351 51 354 37 359 c 0
 19 365 24 395 34 402 c 0
 69 415 113 431 153 444 c 0
 186 455 191 431 191 413 c 2
 191 131 l 2
 191 111 191 95 192 82 c 0
 193 53 195 53 227 53 c 0
 242 54 253 48 255 33 c 0
 255 30 255 18 255 15 c 0
EndSplineSet
Validated: 33
EndChar
StartChar: j
Encoding: 106 106 95
Width: 250
Flags: W
HStem: -244 69<-31.5 47.5> -244 129<-78.5 20> 536 115<100.5 134>
VStem: 83 96<-13.5 -8 -8 29 29 306 306 327>
LayerCount: 2
Fore
SplineSet
117 536 m 0xb0
 83 536 57 561 57 594 c 0
 57 627 84 651 117 651 c 0
 152 651 176 626 176 594 c 0
 176 561 151 536 117 536 c 0xb0
159 -129 m 0
 149 -154 134 -175 117 -194 c 0
 85 -229 44 -244 -4 -244 c 0
 -59 -244 -109 -220 -109 -177 c 0
 -109 -150 -93 -115 -64 -115 c 0x70
 -44 -115 -28 -134 -16 -148 c 0
 -4 -163 15 -175 32 -175 c 0
 63 -175 83 -154 83 -69 c 2
 83 -8 l 1
 83 306 l 2
 83 348 83 347 54 353 c 0
 43 356 33 358 25 360 c 0
 7 366 12 399 23 404 c 0
 30 407 79 427 145 449 c 0
 173 459 179 431 179 420 c 2
 179 29 l 2
 179 -56 177 -86 159 -129 c 0
EndSplineSet
Validated: 33
EndChar
StartChar: k
Encoding: 107 107 96
Width: 518
Flags: W
HStem: -3 52<276.5 279 279 298 481 490> 378 53<457 460 452 461.5> 410 20G<262 271>
VStem: 76 97<169.5 186 300 302 302 567 567 574.5>
LayerCount: 2
Fore
SplineSet
174 186 m 1xd0
 173 186 l 1
 173 153 173 130 174 97 c 0
 174 87 173 71 176 62 c 0
 179 55 184 50 199 50 c 0
 209 49 215 50 225 50 c 0
 236 50 240 34 240 23 c 0
 240 12 236 -3 224 -3 c 0
 176 -2 80 0 29 -3 c 0
 25 -3 18 -3 14 5 c 0
 9 14 8 30 12 40 c 0
 16 48 22 51 36 51 c 0
 75 51 76 55 76 138 c 2
 76 567 l 2
 76 582 76 591 75 603 c 0
 75 624 71 625 49 630 c 0
 47 630 30 635 25 635 c 0
 9 639 7 652 9 665 c 0
 10 673 17 678 22 680 c 0
 74 698 92 705 138 722 c 0
 162 730 173 720 173 695 c 2
 173 302 l 2
 173 298 172 283 177 287 c 2
 280 362 l 2
 286 366 292 370 295 373 c 0
 299 377 297 379 287 380 c 0
 278 380 274 380 270 380 c 0
 254 382 245 387 247 407 c 0
 248 421 253 430 271 430 c 0xb0
 331 429 407 430 452 431 c 0
 468 431 473 414 473 405 c 0
 473 396 466 378 457 378 c 0
 412 377 383 365 342 335 c 0
 309 310 279 289 244 265 c 0
 242 261 241 261 244 258 c 0
 303 198 360 139 421 79 c 0
 442 57 452 49 481 49 c 2
 493 49 l 1
 517 39 508 -4 490 -3 c 0
 436 0 330 -1 279 -3 c 0
 273 -3 267 -1 264 5 c 0
 261 10 260 25 260 30 c 0
 260 46 268 49 285 49 c 0
 311 49 310 54 289 75 c 2
 180 191 l 2
 173 198 172 195 174 186 c 1xd0
EndSplineSet
Validated: 33
EndChar
StartChar: l
Encoding: 108 108 97
Width: 269
Flags: W
HStem: -2 53<36 38 38 43 207.5 232.5>
VStem: 91 98<104 105 105 611 611 614>
LayerCount: 2
Fore
SplineSet
236 -2 m 0
 146 -1 106 0 38 -2 c 0
 34 -2 19 3 17 13 c 0
 14 24 16 46 29 50 c 0
 32 51 34 51 36 51 c 2
 43 51 l 2
 86 50 91 57 91 104 c 2
 91 611 l 2
 91 617 90 622 84 623 c 0
 68 626 52 628 36 632 c 0
 17 636 15 668 34 675 c 0
 60 685 110 704 163 720 c 0
 180 722 189 713 189 689 c 2
 189 105 l 2
 189 55 188 51 227 51 c 0
 238 51 252 51 255 37 c 0
 256 32 255 28 255 23 c 0
 255 11 253 -2 236 -2 c 0
EndSplineSet
Validated: 33
EndChar
StartChar: m
Encoding: 109 109 98
Width: 815
Flags: W
HStem: -3 51<211.5 233 211.5 240 501 505.5 566 568 568 590.5> -2 21G<283 296> 361 68<315 316 575.5 583.5>
VStem: 86 100<136 272 272 299.5> 355 99<136 291 291 310> 621 98<66.5 282.5>
LayerCount: 2
Fore
SplineSet
192 370 m 0xbc
 234 398 287 429 343 429 c 0
 391 429 429 403 445 360 c 0
 446 358 447 360 449 361 c 0
 496 394 545 429 606 429 c 0
 652 429 690 405 708 366 c 0
 721 335 723 305 723 229 c 0
 723 178 719 128 719 78 c 0
 719 55 722 52 773 52 c 0
 779 52 791 53 798 48 c 0
 807 43 806 24 805 16 c 0
 805 4 797 -3 786 -3 c 0
 716 0 637 -2 568 -3 c 0
 560 -3 553 0 550 5 c 0
 546 10 544 31 549 40 c 0
 555 50 560 48 572 48 c 0
 609 48 615 53 618 88 c 0
 621 127 621 164 621 221 c 0
 621 344 604 361 563 361 c 0
 539 361 503 342 454 310 c 1
 454 95 l 2
 454 53 460 48 497 48 c 0
 514 48 519 39 520 24 c 0
 520 16 516 -3 501 -3 c 0xbc
 451 -2 350 -1 296 -2 c 0x7c
 270 -2 268 48 299 49 c 0
 301 49 304 49 306 49 c 0
 348 49 355 50 355 136 c 2
 355 291 l 2
 355 338 332 361 300 361 c 0
 262 361 216 330 186 310 c 1
 186 95 l 2
 186 52 190 48 233 48 c 0
 241 49 242 47 249 46 c 0
 255 45 256 27 256 14 c 0
 254 1 248 -3 240 -3 c 0
 191 -1 91 -1 34 -3 c 0
 26 -3 18 -1 15 6 c 0
 10 15 11 35 17 43 c 0
 20 46 24 47 29 48 c 0
 34 49 39 50 45 50 c 0
 78 51 86 53 86 136 c 2
 86 272 l 2
 86 327 85 338 85 339 c 0
 82 344 77 346 53 349 c 2
 30 352 l 2
 14 354 14 374 18 387 c 0
 20 393 25 396 27 397 c 0
 55 410 112 427 158 439 c 0
 181 444 186 426 186 412 c 2
 186 373 l 2
 186 369 188 367 192 370 c 0xbc
EndSplineSet
Validated: 33
EndChar
StartChar: n
Encoding: 110 110 99
Width: 519
Flags: W
HStem: -2 50<35 35> 357 72<307.5 311>
VStem: 85 97<137 268 268 296.5> 353 90
LayerCount: 2
Fore
SplineSet
499 0 m 0
 495 -2 489 -2 484 -2 c 0
 436 -3 350 -1 299 -2 c 0
 279 -3 275 2 274 19 c 0
 274 28 277 50 291 50 c 2
 297 50 l 2
 336 53 343 61 347 94 c 0
 353 149 353 205 353 261 c 0
 353 333 330 357 292 357 c 0
 269 357 224 336 182 306 c 1
 182 95 l 2
 182 52 187 50 231 50 c 0
 239 50 247 44 249 32 c 0
 249 24 249 12 246 6 c 0
 243 -2 236 -2 226 -3 c 0
 163 -1 99 -5 35 -2 c 0
 25 -1 21 -1 18 6 c 0
 16 11 15 33 17 38 c 0
 21 44 27 48 34 48 c 2
 39 48 l 2
 74 48 85 51 85 137 c 2
 85 268 l 2
 85 325 83 338 82 341 c 0
 80 344 79 345 51 350 c 2
 31 354 l 2
 9 359 19 395 30 400 c 0
 57 409 90 421 116 431 c 0
 127 435 137 439 147 441 c 0
 172 446 182 439 182 415 c 2
 182 373 l 2
 182 364 183 363 189 367 c 0
 229 394 283 429 332 429 c 0
 441 429 451 313 451 247 c 0
 451 189 443 132 443 74 c 0
 443 53 446 50 479 50 c 0
 488 53 499 51 506 43 c 0
 511 34 514 7 499 0 c 0
EndSplineSet
Validated: 33
EndChar
StartChar: o
Encoding: 111 111 100
Width: 502
Flags: W
HStem: -15 56<229.5 296 229.5 318.5> 375 55<207 273>
VStem: 20 108<179.5 272> 374 111<148.5 246>
LayerCount: 2
Fore
SplineSet
254 -15 m 0
 122 -15 20 82 20 208 c 0
 20 336 121 430 251 430 c 0
 382 430 485 334 485 207 c 0
 485 83 383 -15 254 -15 c 0
237 375 m 0
 177 375 128 319 128 237 c 0
 128 122 193 41 266 41 c 0
 326 41 374 105 374 192 c 0
 374 300 309 375 237 375 c 0
EndSplineSet
Validated: 1
EndChar
StartChar: p
Encoding: 112 112 101
Width: 506
Flags: W
HStem: -279 21G<249 251.5> -278 54<25.5 52 25 65> -20 63<265.5 309 265.5 315> 346 79<297.5 299>
VStem: 82 99<-126 -19 90 277 277 297> 381 101<157.5 236.5>
LayerCount: 2
Fore
SplineSet
187 369 m 0x7c
 243 408 278 425 317 425 c 0
 408 425 482 326 482 221 c 0
 482 94 376 -20 254 -20 c 0
 231 -20 213 -16 189 -9 c 0
 185 -8 181 -10 181 -19 c 2
 181 -126 l 2
 181 -220 187 -221 232 -221 c 2
 246 -221 l 2
 254 -221 269 -225 273 -236 c 0
 276 -244 276 -261 272 -269 c 0
 267 -278 254 -279 249 -279 c 0xbc
 181 -276 100 -278 30 -278 c 0
 21 -278 16 -278 10 -269 c 0
 3 -259 4 -242 10 -232 c 0
 16 -223 20 -224 30 -224 c 0
 74 -224 82 -220 82 -126 c 2
 82 277 l 1
 82 300 l 2
 82 318 81 319 65 323 c 0
 53 326 42 331 31 334 c 0
 12 338 12 365 22 375 c 0
 23 377 24 378 26 380 c 2
 137 447 l 2
 152 456 181 461 181 430 c 2
 181 378 l 2
 181 372 182 366 187 369 c 0x7c
268 346 m 0
 244 346 216 332 184 307 c 0
 183 306 181 302 181 297 c 2
 181 90 l 1
 214 59 250 43 281 43 c 0
 337 43 381 103 381 188 c 0
 381 285 330 346 268 346 c 0
EndSplineSet
Validated: 33
EndChar
StartChar: q
Encoding: 113 113 102
Width: 507
Flags: W
HStem: -277 56<254.5 308 280 308 280 477> -21 72<214 225.5> 373 53<207.5 262>
VStem: 29 96<168.5 256.5> 336 98<-124 17 17 17>
LayerCount: 2
Fore
SplineSet
329 30 m 0
 286 -3 247 -21 204 -21 c 0
 101 -21 29 73 29 191 c 0
 29 322 126 426 253 426 c 0
 288 426 324 413 361 394 c 0
 372 389 367 385 376 396 c 0
 384 406 392 417 399 423 c 0
 406 427 432 432 442 415 c 1
 436 394 434 368 434 341 c 2
 434 298 l 1
 434 -124 l 2
 434 -217 444 -222 475 -222 c 2
 485 -222 l 2
 505 -222 508 -254 498 -271 c 0
 494 -278 484 -277 477 -277 c 0
 416 -275 319 -275 260 -277 c 0
 249 -277 231 -274 231 -252 c 0
 231 -238 230 -229 246 -222 c 0
 259 -220 273 -221 287 -221 c 0
 329 -221 336 -219 336 -124 c 2
 336 17 l 2
 334 30 335 34 329 30 c 0
335 282 m 0
 334 295 332 302 328 313 c 0
 316 348 282 373 242 373 c 0
 173 373 125 319 125 218 c 0
 125 119 181 51 247 51 c 0
 271 51 302 65 334 92 c 0
 335 94 337 108 337 117 c 0
 337 196 339 228 335 282 c 0
EndSplineSet
Validated: 33
EndChar
StartChar: r
Encoding: 114 114 103
Width: 363
Flags: W
HStem: -3 52<44 62.5 34 256>
VStem: 22 168<17.5 107.5> 90 100<95 308>
LayerCount: 2
Fore
SplineSet
318 312 m 1xa0
 297 314 290 317 272 326 c 0
 260 332 252 336 242 336 c 0
 230 336 214 328 189 283 c 1
 189 197 189 162 189 143 c 0
 189 123 190 120 190 95 c 0
 192 52 193 50 236 50 c 2
 257 50 l 2
 282 50 280 10 269 0 c 0
 265 -3 260 -3 256 -3 c 0
 186 -3 115 1 44 -3 c 0
 23 -4 22 12 22 23 c 0xc0
 22 40 23 49 45 49 c 0
 80 49 90 52 90 136 c 2
 90 308 l 2
 90 310 89 323 87 324 c 0
 75 329 55 336 40 342 c 0
 31 346 26 346 25 357 c 2
 25 371 l 2
 25 382 30 388 39 391 c 0
 74 409 97 413 154 434 c 0
 175 442 186 428 186 414 c 0
 187 400 187 371 187 357 c 1
 194 372 206 411 221 419 c 0
 260 439 290 416 326 408 c 0
 329 407 332 406 335 405 c 0
 341 403 355 395 350 381 c 0
 343 359 332 337 318 312 c 1xa0
EndSplineSet
Validated: 33
EndChar
StartChar: s
Encoding: 115 115 104
Width: 327
Flags: W
HStem: -10 50<150.5 172.5 141 198> 379 56<147.5 173.5>
VStem: 33 84<319.5 347> 208 92<84.5 107>
LayerCount: 2
Fore
SplineSet
161 -10 m 0
 140 -10 119 -7 100 1 c 0
 97 2 95 3 94 3 c 0
 93 2 92 0 89 -7 c 1
 81 -10 73 -14 64 -12 c 0
 55 -10 46 -6 45 7 c 0
 42 45 39 83 37 116 c 0
 36 130 53 136 70 134 c 0
 81 130 83 122 84 117 c 0
 97 61 124 40 158 40 c 0
 187 40 208 63 208 91 c 0
 208 123 179 146 155 163 c 0
 102 200 33 235 33 309 c 0
 33 385 96 435 175 435 c 0
 203 435 232 428 266 414 c 1
 269 382 270 334 268 309 c 0
 267 302 255 294 244 294 c 0
 236 294 223 298 222 307 c 0
 212 358 187 379 160 379 c 0
 135 379 117 362 117 339 c 0
 117 300 190 264 218 245 c 0
 260 216 300 177 300 121 c 0
 300 48 235 -10 161 -10 c 0
EndSplineSet
Validated: 33
EndChar
StartChar: t
Encoding: 116 116 105
Width: 322
Flags: W
HStem: -11 76<194 206.5> 354 73<171 172>
VStem: 66 96<131 159 159 182 182 338>
LayerCount: 2
Fore
SplineSet
180 -11 m 0
 112 -11 66 45 66 120 c 2
 66 159 l 1
 66 339 l 2
 66 349 65 351 61 352 c 0
 47 353 41 354 26 356 c 1
 20 366 16 380 20 389 c 0
 23 395 30 400 33 401 c 0
 67 418 94 460 116 521 c 0
 120 540 163 543 162 518 c 0
 161 496 160 452 162 430 c 0
 162 428 169 428 171 427 c 2
 268 427 l 2
 278 427 296 420 290 399 c 0
 288 389 284 375 280 365 c 0
 274 354 269 352 255 352 c 2
 172 354 l 2
 168 354 162 351 162 338 c 2
 162 182 l 2
 162 80 177 65 211 65 c 0
 224 65 241 75 260 110 c 0
 267 128 292 119 299 112 c 0
 308 101 307 98 302 83 c 0
 276 25 233 -11 180 -11 c 0
EndSplineSet
Validated: 33
EndChar
StartChar: v
Encoding: 118 118 107
Width: 512
Flags: W
HStem: 369 50<198.5 217 217 226 312 319.5>
LayerCount: 2
Fore
SplineSet
489 370 m 0
 454 366 445 357 410 276 c 2
 290 7 l 2
 286 0 284 -8 273 -10 c 0
 266 -11 243 -11 237 -8 c 0
 226 -4 225 3 221 11 c 2
 94 296 l 2
 84 318 79 331 75 339 c 0
 62 366 51 365 25 369 c 0
 4 373 3 398 12 411 c 0
 14 416 18 419 22 419 c 0
 42 421 165 416 228 419 c 0
 238 419 244 404 244 394 c 0
 244 383 238 369 226 369 c 2
 217 369 l 2
 180 369 179 367 179 359 c 0
 179 346 258 162 272 132 c 0
 277 121 279 126 282 135 c 0
 305 188 343 283 367 333 c 0
 383 366 325 369 314 369 c 0
 306 369 301 370 298 378 c 0
 295 385 294 399 297 408 c 0
 299 416 306 419 312 419 c 0
 357 418 432 418 486 419 c 0
 499 419 504 405 504 394 c 0
 503 384 497 371 489 370 c 0
EndSplineSet
Validated: 33
EndChar
StartChar: w
Encoding: 119 119 108
Width: 769
Flags: W
HStem: 367 50<274 277 568 587>
LayerCount: 2
Fore
SplineSet
546 137 m 0
 552 151 566 184 582 223 c 0
 603 272 623 322 625 334 c 0
 631 364 610 366 587 367 c 0
 579 367 571 367 564 367 c 0
 552 371 546 417 568 417 c 0
 610 416 679 416 737 417 c 0
 767 421 762 369 744 367 c 0
 730 366 711 365 701 352 c 0
 697 346 690 330 682 311 c 0
 638 208 595 104 553 1 c 0
 550 -8 544 -8 535 -9 c 0
 529 -10 518 -10 510 -8 c 0
 499 -7 493 -5 488 6 c 2
 393 232 l 2
 389 240 386 242 383 235 c 0
 347 161 316 79 283 4 c 0
 280 -4 278 -9 267 -11 c 0
 261 -13 241 -12 236 -11 c 0
 224 -8 222 -2 218 7 c 2
 98 293 l 2
 68 363 64 364 21 367 c 0
 6 368 5 398 12 409 c 0
 18 418 23 417 31 416 c 0
 93 416 151 414 214 417 c 0
 226 417 230 413 234 401 c 0
 237 390 237 369 220 368 c 0
 183 367 182 361 182 356 c 0
 182 340 248 185 269 134 c 0
 273 124 276 126 280 134 c 2
 355 308 l 1
 348 322 339 341 328 352 c 0
 316 363 308 366 292 366 c 0
 286 367 286 367 279 367 c 0
 269 367 262 381 262 391 c 0
 261 402 266 417 277 417 c 0
 322 416 419 411 472 416 c 2
 478 417 l 2
 510 420 506 376 493 367 c 1
 453 366 448 361 448 353 c 0
 448 346 450 338 462 310 c 2
 537 136 l 2
 540 127 544 132 546 137 c 0
EndSplineSet
Validated: 33
EndChar
StartChar: x
Encoding: 120 120 109
Width: 536
Flags: W
HStem: -3 21G<294 303> -2 48<20.5 27 20.5 28> 369 48<311 311>
LayerCount: 2
Fore
SplineSet
503 -2 m 0x60
 453 -1 360 -1 303 -3 c 0
 285 -3 283 10 283 21 c 0
 283 36 288 45 301 45 c 2
 309 45 l 2
 328 45 333 44 333 50 c 0
 333 57 314 76 310 82 c 2
 256 154 l 2
 253 158 250 163 247 160 c 0
 235 146 166 75 166 62 c 0
 166 53 170 48 207 45 c 2
 215 45 l 2
 226 44 232 30 232 20 c 0
 232 4 226 -4 214 -3 c 0xa0
 163 0 75 -1 28 -2 c 0
 11 -2 11 7 9 21 c 0
 9 33 14 46 27 46 c 0
 70 47 82 53 134 112 c 2
 209 196 l 2
 212 200 212 204 208 209 c 2
 138 301 l 2
 92 361 84 367 32 369 c 0
 19 373 14 418 39 417 c 0
 91 414 182 416 228 417 c 2
 232 417 l 2
 263 418 252 370 238 370 c 2
 229 370 l 2
 217 370 202 371 209 359 c 0
 223 335 266 281 276 271 c 0
 279 267 284 274 288 278 c 0
 303 293 345 336 345 357 c 0
 345 364 343 368 311 369 c 0
 302 371 300 367 294 380 c 0
 291 388 292 398 292 403 c 0
 295 419 307 418 312 417 c 0
 386 416 456 415 496 417 c 0
 505 418 513 416 518 407 c 0
 524 394 524 369 500 369 c 0
 444 371 428 355 392 315 c 2
 354 275 l 1
 317 234 l 2
 315 231 315 229 316 228 c 0
 362 171 378 148 390 134 c 2
 425 89 l 2
 451 57 467 49 508 47 c 0
 521 45 523 35 523 19 c 0
 523 8 524 -3 503 -2 c 0x60
EndSplineSet
Validated: 33
EndChar
StartChar: y
Encoding: 121 121 110
Width: 491
Flags: W
HStem: -264 21G<113 137.5> 369 50
LayerCount: 2
Fore
SplineSet
278 136 m 2
 327 269 l 2
 334 287 350 326 350 345 c 0
 350 362 347 369 301 369 c 1
 291 375 280 414 304 418 c 0
 308 419 311 418 314 418 c 0
 372 418 409 419 461 419 c 0
 486 419 489 393 482 378 c 0
 479 371 473 370 469 369 c 0
 437 367 421 356 382 250 c 2
 263 -74 l 2
 246 -120 233 -152 222 -178 c 0
 210 -204 199 -222 185 -240 c 0
 172 -256 147 -264 128 -264 c 0
 98 -264 71 -236 71 -207 c 0
 71 -177 98 -165 128 -156 c 0
 201 -137 207 -67 219 -5 c 1
 99 284 l 2
 65 366 63 366 22 370 c 0
 6 373 -3 420 31 419 c 0
 33 419 41 419 44 419 c 0
 93 419 180 419 208 419 c 0
 244 420 234 373 217 369 c 0
 210 369 196 369 187 366 c 0
 169 361 184 336 188 326 c 0
 219 259 240 196 267 128 c 0
 270 121 274 125 278 136 c 2
EndSplineSet
Validated: 33
EndChar
StartChar: z
Encoding: 122 122 111
Width: 410
Flags: W
LayerCount: 2
Fore
SplineSet
241 360 m 0
 198 360 165 357 121 357 c 0
 100 357 91 354 70 270 c 0
 64 256 28 258 31 278 c 0
 31 279 31 281 32 282 c 0
 40 331 54 410 61 438 c 0
 64 444 99 444 99 436 c 0
 99 418 102 415 135 416 c 0
 192 417 291 418 347 418 c 0
 358 417 372 421 382 411 c 1
 384 401 385 390 379 383 c 0
 297 275 190 120 154 67 c 0
 150 62 154 56 161 56 c 0
 197 56 237 55 295 57 c 0
 326 57 332 67 355 120 c 1
 359 125 l 2
 366 140 401 137 395 119 c 2
 355 9 l 2
 352 3 345 -1 340 -2 c 0
 274 -1 105 -2 21 -2 c 0
 16 -2 13 12 15 23 c 0
 16 30 21 31 24 37 c 2
 250 350 l 2
 255 357 250 360 241 360 c 0
EndSplineSet
EndChar
StartChar: braceleft
Encoding: 123 123 112
Width: 501
Flags: W
HStem: 691 20G<384 387>
VStem: 188 102 210 99
LayerCount: 2
Fore
SplineSet
404 -239 m 0xc0
 397 -254 390 -250 383 -249 c 0
 268 -230 189 -145 189 -39 c 0
 189 -16 193 11 200 41 c 0
 206 72 211 101 211 114 c 0
 211 156 180 191 112 205 c 0
 104 208 101 216 100 222 c 0
 98 228 98 233 100 239 c 0
 101 248 108 254 114 256 c 0
 177 269 210 306 210 345 c 0xa0
 210 360 206 383 199 416 c 0
 191 448 188 477 188 500 c 0xc0
 188 606 269 694 384 711 c 0
 390 711 399 709 402 698 c 0
 405 687 404 681 404 670 c 0
 402 659 392 662 386 660 c 0
 321 646 289 608 289 557 c 0
 289 538 292 515 298 486 c 0
 305 450 309 420 309 398 c 0
 309 350 289 308 252 272 c 0
 233 253 218 242 196 231 c 0
 194 231 195 230 197 229 c 0
 268 191 309 134 309 63 c 0xa0
 309 45 305 9 299 -24 c 0
 293 -51 290 -76 290 -94 c 0
 290 -144 319 -180 388 -200 c 0
 394 -201 403 -207 405 -213 c 0
 408 -223 408 -229 404 -239 c 0xc0
EndSplineSet
Validated: 1
EndChar
StartChar: bar
Encoding: 124 124 113
Width: 534
Flags: W
HStem: -22 21G<244.5 256 256 285> 840 20G<244 256>
VStem: 231 75<363.5 422 422 825 825 830>
LayerCount: 2
Fore
SplineSet
305 10 m 0
 305 -9 307 -22 285 -22 c 0
 279 -21 263 -21 256 -22 c 0
 233 -22 231 -4 231 15 c 2
 231 825 l 2
 231 847 232 860 256 860 c 0
 264 858 276 856 284 858 c 0
 312 858 306 848 306 830 c 2
 306 422 l 2
 306 305 308 146 305 10 c 0
EndSplineSet
Validated: 33
EndChar
StartChar: braceright
Encoding: 125 125 114
Width: 501
Flags: W
LayerCount: 2
Fore
SplineSet
383 209 m 0
 322 195 289 157 289 115 c 0
 289 62 312 12 312 -41 c 0
 312 -143 237 -226 131 -247 c 0
 118 -249 104 -242 106 -231 c 0
 106 -228 107 -224 107 -220 c 0
 108 -215 111 -209 118 -208 c 0
 185 -193 220 -152 220 -99 c 0
 220 -45 199 7 199 61 c 0
 199 107 220 150 255 185 c 0
 274 205 288 216 311 226 c 0
 316 229 314 235 309 237 c 0
 239 275 199 332 199 400 c 0
 199 451 219 505 219 558 c 0
 219 669 99 652 106 692 c 0
 106 700 110 713 120 711 c 0
 233 693 311 608 311 504 c 0
 311 451 288 402 288 350 c 0
 288 306 319 270 381 254 c 0
 390 252 399 243 399 233 c 0
 399 221 398 212 383 209 c 0
EndSplineSet
EndChar
StartChar: asciitilde
Encoding: 126 126 115
Width: 567
Flags: W
HStem: 241 92<402.5 445> 326 89<128.5 162.5>
LayerCount: 2
Fore
SplineSet
404 241 m 0x80
 351 241 301 263 258 284 c 0
 226 299 180 326 145 326 c 0
 108 326 78 301 72 256 c 0
 68 225 18 238 19 262 c 0
 24 349 87 415 170 415 c 0x40
 222 415 268 394 309 373 c 0
 342 356 383 333 422 333 c 0
 507 333 480 422 519 419 c 2
 530 418 l 2
 540 417 554 410 552 397 c 0
 546 309 486 241 404 241 c 0x80
EndSplineSet
Validated: 33
EndChar
StartChar: exclamdown
Encoding: 161 161 171
Width: 272
Flags: W
HStem: -249 21G<102.5 124 124 153> 313 116<120 154>
VStem: 77 118<352.5 387> 97 80
LayerCount: 2
Fore
SplineSet
137 313 m 0xd0
 103 313 77 335 77 370 c 0
 77 404 103 429 137 429 c 0
 171 429 195 405 195 370 c 0xe0
 195 335 171 313 137 313 c 0xd0
153 -249 m 2
 124 -249 l 2
 81 -249 78 -228 80 -198 c 2
 114 253 l 1
 121 269 152 269 159 253 c 1
 195 -199 l 2
 198 -229 194 -249 153 -249 c 2
EndSplineSet
Validated: 33
EndChar
StartChar: cent
Encoding: 162 162 150
Width: 447
Flags: W
HStem: -22 74<263 267.5> -17 21G<187 188> 378 59<227.5 260.5> 416 20G<302 306> 547 20G<376 379.5>
VStem: 43 98<191.5 258.5>
LayerCount: 2
Fore
SplineSet
370 316 m 0x9c
 353 316 341 322 327 334 c 0
 325 336 325 332 324 329 c 2
 219 67 l 2
 213 51 259 52 267 52 c 0
 314 52 341 75 374 115 c 0
 388 131 397 123 410 115 c 0
 422 108 419 92 411 81 c 0
 365 13 304 -22 231 -22 c 0xac
 211 -22 201 -20 188 -17 c 0
 186 -17 183 -25 182 -27 c 0
 164 -75 150 -117 129 -163 c 0
 118 -186 117 -187 106 -184 c 0
 101 -183 95 -179 87 -178 c 0
 72 -175 75 -161 79 -151 c 2
 137 -5 l 2
 139 0 139 2 136 4 c 0
 79 41 43 113 43 190 c 0
 43 327 153 437 289 437 c 0x6c
 295 437 300 436 304 436 c 0
 308 436 311 437 313 443 c 2
 355 553 l 2
 362 567 364 568 376 567 c 0
 383 567 401 559 404 556 c 0
 409 551 409 546 405 536 c 2
 362 428 l 2
 361 426 362 425 363 424 c 0
 393 412 418 392 418 362 c 0
 418 336 398 316 370 316 c 0x9c
256 378 m 0
 199 378 141 308 141 212 c 0
 141 171 152 133 173 104 c 0
 176 98 178 98 179 103 c 2
 283 364 l 2
 284 370 282 373 280 374 c 0
 273 377 265 378 256 378 c 0
EndSplineSet
Validated: 33
EndChar
StartChar: sterling
Encoding: 163 163 151
Width: 796
Flags: W
LayerCount: 2
Fore
SplineSet
731 571 m 0
 710 571 696 583 684 595 c 0
 679 599 675 603 671 608 c 0
 653 625 635 641 604 641 c 0
 580 641 552 624 529 594 c 0
 505 561 483 523 449 438 c 0
 406 330 363 222 315 117 c 0
 312 110 309 106 319 106 c 0
 367 106 412 107 460 107 c 0
 483 107 474 88 471 75 c 0
 469 66 463 56 443 57 c 2
 287 59 l 1
 268 20 250 -8 230 -36 c 0
 227 -41 228 -45 235 -43 c 0
 257 -36 280 -33 303 -33 c 0
 371 -33 421 -66 465 -99 c 0
 486 -114 507 -130 530 -143 c 0
 551 -155 572 -163 595 -163 c 0
 641 -163 675 -132 675 -97 c 0
 675 -68 647 -48 647 -19 c 0
 647 8 667 28 693 28 c 0
 729 28 750 -10 750 -52 c 0
 750 -148 651 -235 548 -235 c 0
 512 -235 472 -224 440 -203 c 0
 386 -168 319 -90 253 -90 c 0
 230 -90 212 -95 181 -110 c 2
 179 -111 l 1
 144 -181 95 -234 54 -234 c 0
 34 -234 15 -219 15 -198 c 0
 15 -157 76 -103 138 -77 c 1
 161 -36 170 -17 190 36 c 0
 193 45 201 59 191 59 c 2
 77 59 l 2
 75 59 72 58 69 58 c 0
 65 58 62 59 60 60 c 0
 49 64 54 80 56 88 c 0
 58 101 65 106 80 106 c 2
 216 106 l 1
 265 238 305 374 376 497 c 0
 432 592 520 699 643 699 c 0
 709 699 776 665 776 614 c 0
 776 588 755 571 731 571 c 0
EndSplineSet
EndChar
StartChar: yen
Encoding: 165 165 164
Width: 523
Flags: W
HStem: -4 56<142 150 150 174 370 379> 340 70<16.5 22 22 24 15.5 173> 478 69<13 92 22 92 92 96 22 121 252.5 253 253 315 430 433 433 507> 649 56
VStem: 205 115<133 291 291 291>
LayerCount: 2
Fore
SplineSet
246 661 m 2
 246 662 l 2
 245 652 239 651 232 649 c 0
 224 649 184 651 184 635 c 0
 184 634 186 628 192 612 c 2
 218 550 l 2
 219 546 228 547 234 547 c 2
 344 547 l 2
 348 547 352 549 353 552 c 0
 360 569 384 620 384 635 c 0
 384 643 380 647 357 649 c 0
 345 651 328 649 328 666 c 2
 328 682 l 2
 328 692 332 701 345 701 c 0
 406 701 451 697 512 702 c 0
 525 703 533 695 533 687 c 2
 533 669 l 2
 533 656 527 649 514 649 c 0
 485 649 471 643 445 583 c 0
 441 575 432 556 430 547 c 0
 430 546 431 547 433 547 c 2
 507 547 l 2
 525 547 523 533 523 523 c 2
 523 503 l 2
 523 488 524 478 507 478 c 2
 406 478 l 2
 401 478 400 476 399 474 c 2
 372 414 l 2
 370 412 372 408 375 408 c 2
 510 410 l 2
 520 407 523 403 523 387 c 2
 523 363 l 2
 523 345 517 339 502 339 c 2
 357 340 l 2
 338 340 336 337 334 331 c 2
 320 301 l 1
 320 133 l 2
 320 53 330 52 370 52 c 2
 381 52 l 2
 395 52 406 44 406 30 c 2
 406 16 l 2
 406 -5 394 -5 379 -4 c 0
 307 0 192 -1 141 -4 c 0
 130 -5 118 2 119 17 c 0
 121 32 117 52 142 52 c 2
 150 52 l 2
 198 52 205 53 205 133 c 2
 205 291 l 1
 184 336 l 2
 181 342 178 340 173 340 c 2
 22 340 l 2
 11 340 4 344 4 366 c 2
 4 389 l 2
 4 407 7 410 24 410 c 0
 66 409 91 407 132 408 c 0
 134 408 152 408 153 408 c 2
 127 470 l 2
 125 476 124 478 121 478 c 2
 19 478 l 2
 7 478 4 483 4 501 c 2
 4 524 l 2
 4 542 8 547 22 547 c 2
 92 547 l 2
 100 547 84 580 82 584 c 0
 71 606 55 629 51 633 c 0
 27 660 -1 638 -6 666 c 0
 -9 672 -8 680 -7 686 c 0
 -9 701 6 704 13 704 c 0
 65 702 169 702 224 705 c 0
 239 706 245 697 245 687 c 0
 244 679 247 670 246 661 c 2
282 393 m 2
 283 388 286 390 287 393 c 2
 319 474 l 2
 319 475 316 478 315 478 c 2
 253 478 l 2
 252 478 250 476 250 475 c 2
 282 393 l 2
EndSplineSet
Validated: 33
EndChar
StartChar: brokenbar
Encoding: 166 166 19
Width: 534
Flags: W
LayerCount: 2
Fore
SplineSet
236 473 m 1
 236 860 l 1
 301 860 l 1
 301 473 l 1
 236 473 l 1
236 -22 m 1
 236 364 l 1
 301 364 l 1
 301 -22 l 1
 236 -22 l 1
EndSplineSet
EndChar
StartChar: section
Encoding: 167 167 152
Width: 491
Flags: W
HStem: -237 61<224 254.5 224 267> 563 136<224 396> 636 63<239.5 273.5>
VStem: 48 136<394.5 586.5> 311 135<-127 38> 375 71<1 38 -45.5 57.5>
LayerCount: 2
Fore
SplineSet
201 -237 m 0xb8
 139 -237 62 -207 62 -156 c 0
 62 -132 82 -103 111 -103 c 0xd4
 138 -103 152 -124 167 -142 c 0
 188 -165 214 -176 234 -176 c 0
 275 -176 311 -142 311 -112 c 0
 311 -87 299 -58 256 2 c 0
 203 76 152 150 107 230 c 0
 68 298 48 363 48 426 c 0
 48 573 157 699 291 699 c 0
 323 699 435 678 435 616 c 0
 435 588 410 563 382 563 c 0xd8
 359 563 344 578 332 589 c 0
 327 593 323 598 319 602 c 0
 302 621 286 636 261 636 c 0
 218 636 184 605 184 568 c 0
 184 527 252 438 277 403 c 0
 384 251 415 197 435 122 c 0
 443 91 446 52 446 24 c 0
 446 -115 333 -237 201 -237 c 0xb8
364 -55 m 1
 372 -34 375 -12 375 14 c 0
 375 101 348 164 302 234 c 0
 264 293 224 350 187 409 c 0
 181 418 129 501 130 515 c 1
 103 440 122 356 157 288 c 0
 207 189 279 103 334 5 c 0
 349 -22 358 -39 364 -55 c 1
EndSplineSet
Validated: 33
EndChar
StartChar: dieresis
Encoding: 168 168 160
Width: 348
Flags: W
HStem: 481 120<70.5 107.5 241.5 279>
VStem: 24 129<524 557.5> 196 128<524.5 557.5>
LayerCount: 2
Fore
SplineSet
260 481 m 0
 223 481 196 508 196 541 c 0
 196 574 223 601 260 601 c 0
 298 601 324 574 324 541 c 0
 324 508 298 481 260 481 c 0
89 481 m 0
 52 481 24 507 24 541 c 0
 24 574 52 601 89 601 c 0
 126 601 153 574 153 541 c 0
 153 507 126 481 89 481 c 0
EndSplineSet
Validated: 1
EndChar
StartChar: copyright
Encoding: 169 169 157
Width: 796
Flags: W
HStem: -13 61<317 483 317 500> 129 59<368 434.5> 528 51<366 428 342 435> 648 61<316.5 483.5>
VStem: 35 64<265.5 431 265.5 447.5> 164 108<304.5 415> 701 64<265.5 431>
LayerCount: 2
Fore
SplineSet
400 -13 m 0
 200 -13 35 149 35 348 c 0
 35 547 200 709 400 709 c 0
 600 709 765 548 765 348 c 0
 765 149 600 -13 400 -13 c 0
400 648 m 0
 233 648 99 514 99 348 c 0
 99 183 234 48 400 48 c 0
 566 48 701 183 701 348 c 0
 701 514 567 648 400 648 c 0
395 129 m 0
 265 129 164 224 164 349 c 0
 164 481 272 579 412 579 c 0
 444 579 455 577 502 561 c 0
 510 558 514 558 515 558 c 0
 519 558 519 561 526 579 c 1
 552 579 l 2
 562 579 570 573 572 560 c 0
 572 551 579 480 580 443 c 0
 581 440 580 437 580 434 c 0
 579 426 578 419 567 419 c 2
 548 419 l 2
 539 419 534 423 531 430 c 0
 529 434 529 439 527 443 c 0
 505 500 464 528 406 528 c 0
 326 528 272 468 272 363 c 0
 272 246 325 188 411 188 c 0
 474 188 501 209 543 255 c 0
 555 269 568 258 579 252 c 0
 592 245 589 232 583 224 c 0
 534 160 474 129 395 129 c 0
EndSplineSet
Validated: 33
EndChar
StartChar: ordfeminine
Encoding: 170 170 166
Width: 272
Flags: W
HStem: 402 50<71 119.5> 654 20G<121.5 165>
VStem: 150 76<478 502 502 509 509 509.5 552 579>
LayerCount: 2
Fore
SplineSet
154 424 m 0
 132 408 116 402 91 402 c 0
 51 402 18 426 18 466 c 0
 18 503 50 523 94 533 c 0
 115 538 131 543 150 552 c 1
 150 590 l 2
 150 617 139 629 119 629 c 0
 113 629 107 626 101 621 c 0
 97 617 94 612 96 606 c 0
 97 603 98 601 100 594 c 1
 43 569 l 2
 39 567 30 566 27 575 c 0
 23 586 22 589 22 593 c 0
 22 613 44 634 67 650 c 0
 91 667 110 674 133 674 c 0
 197 674 226 645 226 579 c 2
 226 502 l 1
 226 476 l 2
 226 464 224 461 228 461 c 0
 233 461 235 462 254 474 c 0
 268 483 275 458 276 451 c 0
 278 446 275 442 271 438 c 0
 243 417 216 402 198 402 c 0
 181 402 168 409 161 421 c 0
 159 424 157 426 154 424 c 0
148 509 m 1
 143 507 142 507 134 504 c 0
 93 488 91 482 91 471 c 0
 91 460 100 452 113 452 c 0
 126 452 150 471 150 478 c 2
 150 509 l 2
 150 510 147 509 148 509 c 1
EndSplineSet
Validated: 33
EndChar
StartChar: guillemotleft
Encoding: 171 171 174
Width: 371
Flags: W
HStem: 32 21G<186.5 191 191 213> 409 20G<186 212 198.5 219.5>
LayerCount: 2
Fore
SplineSet
271 232 m 1
 331 70 l 2
 334 61 334 48 320 48 c 0
 295 48 299 48 295 48 c 0
 288 48 286 54 283 59 c 2
 172 221 l 2
 165 231 171 242 178 252 c 2
 282 400 l 1
 286 407 l 2
 290 413 292 412 299 412 c 2
 322 412 l 2
 336 412 336 404 332 394 c 2
 271 232 l 1
131 232 m 1
 222 54 l 2
 229 40 226 32 213 32 c 2
 191 32 l 2
 182 32 179 35 172 44 c 2
 33 218 l 2
 24 230 32 245 37 251 c 2
 174 420 l 1
 178 425 l 2
 180 428 182 429 186 429 c 0
 190 429 185 429 212 429 c 0
 227 429 230 423 226 415 c 2
 131 232 l 1
EndSplineSet
Validated: 33
EndChar
StartChar: logicalnot
Encoding: 172 172 172
Width: 698
Flags: W
HStem: 182 21G<549 549 549 635> 414 83<66 549 66 635>
VStem: 549 86<182 414 414 414>
LayerCount: 2
Fore
SplineSet
549 182 m 1
 549 414 l 1
 66 414 l 1
 66 497 l 1
 635 497 l 1
 635 182 l 1
 549 182 l 1
EndSplineSet
Validated: 1
EndChar
StartChar: registered
Encoding: 174 174 156
Width: 796
Flags: W
HStem: -20 62<311 481 311 498> 518 52<363 391.5> 654 63<311 481>
VStem: 26 63<263.5 432.5 263.5 450> 201 143 245 99<226 309 309 319 382.5 387 387 474 474 497> 448 107<423 464.5> 704 62<263.5 432.5>
LayerCount: 2
Fore
SplineSet
396 -20 m 0xfb
 191 -20 26 145 26 348 c 0
 26 552 191 717 396 717 c 0
 600 717 766 552 766 348 c 0
 766 145 600 -20 396 -20 c 0xfb
396 654 m 0
 226 654 89 517 89 348 c 0
 89 179 226 42 396 42 c 0
 566 42 704 179 704 348 c 0
 704 517 566 654 396 654 c 0
580 129 m 0
 556 130 534 130 515 129 c 0
 505 129 493 133 488 140 c 2
 355 321 l 1
 350 321 l 2
 349 321 344 321 344 319 c 0
 344 316 344 312 344 309 c 2
 344 225 l 1
 344 190 l 2
 344 175 367 181 384 177 c 0
 393 175 400 177 400 165 c 2
 400 142 l 2
 400 130 389 129 380 129 c 0
 332 132 255 132 215 129 c 0
 212 129 195 128 195 145 c 2
 195 160 l 2
 195 174 205 177 212 177 c 0
 239 178 245 181 245 226 c 2
 245 474 l 2xf7
 245 520 243 522 220 523 c 0
 212 523 201 527 201 541 c 0
 201 545 201 550 201 554 c 0
 201 568 213 570 225 570 c 0
 266 567 354 569 399 570 c 0
 487 570 555 524 555 449 c 0
 555 395 524 359 468 338 c 0
 458 334 457 334 464 325 c 2
 547 212 l 2
 567 184 575 178 592 177 c 0
 601 176 607 171 607 165 c 2
 607 151 l 2
 607 132 588 129 580 129 c 0
368 518 m 0
 358 518 353 518 344 515 c 1
 344 387 l 2
 344 378 345 372 351 372 c 0
 418 374 448 403 448 443 c 0
 448 486 415 518 368 518 c 0
EndSplineSet
Validated: 33
EndChar
StartChar: macron
Encoding: 175 175 221
Width: 349
Flags: W
HStem: 500 75<19.5 44 35 44 44 313>
LayerCount: 2
Fore
SplineSet
313 500 m 2
 31 500 l 2
 8 500 7 513 7 523 c 2
 7 558 l 2
 7 570 22 575 35 575 c 2
 44 575 l 1
 316 575 l 2
 331 575 341 573 341 554 c 2
 341 520 l 2
 341 503 331 500 313 500 c 2
EndSplineSet
Validated: 1
EndChar
StartChar: degree
Encoding: 176 176 149
Width: 415
Flags: W
LayerCount: 2
Fore
SplineSet
208 352 m 0
 119 352 48 425 48 514 c 0
 48 604 119 677 208 677 c 0
 297 677 369 604 369 514 c 0
 369 425 297 352 208 352 c 0
208 613 m 0
 155 613 111 569 111 514 c 0
 111 460 155 416 208 416 c 0
 262 416 306 460 306 514 c 0
 306 569 262 613 208 613 c 0
EndSplineSet
EndChar
StartChar: plusminus
Encoding: 177 177 163
Width: 698
Flags: W
HStem: -14 87<97 104> -13 21G<604 615.5> 389 85<87 294 103 294 294 295 410 415 415 601> 696 20G<330 366 366 375.5>
VStem: 307 86<179 375 375 377 490 671 671 673.5>
LayerCount: 2
Fore
SplineSet
601 389 m 2x78
 415 389 l 2
 405 389 393 383 393 377 c 2
 393 179 l 2
 393 154 390 149 366 149 c 0
 353 149 344 147 335 149 c 0
 310 150 307 160 307 179 c 2
 307 375 l 2
 307 384 301 389 295 389 c 2
 97 389 l 2
 77 389 66 388 66 413 c 2
 66 449 l 2
 66 472 79 474 103 474 c 2
 294 474 l 2
 300 474 307 480 307 490 c 2
 307 671 l 2
 307 676 306 679 306 683 c 0
 306 698 311 716 330 716 c 2
 366 716 l 2
 385 716 393 708 393 684 c 2
 393 487 l 2
 394 479 404 474 410 474 c 2
 604 474 l 2
 627 474 635 466 635 447 c 2
 635 417 l 2
 635 390 619 389 601 389 c 2x78
604 -13 m 0
 444 -12 226 -12 104 -14 c 0
 77 -14 67 -14 67 16 c 2
 67 42 l 2
 67 58 69 75 97 73 c 0
 213 74 489 73 605 73 c 0xb8
 627 72 635 64 635 43 c 2
 635 18 l 2
 635 -11 627 -13 604 -13 c 0
EndSplineSet
Validated: 33
EndChar
StartChar: twosuperior
Encoding: 178 178 18
Width: 300
Flags: W
LayerCount: 2
Fore
SplineSet
118 364 m 2
 192 364 l 2
 199 364 219 363 225 367 c 0
 231 373 232 386 234 394 c 0
 235 401 241 403 247 403 c 0
 251 403 261 403 268 403 c 0
 280 403 280 397 280 391 c 0
 276 361 276 346 270 318 c 0
 267 300 253 301 247 301 c 2
 24 301 l 2
 12 301 9 302 9 314 c 2
 9 331 l 1
 26 351 49 374 90 409 c 0
 125 440 186 486 186 537 c 0
 186 564 163 586 131 586 c 0
 100 586 72 565 59 525 c 0
 55 517 15 518 15 529 c 0
 22 602 76 646 146 646 c 0
 212 646 268 605 268 544 c 0
 268 480 217 448 171 416 c 0
 151 403 133 389 110 369 c 0
 105 365 110 364 118 364 c 2
EndSplineSet
EndChar
StartChar: threesuperior
Encoding: 179 179 17
Width: 300
Flags: W
HStem: 294 54<120.5 149 120.5 156.5> 294 92<39.5 156.5> 581 65<124 143>
VStem: 192 89<395 428>
LayerCount: 2
Fore
SplineSet
115 294 m 0xb0
 74 294 9 309 9 348 c 0xb0
 9 371 29 386 50 386 c 0x70
 85 386 106 348 135 348 c 0
 163 348 192 376 192 414 c 0
 192 442 173 460 156 460 c 0
 147 460 140 459 128 449 c 0
 119 444 99 440 87 458 c 0
 81 468 86 485 95 491 c 0
 145 522 164 547 164 558 c 0
 164 569 153 581 133 581 c 0
 113 581 91 569 74 538 c 1
 50 507 19 545 23 559 c 0
 49 614 96 646 152 646 c 0
 200 646 247 620 247 573 c 0
 247 551 237 532 219 516 c 1
 257 501 281 469 281 427 c 0
 281 352 198 294 115 294 c 0xb0
EndSplineSet
Validated: 33
EndChar
StartChar: acute
Encoding: 180 180 159
Width: 349
Flags: W
HStem: 641 20G<187 269 269 269>
LayerCount: 2
Fore
SplineSet
283 626 m 0
 281 623 155 478 155 478 c 2
 146 467 105 470 113 495 c 2
 160 643 l 2
 165 654 176 661 187 661 c 2
 269 661 l 2
 279 662 296 658 293 642 c 0
 293 639 287 630 283 626 c 0
EndSplineSet
Validated: 33
EndChar
StartChar: mu
Encoding: 181 181 165
Width: 524
Flags: W
HStem: -232 21G<62 100> -26 93 455 20G<92 136 136 151 349 349>
VStem: 22 122<-178.5 -152.5 -178.5 -141> 53 113<125 162 162 194 194 423> 320 114
LayerCount: 2
Fore
SplineSet
414 -26 m 0xec
 368 -26 340 -1 327 44 c 0
 326 46 325 48 324 46 c 0
 294 15 273 0 237 -15 c 0
 206 -27 162 -33 129 -13 c 0
 123 -10 120 -5 121 -17 c 0
 123 -38 127 -61 136 -106 c 0
 141 -127 144 -145 144 -160 c 0
 144 -197 119 -232 81 -232 c 0
 43 -232 22 -198 22 -161 c 0xf4
 22 -121 35 -83 45 -44 c 0
 49 -28 53 27 53 66 c 0
 55 158 55 348 53 430 c 0
 52 465 60 475 92 475 c 2
 136 475 l 2
 166 475 165 447 166 423 c 0
 168 366 166 251 166 194 c 2
 166 162 l 2
 166 88 188 67 221 67 c 0
 251 67 284 84 321 124 c 1
 323 202 323 348 320 427 c 0
 319 459 314 476 349 475 c 2
 405 474 l 2
 440 473 434 456 434 431 c 2
 434 134 l 2
 434 124 434 106 434 97 c 0
 434 59 447 59 453 59 c 0
 457 59 468 64 476 107 c 0
 478 117 484 121 491 121 c 2
 516 121 l 1
 550 116 524 -26 414 -26 c 0xec
EndSplineSet
Validated: 33
EndChar
StartChar: paragraph
Encoding: 182 182 154
Width: 494
Flags: W
HStem: -247 21G<237 248 248 270> -246 21G<373.5 378 378 395> 590 70<226 303 226 342>
VStem: 223 72 351 71<-233.5 -224> 351 137
LayerCount: 2
Fore
SplineSet
461 592 m 2xb4
 435 592 l 2
 427 592 422 582 422 575 c 2
 422 -223 l 2
 422 -244 416 -246 395 -246 c 2
 378 -246 l 2x78
 369 -246 351 -246 351 -224 c 2
 352 575 l 2
 352 585 351 590 342 590 c 2
 303 590 l 2
 300 590 295 584 295 577 c 2
 296 -227 l 2
 296 -246 282 -247 270 -247 c 2
 248 -247 l 2
 226 -247 223 -238 223 -223 c 2
 223 234 l 2
 223 238 222 248 215 248 c 0
 108 250 47 285 12 352 c 0
 -5 383 -12 417 -12 453 c 0
 -12 584 80 659 226 660 c 0
 287 660 407 658 459 661 c 0
 479 662 488 658 488 637 c 2
 488 614 l 2
 488 590 472 592 461 592 c 2xb4
EndSplineSet
Validated: 33
EndChar
StartChar: periodcentered
Encoding: 183 183 199
Width: 257
Flags: W
LayerCount: 2
Fore
SplineSet
129 287 m 0
 100 287 74 314 74 343 c 0
 74 373 100 399 129 399 c 0
 159 399 184 373 184 343 c 0
 184 314 159 287 129 287 c 0
EndSplineSet
EndChar
StartChar: cedilla
Encoding: 184 184 225
Width: 349
Flags: W
HStem: -224 47<155 164.5 148 191> -10 20G<180 229 229 229>
VStem: 190 72<-152.5 -135>
LayerCount: 2
Fore
SplineSet
198 -46 m 1
 235 -54 262 -88 262 -128 c 0
 262 -181 218 -224 164 -224 c 0
 146 -224 92 -220 112 -189 c 0
 113 -187 115 -184 116 -182 c 0
 124 -168 142 -177 154 -177 c 0
 175 -177 190 -161 190 -144 c 0
 190 -126 183 -120 174 -120 c 0
 165 -120 155 -125 120 -142 c 0
 106 -148 86 -146 99 -123 c 2
 180 10 l 1
 229 10 l 1
 198 -46 l 1
EndSplineSet
Validated: 33
EndChar
StartChar: onesuperior
Encoding: 185 185 15
Width: 300
Flags: W
HStem: 299 21G<78 84 84 236>
VStem: 119 82<359 360 360 545 545 545>
LayerCount: 2
Fore
SplineSet
236 299 m 0
 187 301 132 301 84 299 c 0
 72 299 66 315 66 324 c 0
 66 334 72 348 82 349 c 2
 110 352 l 2
 118 353 119 353 119 359 c 2
 119 545 l 1
 104 537 87 530 70 524 c 1
 48 523 34 548 47 563 c 1
 86 587 125 617 143 638 c 0
 147 644 201 640 201 629 c 2
 201 360 l 2
 201 357 201 356 201 354 c 0
 201 351 201 352 205 352 c 0
 212 352 223 350 230 351 c 0
 241 349 251 350 252 337 c 0
 253 334 253 330 253 324 c 0
 253 313 246 299 236 299 c 0
EndSplineSet
Validated: 33
EndChar
StartChar: ordmasculine
Encoding: 186 186 167
Width: 360
Flags: W
HStem: 402 45<168 208 168 224.5> 630 44<153 192.5>
VStem: 24 81<523.5 577.5> 256 80<500.5 555>
LayerCount: 2
Fore
SplineSet
182 402 m 0
 94 402 24 459 24 538 c 0
 24 617 93 674 180 674 c 0
 267 674 336 617 336 538 c 0
 336 460 267 402 182 402 c 0
171 630 m 0
 135 630 105 601 105 556 c 0
 105 491 146 447 190 447 c 0
 226 447 256 477 256 524 c 0
 256 586 214 630 171 630 c 0
EndSplineSet
Validated: 1
EndChar
StartChar: guillemotright
Encoding: 187 187 175
Width: 371
Flags: W
LayerCount: 2
Fore
SplineSet
247 231 m 1
 154 415 l 2
 150 424 150 430 159 430 c 2
 181 430 l 2
 187 430 189 429 196 420 c 2
 335 241 l 2
 341 233 336 220 330 214 c 2
 194 40 l 2
 187 32 189 33 182 33 c 2
 159 33 l 2
 151 33 148 35 150 40 c 2
 247 231 l 1
73 51 m 2
 50 51 l 2
 41 51 42 56 44 63 c 2
 106 230 l 1
 45 398 l 2
 43 404 42 413 51 413 c 2
 73 413 l 2
 80 413 78 415 85 405 c 2
 195 239 l 2
 201 231 196 223 190 213 c 2
 86 60 l 2
 78 49 80 51 73 51 c 2
EndSplineSet
EndChar
StartChar: onequarter
Encoding: 188 188 14
Width: 715
Flags: W
HStem: -34 21G<97 108 108 140> -18 21G<568.5 579.5 574 597> 640 20G<575 578 578 619 619 625>
VStem: 122 86<350 351 351 542 542 542> 530 86<0 74 69 74 155 155>
LayerCount: 2
Fore
SplineSet
162 -22 m 2xb8
 158 -28 150 -34 140 -34 c 2
 108 -34 l 2
 86 -34 87 -8 93 1 c 2
 558 649 l 1
 560 654 l 2
 566 660 571 660 575 660 c 2
 578 660 l 1
 619 660 l 2
 631 660 638 643 628 629 c 2
 162 -22 l 2xb8
245 288 m 0
 193 290 136 290 86 288 c 0
 73 288 67 303 67 315 c 0
 68 324 74 339 84 340 c 2
 115 342 l 2
 122 342 122 343 122 350 c 2
 122 542 l 1
 105 534 88 528 71 520 c 1
 48 520 34 544 47 561 c 1
 88 586 129 617 148 639 c 0
 152 644 208 641 208 629 c 2
 208 351 l 2
 208 344 208 343 213 343 c 0
 223 342 234 344 244 342 c 0
 255 339 262 331 262 314 c 0
 262 301 255 288 245 288 c 0
547 -17 m 0
 538 -16 533 -10 530 0 c 2
 530 69 l 2
 529 80 527 82 525 82 c 2
 408 82 l 2
 389 82 384 91 384 103 c 1
 384 103 l 1
 384 121 l 1
 562 346 l 1
 576 350 584 352 598 349 c 0
 606 348 618 341 616 327 c 2
 616 153 l 2
 616 150 624 149 624 149 c 1
 655 149 l 2
 673 149 679 140 679 126 c 0
 679 118 680 101 676 93 c 0
 673 86 665 82 660 82 c 2
 622 82 l 2
 619 81 616 78 616 70 c 2
 617 5 l 2
 617 -10 616 -18 597 -18 c 0
 596 -18 585 -18 574 -18 c 0x78
 563 -18 551 -18 547 -17 c 0
526 211 m 2
 480 149 l 1
 523 149 l 2
 525 149 529 149 530 155 c 2
 531 209 l 2
 531 216 529 215 526 211 c 2
EndSplineSet
Validated: 37
EndChar
StartChar: onehalf
Encoding: 189 189 13
Width: 715
Flags: W
HStem: -6 72<528 603 603 606 528 658> 274 70<527 556> 294 50
VStem: 119 82<355 356 356 544 544 544> 592 92<207 242.5>
LayerCount: 2
Fore
SplineSet
528 66 m 1xd8
 603 66 l 2
 609 66 628 65 633 67 c 0
 643 80 633 104 658 104 c 0
 662 104 671 104 679 104 c 0
 693 104 696 98 696 87 c 0
 692 57 691 42 686 15 c 0
 682 -2 672 -6 658 -6 c 2
 435 -6 l 2
 421 -6 415 -4 415 11 c 2
 415 29 l 1
 433 51 456 74 497 109 c 0
 532 138 592 183 592 231 c 0
 592 254 571 274 541 274 c 0
 513 274 487 255 474 218 c 0
 470 209 421 203 421 224 c 0
 428 298 485 344 557 344 c 0
 624 344 684 302 684 238 c 0
 684 172 632 140 585 108 c 0
 566 96 549 83 528 66 c 1xd8
162 -22 m 2
 156 -30 151 -40 139 -38 c 0
 137 -37 135 -37 134 -37 c 2
 106 -31 l 2
 87 -27 84 -13 90 -4 c 2
 558 650 l 2
 568 664 571 658 582 662 c 1
 591 660 648 657 628 629 c 2
 162 -22 l 2
236 294 m 0xb8
 187 296 132 296 84 294 c 0
 72 294 66 310 66 320 c 0
 66 329 72 344 82 345 c 2
 110 348 l 2
 118 349 119 349 119 355 c 2
 119 544 l 1
 104 535 87 529 70 523 c 1
 48 521 34 547 47 563 c 1
 86 586 125 617 143 639 c 0
 147 644 201 640 201 629 c 2
 201 356 l 2
 201 354 201 352 201 350 c 0
 201 347 201 348 205 348 c 0
 212 348 223 346 230 347 c 0
 241 345 251 346 252 333 c 0
 253 330 253 326 253 320 c 0
 253 309 246 294 236 294 c 0xb8
EndSplineSet
Validated: 33
EndChar
StartChar: threequarters
Encoding: 190 190 16
Width: 715
Flags: W
HStem: -18 21G<563.5 574.5 569 592> 82 67<475 518 518 519 475 520 619 650 650 655> 281 56<125.5 155.5 125.5 164.5> 281 95<44.5 164.5> 576 68<130 149>
VStem: 170 87<557 558.5> 200 90<385 419> 525 86<0 74 69 74 155 155>
LayerCount: 2
Fore
SplineSet
542 -17 m 0xeb
 533 -16 528 -10 525 0 c 2
 525 69 l 2
 524 80 522 82 520 82 c 2
 403 82 l 2
 384 82 379 91 379 103 c 1
 379 103 l 1
 379 121 l 1
 557 346 l 1
 571 350 579 352 593 349 c 0
 601 348 613 341 611 327 c 2
 611 153 l 2
 611 150 619 149 619 149 c 1
 650 149 l 2
 668 149 674 140 674 126 c 0
 674 118 675 101 671 93 c 0
 668 86 660 82 655 82 c 2
 617 82 l 2
 614 81 611 78 611 70 c 2
 612 5 l 2
 612 -10 611 -18 592 -18 c 0
 591 -18 580 -18 569 -18 c 0
 558 -18 546 -18 542 -17 c 0xeb
521 211 m 2
 475 149 l 1
 518 149 l 2
 520 149 524 149 525 155 c 2
 526 209 l 2
 526 216 524 215 521 211 c 2
162 -22 m 2
 144 -47 132 -38 106 -31 c 0
 81 -23 90 -8 92 -2 c 2
 95 4 l 1
 558 650 l 2
 565 660 579 667 591 662 c 2
 612 653 l 2
 625 647 634 639 625 625 c 2
 162 -22 l 2
122 281 m 0
 79 281 12 296 12 337 c 0xed
 12 360 34 376 55 376 c 0xdd
 91 376 110 337 141 337 c 0
 170 337 200 366 200 404 c 0xeb
 200 434 180 452 162 452 c 0
 154 452 147 451 134 442 c 0
 121 433 114 430 104 441 c 0
 54 490 170 511 170 553 c 0
 170 564 160 576 138 576 c 0
 120 576 96 564 79 531 c 1
 67 519 17 531 28 555 c 0
 52 611 102 644 158 644 c 0
 207 644 257 617 257 568 c 0xdd
 257 546 246 526 228 510 c 1
 267 494 290 461 290 417 c 0
 290 340 207 281 122 281 c 0
EndSplineSet
Validated: 37
EndChar
StartChar: questiondown
Encoding: 191 191 170
Width: 371
Flags: W
HStem: -249 116<238.5 248.5> 308 123<188 223.5>
VStem: 35 55<-89.5 -45 -89.5 -19.5> 142 128<352 387.5>
LayerCount: 2
Fore
SplineSet
206 308 m 0
 170 308 142 334 142 370 c 0
 142 405 170 431 206 431 c 0
 241 431 270 406 270 370 c 0
 270 334 241 308 206 308 c 0
222 -249 m 0
 111 -249 35 -167 35 -52 c 0
 35 13 59 66 108 100 c 0
 131 117 142 122 179 136 c 0
 209 147 213 156 213 168 c 0
 213 183 211 191 178 230 c 0
 162 248 181 259 183 260 c 0
 195 266 217 263 226 250 c 0
 261 207 278 172 278 136 c 0
 278 82 252 55 194 33 c 0
 109 0 90 -23 90 -67 c 0
 90 -112 119 -140 176 -140 c 0
 204 -140 226 -133 251 -133 c 0
 290 -133 325 -147 325 -185 c 0
 325 -233 275 -249 222 -249 c 0
EndSplineSet
Validated: 33
EndChar
StartChar: Atilde
Encoding: 195 195 179
Width: 709
Flags: W
HStem: -3 54 274 76<251.5 376 289 376 376 378.5 289 405> 739 90<434.5 439.5> 879 20G<490 493>
LayerCount: 2
Fore
SplineSet
407 739 m 0
 378 739 344 753 307 779 c 0
 270 804 264 806 255 806 c 0
 244 806 237 802 229 769 c 0
 229 762 226 756 226 750 c 0
 220 737 183 724 179 752 c 1
 183 838 217 894 285 894 c 0xf0
 318 894 342 884 387 853 c 0
 417 833 430 829 439 829 c 0
 475 829 447 897 490 899 c 0
 496 899 511 898 512 885 c 0
 514 878 514 873 514 870 c 0
 514 798 472 739 407 739 c 0
696 23 m 0
 696 12 692 -5 676 -4 c 0
 612 -1 483 -1 413 -3 c 0
 394 -4 391 12 391 27 c 0
 391 50 410 54 422 54 c 0
 440 54 452 55 463 55 c 0
 492 57 497 66 488 91 c 0
 464 153 445 206 421 268 c 0
 420 270 413 274 405 274 c 0
 360 275 292 274 255 274 c 0
 248 274 244 268 240 263 c 0
 222 211 194 136 179 96 c 0
 174 86 174 77 174 69 c 0
 174 48 216 52 233 53 c 0
 239 54 245 55 254 53 c 0
 262 52 270 37 270 23 c 0
 268 9 258 -3 252 -3 c 0
 194 -2 93 0 40 -3 c 0
 36 -3 32 -3 27 -3 c 0
 3 1 0 54 28 54 c 0
 74 54 77 55 95 97 c 0
 102 112 107 126 111 137 c 2
 295 629 l 1
 289 651 l 2
 286 660 297 670 313 672 c 0
 322 672 344 672 346 672 c 0
 350 672 355 672 359 672 c 0
 374 672 389 670 398 657 c 0
 514 354 560 232 582 176 c 0
 592 150 601 125 610 100 c 0
 625 58 631 51 670 51 c 2
 677 51 l 2
 691 51 696 35 696 23 c 0
328 501 m 0
 312 450 289 395 275 356 c 0
 272 350 283 350 289 350 c 0
 324 351 347 351 376 350 c 0
 381 350 388 356 386 360 c 0
 372 397 354 450 339 498 c 0
 336 507 329 503 328 501 c 0
EndSplineSet
Validated: 33
EndChar
StartChar: AE
Encoding: 198 198 161
Width: 915
Flags: W
HStem: -6 21G<-37 171> -4 51 -4 68<603 705 603 827> 246 69<225.5 407 275 407 407 410> 302 70<546.5 555> 590 68<552 558 558 710 710 738>
VStem: 423 117<141 239 239 240.5 385 387 387 565 565 568>
LayerCount: 2
Fore
SplineSet
866 23 m 0x2e
 864 -2 838 -4 827 -4 c 0
 742 -2 465 -4 316 -4 c 0
 309 -4 291 -2 291 17 c 2
 291 32 l 2
 291 42 298 46 310 49 c 0
 346 59 420 36 422 106 c 2
 423 141 l 1
 423 239 l 2
 423 242 417 246 410 246 c 2
 229 246 l 2
 222 246 221 244 218 239 c 2
 138 110 l 2
 118 77 117 70 117 64 c 0x36
 117 59 118 47 170 47 c 0x56
 193 47 192 32 193 16 c 0
 194 1 185 -6 171 -6 c 0
 119 -6 13 -3 -37 -6 c 0x96
 -56 -7 -59 11 -61 25 c 0
 -64 44 -49 47 -36 48 c 0
 3 52 21 66 63 135 c 0
 150 278 239 423 327 567 c 0
 332 575 339 585 339 594 c 0
 339 604 338 607 298 607 c 0
 285 607 273 611 274 626 c 2
 275 640 l 2
 277 651 283 658 299 658 c 0
 424 654 716 661 796 658 c 0
 809 658 830 650 831 637 c 0
 833 594 837 550 840 507 c 0
 840 506 840 503 839 501 c 0
 839 491 831 488 824 488 c 2
 809 488 l 2
 790 488 787 506 784 520 c 0
 770 583 757 590 738 590 c 2
 710 590 l 1
 558 590 l 2
 546 590 540 587 540 583 c 2
 540 387 l 2
 540 383 545 372 555 372 c 2
 666 374 l 2
 678 374 710 374 720 381 c 0
 727 386 732 396 739 429 c 0
 741 439 745 448 761 448 c 0
 765 447 769 448 774 448 c 0
 787 448 793 434 793 423 c 0
 793 378 792 293 794 249 c 0
 795 234 792 225 777 225 c 0
 770 223 764 223 758 224 c 0
 745 224 741 234 740 244 c 0
 732 302 726 305 668 304 c 2
 549 302 l 2
 544 302 540 294 540 283 c 2
 540 125 l 2
 540 65 550 64 603 64 c 0
 632 61 669 63 705 64 c 0
 768 66 777 69 793 90 c 0
 809 111 820 135 826 161 c 0
 829 173 830 178 846 178 c 2
 859 178 l 2
 878 178 880 162 879 149 c 0
 875 67 869 49 866 23 c 0x2e
275 315 m 2
 407 315 l 2
 414 315 423 325 423 331 c 2
 423 565 l 2
 423 571 421 572 417 567 c 0
 375 502 318 408 269 324 c 0
 266 318 272 315 275 315 c 2
EndSplineSet
Validated: 33
EndChar
StartChar: Ccedilla
Encoding: 199 199 118
Width: 762
Flags: W
HStem: -261 42<361.5 368 352 395.5> 607 58<351 457.5 311 476>
VStem: 48 133<250.5 419.5 250.5 420> 404 70<-171 -155.5>
LayerCount: 2
Fore
SplineSet
628 2 m 0
 609 7 606 7 600 7 c 0
 569 7 555 2 527 -7 c 0
 498 -16 468 -20 439 -21 c 0
 434 -21 429 -24 427 -28 c 2
 411 -56 l 2
 410 -60 420 -63 422 -64 c 0
 453 -76 474 -107 474 -144 c 0
 474 -198 423 -261 368 -261 c 0
 355 -261 348 -262 331 -256 c 0
 314 -249 309 -240 314 -231 c 0
 315 -229 318 -223 320 -220 c 0
 328 -206 346 -219 358 -219 c 0
 378 -219 404 -183 404 -164 c 0
 404 -147 393 -134 383 -134 c 0
 374 -134 366 -134 331 -152 c 0
 323 -155 318 -153 315 -146 c 0
 312 -140 313 -131 319 -122 c 2
 375 -31 l 2
 378 -25 375 -20 372 -20 c 0
 179 -4 48 134 48 317 c 0
 48 523 201 665 421 665 c 0
 494 665 528 651 596 627 c 0
 605 624 616 621 624 628 c 0
 632 634 661 634 664 621 c 0
 673 582 675 554 674 531 c 0
 674 509 673 490 674 471 c 1
 669 449 636 441 624 459 c 1
 592 552 525 607 427 607 c 0
 275 607 181 503 181 336 c 0
 181 165 289 41 441 41 c 0
 505 41 549 60 594 101 c 0
 619 123 627 131 651 176 c 0
 661 194 709 192 702 167 c 0
 688 122 638 1 628 2 c 0
EndSplineSet
Validated: 33
EndChar
StartChar: Egrave
Encoding: 200 200 207
Width: 619
Flags: W
HStem: -3 69 -2 21G<36 36 521 529.5> 301 68<375 378 378 410.5> 586 64<273 275> 880 20G<215.5 222> 881 20G<298 302>
VStem: 143 119<140 287 374 379 379 508 508 541>
LayerCount: 2
Fore
SplineSet
332 710 m 0xb6
 301 751 243 818 200 864 c 0
 184 882 209 900 222 900 c 2xba
 298 901 l 2
 306 901 317 901 326 887 c 0
 342 842 365 768 375 725 c 1
 375 694 340 702 332 710 c 0xb6
583 120 m 0
 580 95 575 62 570 21 c 0
 567 -3 538 -2 521 -2 c 0x76
 390 -1 173 -1 41 -3 c 1xb6
 36 -2 l 2x76
 5 3 19 54 38 56 c 0
 53 58 66 57 81 57 c 0
 128 58 143 65 143 140 c 2
 143 508 l 2
 143 574 137 595 77 595 c 0
 62 595 50 593 41 610 c 0
 35 619 41 633 45 640 c 0
 51 652 60 650 71 650 c 0
 201 651 413 652 508 650 c 0
 520 650 535 644 537 631 c 0
 545 560 544 526 546 497 c 0
 544 485 522 480 507 485 c 0
 494 487 493 499 493 504 c 0
 481 579 473 584 399 585 c 0
 366 586 316 588 275 586 c 0
 271 586 262 581 262 573 c 2
 262 379 l 2
 262 369 273 369 275 369 c 2
 378 369 l 2
 448 369 450 369 459 433 c 0
 463 446 502 454 508 422 c 1
 510 372 508 291 508 248 c 0
 507 215 460 221 457 238 c 0
 448 298 446 301 375 301 c 2
 278 302 l 2
 265 302 262 292 262 287 c 2
 262 134 l 2
 262 116 262 103 263 93 c 0
 264 83 266 77 269 74 c 0
 276 67 291 66 330 66 c 2
 401 66 l 2
 475 66 484 70 497 86 c 0
 510 100 523 126 531 160 c 0
 534 172 542 176 549 178 c 0
 561 179 579 177 583 168 c 0
 587 160 586 143 583 120 c 0
EndSplineSet
Validated: 33
EndChar
StartChar: Eacute
Encoding: 201 201 119
Width: 619
Flags: W
LayerCount: 2
Fore
SplineSet
425 868 m 1
 425 866 l 2
 424 865 424 863 423 862 c 2
 283 692 l 2
 274 683 242 684 249 706 c 2
 297 868 l 2
 300 879 311 885 320 885 c 2
 407 886 l 2
 417 886 427 882 426 869 c 0
 425 868 425 868 425 868 c 1
565 17 m 0
 563 -4 535 -2 521 -2 c 0
 387 -2 172 -2 42 -3 c 1
 37 -2 l 2
 15 2 22 42 39 44 c 0
 53 46 66 45 81 45 c 0
 141 47 149 54 149 138 c 2
 149 513 l 2
 149 592 145 607 77 607 c 0
 64 607 53 605 45 619 c 0
 41 626 45 638 49 645 c 0
 54 655 62 653 71 653 c 0
 201 654 413 655 508 653 c 0
 520 653 531 647 532 638 c 0
 540 566 539 531 541 502 c 0
 539 492 522 490 511 494 c 0
 501 496 500 505 500 510 c 0
 487 588 476 595 399 597 c 0
 366 597 309 599 268 598 c 0
 263 597 254 586 254 581 c 2
 254 382 l 2
 254 372 261 366 263 366 c 2
 378 366 l 2
 453 366 454 367 463 435 c 0
 464 436 496 463 503 425 c 1
 505 374 503 292 503 248 c 0
 502 220 464 227 462 239 c 0
 452 304 451 307 376 307 c 2
 263 307 l 2
 258 306 254 304 254 298 c 2
 254 132 l 2
 254 58 254 57 323 57 c 2
 401 57 l 2
 475 57 488 61 503 79 c 0
 516 95 529 122 538 157 c 0
 540 167 546 170 552 172 c 0
 564 173 576 170 579 164 c 0
 578 92 568 44 565 17 c 0
EndSplineSet
EndChar
StartChar: Ecircumflex
Encoding: 202 202 204
Width: 619
Flags: W
HStem: -3 69 -2 21G<36 36 521 529.5> 301 68<375 378 378 410.5> 586 64<273 275>
VStem: 143 119<140 287 374 379 379 508 508 541>
LayerCount: 2
Fore
SplineSet
453 718 m 0xb8
 445 716 431 716 424 722 c 2
 311 818 l 1
 205 722 l 2
 189 708 155 721 167 741 c 2
 253 893 l 2
 257 901 265 905 272 908 c 0
 281 909 336 910 349 909 c 0
 363 908 368 905 374 894 c 2
 460 746 l 2
 465 738 468 722 453 718 c 0xb8
583 120 m 0
 580 95 575 62 570 21 c 0
 567 -3 538 -2 521 -2 c 0x78
 390 -1 173 -1 41 -3 c 1xb8
 36 -2 l 2x78
 5 3 19 54 38 56 c 0
 53 58 66 57 81 57 c 0
 128 58 143 65 143 140 c 2
 143 508 l 2
 143 574 137 595 77 595 c 0
 62 595 50 593 41 610 c 0
 35 619 41 633 45 640 c 0
 51 652 60 650 71 650 c 0
 201 651 413 652 508 650 c 0
 520 650 535 644 537 631 c 0
 545 560 544 526 546 497 c 0
 544 485 522 480 507 485 c 0
 494 487 493 499 493 504 c 0
 481 579 473 584 399 585 c 0
 366 586 316 588 275 586 c 0
 271 586 262 581 262 573 c 2
 262 379 l 2
 262 369 273 369 275 369 c 2
 378 369 l 2
 448 369 450 369 459 433 c 0
 463 446 502 454 508 422 c 1
 510 372 508 291 508 248 c 0
 507 215 460 221 457 238 c 0
 448 298 446 301 375 301 c 2
 278 302 l 2
 265 302 262 292 262 287 c 2
 262 134 l 2
 262 116 262 103 263 93 c 0
 264 83 266 77 269 74 c 0
 276 67 291 66 330 66 c 2
 401 66 l 2
 475 66 484 70 497 86 c 0
 510 100 523 126 531 160 c 0
 534 172 542 176 549 178 c 0
 561 179 579 177 583 168 c 0
 587 160 586 143 583 120 c 0
EndSplineSet
Validated: 33
EndChar
StartChar: Edieresis
Encoding: 203 203 206
Width: 619
Flags: W
LayerCount: 2
Fore
SplineSet
393 698 m 0
 360 698 332 726 332 759 c 0
 332 793 360 821 393 821 c 0
 429 821 455 793 455 759 c 0
 455 726 429 698 393 698 c 0
228 698 m 0
 195 698 167 724 167 759 c 0
 167 793 194 821 228 821 c 0
 262 821 290 793 290 759 c 0
 290 724 262 698 228 698 c 0
565 17 m 0
 563 -4 535 -2 521 -2 c 0
 387 -2 172 -2 42 -3 c 1
 37 -2 l 2
 15 2 22 42 39 44 c 0
 53 46 66 45 81 45 c 0
 141 47 149 54 149 138 c 2
 149 513 l 2
 149 592 145 607 77 607 c 0
 64 607 53 604 45 619 c 0
 41 626 45 637 49 644 c 0
 54 654 62 652 71 652 c 0
 201 653 413 654 508 652 c 0
 520 652 531 646 532 637 c 0
 540 565 539 531 541 502 c 0
 539 492 522 490 511 494 c 0
 501 495 500 504 500 509 c 0
 487 588 476 595 399 596 c 0
 366 597 309 599 268 597 c 0
 263 597 254 586 254 581 c 2
 254 381 l 2
 254 372 261 366 263 366 c 2
 378 366 l 2
 453 366 454 366 463 435 c 0
 464 436 496 462 503 424 c 1
 505 374 503 292 503 248 c 0
 502 220 464 227 462 238 c 0
 452 304 451 307 376 307 c 2
 263 307 l 2
 258 306 254 303 254 297 c 2
 254 132 l 2
 254 58 254 57 323 57 c 2
 401 57 l 2
 475 57 488 61 503 79 c 0
 516 95 529 122 538 157 c 0
 540 167 546 170 552 172 c 0
 564 173 576 170 579 164 c 0
 578 92 568 44 565 17 c 0
EndSplineSet
EndChar
StartChar: Igrave
Encoding: 204 204 211
Width: 363
Flags: W
HStem: -3 21G<62.5 69 69 307> 603 53<294 296 71 296.5> 880 20G<81.5 88> 881 20G<162 166.5>
VStem: 124 114<141 512>
LayerCount: 2
Fore
SplineSet
196 710 m 0xd8
 164 751 108 819 67 864 c 0
 51 882 75 900 88 900 c 2xe8
 162 901 l 2
 171 901 181 901 190 887 c 0
 206 842 228 768 238 725 c 0
 240 699 208 699 196 710 c 0xd8
308 604 m 0
 303 604 299 603 294 603 c 0
 244 602 238 600 238 512 c 2
 238 107 l 2
 238 78 243 66 252 61 c 0
 267 50 294 56 312 51 c 1
 329 40 328 -4 307 -3 c 0
 246 -1 129 -1 69 -3 c 0
 56 -3 47 8 47 22 c 0
 47 32 54 50 65 51 c 0
 121 56 122 60 123 107 c 2
 124 141 l 1
 124 512 l 1
 123 546 l 2
 122 592 118 599 71 605 c 0
 40 608 45 657 71 656 c 0
 183 655 174 651 296 656 c 0
 306 657 320 655 322 636 c 0
 323 624 318 605 308 604 c 0
EndSplineSet
Validated: 33
EndChar
StartChar: Iacute
Encoding: 205 205 208
Width: 363
Flags: W
HStem: -3 21G<62.5 69 69 307> 603 53 637 20G<58 71>
VStem: 124 114<141 512>
LayerCount: 2
Fore
SplineSet
156 714 m 2xb0
 146 702 105 705 113 733 c 2
 160 894 l 2
 166 905 177 913 188 913 c 0
 226 913 254 916 271 914 c 0
 305 911 300 892 286 875 c 0
 257 838 156 714 156 714 c 2xb0
308 604 m 0
 303 604 299 603 294 603 c 0xd0
 244 602 238 600 238 512 c 2
 238 107 l 2
 238 78 243 66 252 61 c 0
 267 50 294 56 312 51 c 1
 329 40 328 -4 307 -3 c 0
 246 -1 129 -1 69 -3 c 0
 56 -3 47 8 47 22 c 0
 47 32 54 50 65 51 c 0
 121 56 122 60 123 107 c 2
 124 141 l 1
 124 512 l 1
 123 546 l 2
 122 593 118 599 71 605 c 0
 40 608 45 657 71 657 c 0xb0
 183 655 174 651 296 656 c 0xd0
 306 657 320 655 322 637 c 0
 323 624 318 605 308 604 c 0
EndSplineSet
Validated: 33
EndChar
StartChar: Icircumflex
Encoding: 206 206 209
Width: 362
Flags: W
HStem: -3 21G<62.5 69 69 308> 602 54<270 296.5>
VStem: 124 113<141 512>
LayerCount: 2
Fore
SplineSet
320 710 m 0
 312 708 298 708 291 714 c 2
 180 810 l 1
 76 714 l 2
 61 700 27 713 38 733 c 2
 123 885 l 2
 128 893 135 897 142 900 c 0
 151 901 205 902 218 901 c 0
 230 900 236 897 242 886 c 2
 327 738 l 2
 331 730 334 714 320 710 c 0
309 603 m 0
 303 603 298 602 295 602 c 0
 245 602 237 600 237 512 c 2
 237 107 l 2
 237 78 243 67 252 61 c 0
 267 50 294 56 312 51 c 1
 334 38 327 -4 308 -3 c 0
 247 -1 129 -1 69 -3 c 0
 56 -3 46 7 46 22 c 0
 46 32 55 50 65 51 c 0
 121 56 122 60 123 107 c 2
 124 141 l 1
 124 512 l 1
 123 546 l 2
 122 592 118 599 71 604 c 0
 39 608 44 656 70 656 c 0
 184 655 173 650 297 656 c 0
 337 658 323 606 309 603 c 0
EndSplineSet
Validated: 33
EndChar
StartChar: Idieresis
Encoding: 207 207 210
Width: 363
Flags: W
HStem: -3 21G<62.5 69 69 308> 602 53<295 297 71 297.5> 709 138<76.5 114 247 285.5>
VStem: 27 136<758.5 797> 124 114<141 511> 198 137<759 797>
LayerCount: 2
Fore
SplineSet
266 709 m 0xf4
 228 709 198 740 198 778 c 0
 198 816 228 847 266 847 c 0
 305 847 335 816 335 778 c 0
 335 740 305 709 266 709 c 0xf4
95 709 m 0
 58 709 27 739 27 778 c 0
 27 816 58 847 95 847 c 0
 133 847 163 816 163 778 c 0
 163 739 133 709 95 709 c 0
309 603 m 0
 304 603 300 602 295 602 c 0
 245 601 238 599 238 511 c 2
 238 107 l 2
 238 78 244 66 252 61 c 0
 268 50 295 56 313 51 c 1
 330 40 329 -4 308 -3 c 0
 247 -1 130 -1 69 -3 c 0
 56 -3 47 8 47 22 c 0
 47 32 54 50 65 51 c 0
 121 56 122 60 123 107 c 2
 124 141 l 1
 124 511 l 1xe8
 123 545 l 2
 122 592 118 598 72 604 c 0
 40 607 45 656 71 655 c 0
 184 654 175 650 297 655 c 0
 307 656 321 654 323 635 c 0
 325 623 319 604 309 603 c 0
EndSplineSet
Validated: 33
EndChar
StartChar: Eth
Encoding: 208 208 1
Width: 795
Flags: W
HStem: -5 52<268.5 349.5 268.5 355.5> 295 84<106 108 31 109.5> 604 63
VStem: 116 117<255.5 281 397 515 515 559> 627 135<274 380>
LayerCount: 2
Fore
SplineSet
502 16 m 0
 436 -3 424 -5 287 -5 c 0
 234 -5 109 -4 37 -6 c 0
 28 -7 14 -1 14 13 c 0
 14 21 13 33 17 40 c 0
 27 58 35 52 50 52 c 0
 104 52 114 59 115 105 c 0
 117 164 116 226 116 285 c 0
 116 290 113 295 106 295 c 2
 22 294 l 2
 7 296 6 307 6 320 c 2
 6 354 l 1
 6 354 1 379 31 379 c 2
 106 379 l 2
 110 379 116 388 116 397 c 2
 116 515 l 2
 116 603 111 604 40 604 c 0
 21 604 15 618 15 632 c 0
 15 650 23 658 39 661 c 2
 120 664 l 2
 194 667 269 667 344 667 c 0
 474 667 559 648 632 595 c 0
 712 537 762 450 762 348 c 0
 762 196 650 58 502 16 c 0
529 558 m 0
 488 589 448 602 371 610 c 0
 336 613 314 615 278 615 c 0
 268 615 258 617 247 616 c 0
 238 615 233 611 233 602 c 2
 233 395 l 2
 233 378 239 379 263 378 c 0
 292 377 376 380 382 380 c 0
 406 380 409 365 409 352 c 2
 409 315 l 1
 405 297 401 296 383 296 c 2
 242 295 l 2
 238 295 233 291 233 281 c 2
 233 106 l 2
 233 52 234 47 303 47 c 0
 396 47 428 51 473 72 c 0
 566 114 627 216 627 332 c 0
 627 428 589 512 529 558 c 0
EndSplineSet
Validated: 33
EndChar
StartChar: Ntilde
Encoding: 209 209 120
Width: 834
Flags: W
HStem: -4 57 598 53<45 202> 632 20G<793 801> 723 90<492.5 497.5> 863 20G<548 551>
VStem: 121 82<135 145 145 489> 635 80<198 509 509 525>
LayerCount: 2
Fore
SplineSet
465 723 m 0xde
 436 723 402 737 365 763 c 0
 328 788 322 789 313 789 c 0
 303 789 295 786 287 753 c 0
 287 746 285 740 284 734 c 0
 278 721 241 708 237 736 c 1
 241 822 275 878 343 878 c 0xde
 376 878 400 868 445 837 c 0
 475 817 488 813 497 813 c 0
 533 813 506 881 548 883 c 0
 554 883 569 881 571 869 c 0
 573 862 573 857 573 854 c 0
 573 782 530 723 465 723 c 0xde
623 199 m 1
 622 199 l 1
 628 192 635 185 635 198 c 2
 635 509 l 2
 635 560 634 575 626 583 c 0
 622 587 615 590 604 592 c 0
 590 594 573 594 551 596 c 0
 526 597 522 652 552 651 c 0xde
 628 648 704 650 793 652 c 0xbe
 809 652 809 633 810 623 c 0
 811 604 803 598 786 598 c 0
 716 596 715 596 715 525 c 2
 715 14 l 2
 715 -17 661 -13 651 -2 c 0
 486 183 360 327 213 492 c 0
 206 497 203 506 203 489 c 2
 203 145 l 2
 203 125 202 100 208 82 c 0
 219 50 250 58 275 57 c 0
 288 56 301 52 304 44 c 0
 311 30 311 -4 283 -3 c 0
 222 -2 112 -1 52 -4 c 0
 26 -6 16 53 57 53 c 0
 115 53 121 80 121 99 c 2
 121 583 l 1
 105 593 82 597 49 598 c 0
 41 598 35 612 35 625 c 0
 35 645 47 650 61 651 c 0
 116 654 168 650 202 651 c 0
 210 651 226 645 234 636 c 2
 623 199 l 1
EndSplineSet
Validated: 33
EndChar
StartChar: Ograve
Encoding: 210 210 214
Width: 827
Flags: W
LayerCount: 2
Fore
SplineSet
454 696 m 0
 423 738 365 806 322 852 c 0
 311 864 328 880 341 880 c 2
 416 881 l 2
 427 881 435 880 440 870 c 0
 456 825 478 751 489 707 c 1
 489 685 463 689 454 696 c 0
413 -19 m 0
 205 -19 50 125 50 312 c 0
 50 515 202 667 415 667 c 0
 623 667 772 527 772 339 c 0
 772 138 619 -19 413 -19 c 0
387 619 m 0
 256 619 171 506 171 338 c 0
 171 162 278 30 430 30 c 0
 598 30 651 160 651 309 c 0
 651 491 546 619 387 619 c 0
EndSplineSet
EndChar
StartChar: Oacute
Encoding: 211 211 212
Width: 827
Flags: W
LayerCount: 2
Fore
SplineSet
544 861 m 2
 403 691 l 2
 395 682 363 683 369 705 c 2
 418 867 l 2
 421 878 432 884 440 884 c 0
 512 885 551 892 546 869 c 0
 546 866 546 863 544 861 c 2
413 -19 m 0
 205 -19 50 125 50 312 c 0
 50 515 202 667 415 667 c 0
 623 667 772 527 772 339 c 0
 772 138 619 -19 413 -19 c 0
387 619 m 0
 256 619 171 506 171 338 c 0
 171 162 278 30 430 30 c 0
 598 30 651 160 651 309 c 0
 651 491 546 619 387 619 c 0
EndSplineSet
EndChar
StartChar: Ocircumflex
Encoding: 212 212 213
Width: 827
Flags: W
HStem: -19 59<356 512 356 517.5> 612 57<323.5 464.5>
VStem: 45 131<252.5 415> 646 131<239.5 400>
LayerCount: 2
Fore
SplineSet
569 700 m 0
 563 698 547 697 540 704 c 2
 427 800 l 1
 320 704 l 2
 304 690 270 703 281 723 c 2
 368 875 l 2
 373 883 381 887 388 890 c 0
 397 891 452 892 465 891 c 0
 477 890 483 888 490 876 c 2
 576 728 l 2
 582 717 582 703 569 700 c 0
413 -19 m 0
 202 -19 45 125 45 313 c 0
 45 517 200 669 415 669 c 0
 626 669 777 529 777 340 c 0
 777 139 622 -19 413 -19 c 0
387 612 m 0
 260 612 176 503 176 339 c 0
 176 166 282 40 430 40 c 0
 594 40 646 164 646 311 c 0
 646 489 542 612 387 612 c 0
EndSplineSet
Validated: 33
EndChar
StartChar: Otilde
Encoding: 213 213 180
Width: 827
Flags: W
HStem: -19 59<356 512 356 517.5> 611 58<323.5 464.5> 713 87<500 505>
VStem: 45 131<252.5 415> 646 131<239 399>
LayerCount: 2
Fore
SplineSet
473 713 m 0
 444 713 411 726 374 750 c 0
 337 775 331 777 323 777 c 0
 312 777 305 774 297 743 c 0
 297 737 295 731 294 725 c 0
 288 713 252 700 247 727 c 1
 251 809 285 862 352 862 c 0xf8
 385 862 409 852 453 823 c 0
 483 804 496 800 504 800 c 0
 541 800 513 865 555 866 c 0
 561 867 576 865 577 853 c 0
 579 846 579 842 579 839 c 0
 579 770 537 713 473 713 c 0
413 -19 m 0
 202 -19 45 125 45 313 c 0
 45 517 200 669 415 669 c 0
 626 669 777 529 777 340 c 0
 777 138 622 -19 413 -19 c 0
387 611 m 0
 260 611 176 503 176 339 c 0
 176 166 282 40 430 40 c 0
 594 40 646 164 646 310 c 0
 646 488 542 611 387 611 c 0
EndSplineSet
Validated: 33
EndChar
StartChar: Odieresis
Encoding: 214 214 121
Width: 827
Flags: W
HStem: -19 59<356 512 356 517.5> 611 58<323.5 464.5> 714 138<308 346 482.5 521.5>
VStem: 45 131<252.5 415> 257 140<763.5 802> 432 140<764 802> 646 131<239 399>
LayerCount: 2
Fore
SplineSet
502 714 m 0
 463 714 432 745 432 783 c 0
 432 821 463 852 502 852 c 0
 541 852 572 821 572 783 c 0
 572 745 541 714 502 714 c 0
327 714 m 0
 289 714 257 744 257 783 c 0
 257 821 289 852 327 852 c 0
 366 852 397 821 397 783 c 0
 397 744 365 714 327 714 c 0
413 -19 m 0
 202 -19 45 125 45 313 c 0
 45 517 200 669 415 669 c 0
 626 669 777 529 777 340 c 0
 777 138 622 -19 413 -19 c 0
387 611 m 0
 260 611 176 503 176 339 c 0
 176 166 282 40 430 40 c 0
 594 40 646 164 646 310 c 0
 646 488 542 611 387 611 c 0
EndSplineSet
Validated: 1
EndChar
StartChar: multiply
Encoding: 215 215 21
Width: 699
Flags: W
LayerCount: 2
Fore
SplineSet
600 520 m 0
 551 473 458 376 418 342 c 0
 413 338 413 336 417 332 c 2
 595 158 l 2
 627 128 599 113 577 96 c 0
 559 82 546 84 534 95 c 2
 366 263 l 2
 354 274 348 272 337 260 c 0
 278 197 232 154 173 98 c 0
 146 72 127 95 107 113 c 0
 98 121 91 140 107 155 c 0
 145 191 240 285 284 329 c 0
 291 335 290 338 285 343 c 2
 113 514 l 2
 81 545 106 561 127 582 c 0
 129 583 150 599 167 582 c 0
 215 537 288 464 345 404 c 0
 353 396 355 397 367 407 c 0
 412 448 484 522 529 573 c 0
 538 583 565 593 575 584 c 0
 594 567 629 547 600 520 c 0
EndSplineSet
Validated: 33
EndChar
StartChar: Oslash
Encoding: 216 216 162
Width: 864
Flags: W
HStem: -22 57<417.5 488.5 417.5 538> 618 58<339.5 440.5>
VStem: 45 132<306 419>
LayerCount: 2
Fore
SplineSet
431 -22 m 0
 357 -22 284 -3 221 31 c 0
 217 33 209 31 201 23 c 2
 131 -59 l 2
 115 -77 106 -72 91 -61 c 0
 81 -52 75 -40 87 -27 c 2
 158 52 l 2
 162 57 169 64 163 69 c 0
 89 131 45 218 45 317 c 0
 45 521 216 676 434 676 c 0
 511 676 583 659 650 619 c 0
 654 617 658 621 663 627 c 2
 718 695 l 2
 723 699 736 707 750 697 c 2
 758 691 l 2
 773 679 764 664 755 654 c 2
 706 598 l 2
 703 595 695 588 700 584 c 0
 776 518 814 441 814 341 c 0
 814 136 645 -22 431 -22 c 0
405 618 m 0
 274 618 177 509 177 343 c 0
 177 269 195 202 233 150 c 0
 238 142 241 146 250 157 c 0
 336 260 490 439 577 533 c 0
 581 537 592 547 587 552 c 0
 538 596 476 618 405 618 c 0
615 494 m 0
 528 395 370 213 284 114 c 0
 278 108 280 97 281 96 c 0
 331 54 386 35 449 35 c 0
 528 35 582 61 626 124 c 0
 700 229 702 392 632 499 c 0
 628 506 621 501 615 494 c 0
EndSplineSet
Validated: 33
EndChar
StartChar: Ugrave
Encoding: 217 217 217
Width: 815
Flags: W
LayerCount: 2
Fore
SplineSet
440 696 m 0
 409 738 350 806 307 852 c 0
 297 864 312 880 326 880 c 2
 402 881 l 2
 410 881 419 881 426 870 c 0
 443 825 465 751 475 707 c 1
 475 685 448 688 440 696 c 0
780 611 m 0
 708 609 694 594 694 488 c 2
 694 307 l 2
 694 204 693 130 610 55 c 0
 552 4 501 -19 403 -19 c 0
 267 -19 185 35 141 132 c 0
 120 178 118 201 118 297 c 2
 118 554 l 2
 118 603 111 609 38 610 c 0
 27 610 11 651 38 653 c 0
 66 655 223 654 305 653 c 0
 326 652 321 609 304 610 c 2
 295 610 l 2
 239 610 227 598 225 547 c 0
 225 533 224 519 224 504 c 2
 224 311 l 2
 224 168 267 57 426 57 c 0
 529 57 584 99 611 171 c 0
 627 215 626 260 626 306 c 2
 626 484 l 2
 626 593 615 607 542 609 c 1
 535 611 l 2
 522 613 517 652 536 653 c 0
 586 654 719 654 780 653 c 0
 788 653 794 642 794 633 c 0
 794 626 791 613 780 611 c 0
EndSplineSet
EndChar
StartChar: Uacute
Encoding: 218 218 215
Width: 815
Flags: W
HStem: -19 85<347.5 451.5> 603 52<37 73 267.5 294 294 303 540 540> 864 20G 865 20G<512 520>
VStem: 112 116<298 313 313 503> 620 78<307 308 308 484 484 488>
LayerCount: 2
Fore
SplineSet
536 859 m 1xdc
 535 858 l 2
 534 855 391 685 391 685 c 2
 381 673 340 676 349 704 c 2
 397 864 l 2
 401 877 414 884 425 884 c 2xec
 512 885 l 2
 528 885 541 876 536 859 c 1xdc
780 604 m 0
 711 602 698 591 698 488 c 2
 698 308 l 2
 698 206 697 131 612 56 c 0
 554 5 501 -19 402 -19 c 0
 264 -19 180 35 135 134 c 0
 114 180 112 203 112 298 c 2
 112 552 l 2
 112 597 109 603 37 603 c 0
 24 604 4 653 37 655 c 0
 64 657 222 657 304 655 c 0
 332 655 326 603 303 603 c 2
 294 603 l 2
 241 603 230 593 229 546 c 0
 229 532 228 518 228 503 c 2
 228 313 l 2
 228 172 270 66 425 66 c 0
 526 66 579 107 605 176 c 0
 621 218 620 263 620 307 c 2
 620 484 l 2
 620 590 610 601 540 603 c 1
 533 605 l 2
 518 609 511 655 535 655 c 0
 585 656 718 656 779 655 c 0
 792 655 798 641 798 630 c 0
 798 623 795 607 780 604 c 0
EndSplineSet
Validated: 33
EndChar
StartChar: Ucircumflex
Encoding: 219 219 216
Width: 815
Flags: W
HStem: -19 85<347.5 451.5> 602 53<540 540>
VStem: 112 116<298 313 313 503> 620 78<307 308 308 484 484 488>
LayerCount: 2
Fore
SplineSet
554 715 m 0
 545 713 532 713 524 719 c 2
 411 815 l 1
 305 719 l 2
 289 705 254 718 266 738 c 2
 353 886 l 2
 357 894 365 898 372 901 c 0
 381 902 432 903 446 902 c 0
 460 901 464 897 470 887 c 2
 561 743 l 2
 566 735 569 718 554 715 c 0
780 604 m 0
 711 602 698 590 698 488 c 2
 698 308 l 2
 698 206 697 131 612 56 c 0
 554 5 501 -19 402 -19 c 0
 264 -19 180 35 135 134 c 0
 114 180 112 203 112 298 c 2
 112 552 l 2
 112 597 109 602 37 603 c 0
 24 603 4 653 37 655 c 0
 64 657 222 657 304 655 c 0
 332 655 326 603 303 603 c 2
 294 603 l 2
 241 603 230 593 229 546 c 0
 229 531 228 518 228 503 c 2
 228 313 l 2
 228 171 270 66 425 66 c 0
 526 66 579 107 605 176 c 0
 621 218 620 262 620 307 c 2
 620 484 l 2
 620 590 610 601 540 602 c 1
 533 604 l 2
 518 609 511 655 535 655 c 0
 585 656 718 656 779 655 c 0
 792 655 798 641 798 630 c 0
 798 623 795 607 780 604 c 0
EndSplineSet
Validated: 33
EndChar
StartChar: Udieresis
Encoding: 220 220 122
Width: 815
Flags: W
HStem: -19 85<347.5 451.5> 601 53<540 540> 706 138<288 326 513 551.5>
VStem: 110 121<298 312 312 502> 237 140<755.5 794> 461 140<756 794> 620 78<306 307 307 483 483 487>
LayerCount: 2
Fore
SplineSet
532 706 m 0
 494 706 461 737 461 775 c 0
 461 813 494 844 532 844 c 0
 571 844 601 813 601 775 c 0
 601 737 571 706 532 706 c 0
307 706 m 0
 269 706 237 736 237 775 c 0
 237 813 268 844 307 844 c 0
 345 844 377 813 377 775 c 0
 377 736 345 706 307 706 c 0
780 603 m 0
 711 601 698 590 698 487 c 2
 698 307 l 2
 698 206 697 131 612 56 c 0
 554 5 501 -19 402 -19 c 0
 265 -19 178 35 133 133 c 0
 112 179 110 203 110 298 c 2
 110 551 l 2
 110 597 109 602 37 602 c 0
 24 603 4 652 37 654 c 0
 64 656 222 656 304 654 c 0
 332 654 326 602 303 602 c 2
 294 602 l 2
 241 602 233 592 232 545 c 0
 232 531 231 517 231 502 c 2
 231 312 l 2
 231 171 270 66 425 66 c 0
 526 66 579 107 605 175 c 0
 621 218 620 262 620 306 c 2
 620 483 l 2
 620 589 610 600 540 601 c 1
 533 604 l 2
 518 608 511 654 535 654 c 0
 585 655 718 655 779 654 c 0
 792 654 798 640 798 629 c 0
 798 622 795 606 780 603 c 0
EndSplineSet
Validated: 33
EndChar
StartChar: Yacute
Encoding: 221 221 7
Width: 728
Flags: W
HStem: -4 61 -3 21G<251 255> 601 52<502 503> 892 20G<386 392> 893 20G
VStem: 328 119<241 241>
LayerCount: 2
Fore
SplineSet
502 886 m 0xac
 501 883 359 713 359 713 c 2
 348 701 308 704 316 732 c 2
 364 893 l 2xac
 370 904 380 912 392 912 c 2xb4
 479 913 l 2
 496 913 508 904 502 886 c 0xac
716 601 m 0
 645 598 623 547 592 495 c 2
 447 254 l 1
 448 206 447 134 447 106 c 0
 447 65 471 58 506 57 c 0
 517 56 527 60 537 54 c 0
 549 47 547 34 547 23 c 0
 547 13 542 -4 525 -4 c 0xac
 405 -2 362 0 255 -3 c 0x6c
 247 -3 233 2 229 10 c 0
 225 20 226 32 228 39 c 0
 239 67 262 56 285 57 c 0
 315 59 325 74 327 107 c 0
 329 138 330 204 328 241 c 1
 149 517 l 2
 103 589 89 599 35 600 c 0
 26 600 15 600 11 614 c 0
 10 619 10 627 11 633 c 0
 13 642 20 654 33 653 c 0
 101 652 244 651 297 653 c 0
 319 653 333 600 294 600 c 0
 249 600 247 595 247 591 c 0
 247 585 247 584 249 578 c 0
 252 571 258 560 272 538 c 2
 401 344 l 2
 403 340 410 345 413 350 c 2
 519 526 l 2
 537 557 546 578 546 585 c 0
 546 596 543 601 503 601 c 2
 491 601 l 1
 478 606 464 654 502 653 c 0
 552 650 638 651 715 653 c 0
 730 653 735 638 735 628 c 0
 735 620 731 602 716 601 c 0
EndSplineSet
Validated: 33
EndChar
StartChar: Thorn
Encoding: 222 222 9
Width: 589
Flags: W
HStem: -5 53 138 52<288 319 263.5 377.5> 639 20G<18 38>
VStem: 111 120<90 112.5 112.5 133 85 135 200.5 206 206 484 548.5 557> 431 128<302 380>
LayerCount: 2
Fore
SplineSet
231 133 m 0
 230 124 231 117 231 108 c 0
 231 62 241 48 296 48 c 0
 297 48 316 49 326 48 c 0
 342 47 347 40 347 29 c 0
 348 14 348 -5 321 -4 c 0
 254 -2 124 -2 55 -5 c 0
 44 -5 30 -7 32 15 c 0
 33 21 31 25 33 33 c 0
 35 42 45 47 61 47 c 0
 99 47 111 53 111 90 c 2
 111 135 l 1
 111 541 l 2
 111 581 109 592 106 599 c 0
 103 603 101 604 91 605 c 0
 75 611 44 604 29 609 c 0
 19 611 18 619 18 630 c 2
 18 639 l 2
 18 658 29 659 38 659 c 0
 92 658 221 656 286 658 c 0
 300 659 311 655 311 639 c 2
 311 628 l 2
 311 617 307 609 300 608 c 0
 297 607 294 607 291 607 c 0
 280 607 243 607 236 597 c 0
 228 584 231 564 231 550 c 0
 231 547 236 542 240 542 c 0
 297 542 355 541 411 527 c 0
 498 505 559 436 559 344 c 0
 559 214 456 138 299 138 c 0
 277 138 259 138 238 141 c 0
 233 142 231 140 231 133 c 0
371 474 m 0
 335 493 286 496 244 491 c 0
 240 491 231 489 231 484 c 2
 231 206 l 2
 231 195 235 193 235 193 c 1
 247 191 256 190 271 190 c 0
 367 190 431 254 431 350 c 0
 431 410 408 455 371 474 c 0
EndSplineSet
Validated: 33
EndChar
StartChar: germandbls
Encoding: 223 223 155
Width: 545
Flags: W
HStem: -17 67 -4 54<201.5 221 201.5 225> 656 55<261 305>
VStem: 78 103<100 138 138 385 385 431 431 461> 374 102<506 574.5> 397 79 397 112<134 229>
LayerCount: 2
Fore
SplineSet
321 -17 m 0xb2
 290 -17 258 -2 258 31 c 0
 258 54 274 75 298 75 c 0
 313 75 324 68 336 61 c 0
 353 54 357 52 359 52 c 0
 372 52 397 91 397 177 c 0xb4
 397 281 361 339 304 351 c 0
 290 354 272 355 255 355 c 0
 246 355 238 357 232 362 c 0
 228 368 229 381 229 386 c 0
 229 399 232 401 249 403 c 0
 330 414 374 462 374 537 c 0
 374 612 334 656 276 656 c 0
 246 656 223 643 207 618 c 0
 188 589 181 561 181 494 c 2
 181 431 l 1
 181 138 l 1
 181 94 l 2
 181 53 182 50 221 50 c 0
 239 47 245 47 245 26 c 0
 245 23 246 11 244 5 c 0
 240 0 235 -6 225 -4 c 0
 167 -2 84 -2 37 -4 c 0
 17 -5 14 8 14 20 c 0
 14 33 14 47 35 48 c 0
 57 50 68 50 73 56 c 0
 79 64 78 92 78 100 c 2
 78 138 l 1
 78 385 l 2
 78 537 86 580 131 637 c 0
 169 687 223 711 287 711 c 0
 391 711 476 641 476 545 c 0x78
 476 467 425 429 366 392 c 0
 361 388 362 385 370 382 c 0
 453 349 509 281 509 190 c 0
 509 61 423 -17 321 -17 c 0xb2
EndSplineSet
Validated: 33
EndChar
StartChar: agrave
Encoding: 224 224 124
Width: 421
Flags: W
HStem: -12 66<97.5 169.5> 371 60<174.5 188.5> 637 20G<117 124> 638 20G<198 203.5>
VStem: 29 89 227 100<96 104 104 162 162 164>
LayerCount: 2
Fore
SplineSet
232 468 m 0xdc
 201 510 144 576 101 621 c 0
 85 639 110 657 124 657 c 2xec
 198 658 l 2
 209 658 219 657 225 644 c 0
 242 600 265 526 275 483 c 1
 275 452 240 461 232 468 c 0xdc
233 36 m 1
 233 35 l 1
 190 1 168 -12 128 -12 c 0
 67 -12 23 27 23 84 c 0
 23 140 65 173 134 191 c 0
 165 199 193 212 222 225 c 0
 225 227 228 230 228 234 c 2
 227 295 l 2
 226 348 205 371 172 371 c 0
 154 371 127 351 127 338 c 0
 127 325 126 326 132 313 c 1
 119 299 72 279 65 277 c 0
 44 270 29 273 29 301 c 0
 29 330 57 361 94 390 c 0
 131 418 157 431 192 431 c 0
 237 431 284 406 309 372 c 0
 326 348 327 338 327 278 c 2
 327 104 l 2
 327 69 331 67 338 67 c 0
 352 67 361 73 373 82 c 0
 379 86 381 87 389 87 c 0
 409 84 408 60 403 48 c 1
 362 11 320 -12 292 -12 c 0
 260 -12 242 5 233 36 c 1
227 162 m 2
 227 166 224 171 221 170 c 0
 201 160 186 154 164 145 c 0
 128 131 118 116 118 96 c 0
 118 72 137 54 162 54 c 0
 177 54 219 79 227 96 c 1
 227 162 l 2
EndSplineSet
Validated: 33
EndChar
StartChar: aacute
Encoding: 225 225 123
Width: 421
Flags: W
HStem: -12 66<97.5 169.5> 371 60<174.5 188.5> 641 20G
VStem: 29 89 227 100<96 104 104 162 162 164>
LayerCount: 2
Fore
SplineSet
331 638 m 2
 330 635 330 633 328 631 c 2
 189 464 l 2
 179 452 138 454 147 482 c 2
 194 641 l 2
 198 654 211 661 222 661 c 2
 308 661 l 2
 318 661 334 657 332 639 c 1
 331 638 l 2
233 36 m 1
 233 35 l 1
 190 1 168 -12 128 -12 c 0
 67 -12 23 27 23 84 c 0
 23 140 65 173 134 191 c 0
 165 199 193 212 222 225 c 0
 225 227 228 230 228 234 c 2
 227 295 l 2
 226 348 205 371 172 371 c 0
 154 371 127 351 127 338 c 0
 127 325 126 326 132 313 c 1
 119 299 72 279 65 277 c 0
 44 270 29 273 29 301 c 0
 29 330 57 361 94 390 c 0
 131 418 157 431 192 431 c 0
 237 431 284 406 309 372 c 0
 326 348 327 338 327 278 c 2
 327 104 l 2
 327 69 331 67 338 67 c 0
 352 67 361 73 373 82 c 0
 379 86 381 87 389 87 c 0
 409 84 408 60 403 48 c 1
 362 11 320 -12 292 -12 c 0
 260 -12 242 5 233 36 c 1
227 162 m 2
 227 166 224 171 221 170 c 0
 201 160 186 154 164 145 c 0
 128 131 118 116 118 96 c 0
 118 72 137 54 162 54 c 0
 177 54 219 79 227 96 c 1
 227 162 l 2
EndSplineSet
Validated: 33
EndChar
StartChar: acircumflex
Encoding: 226 226 125
Width: 421
Flags: W
HStem: -12 66<97.5 169.5> 371 60<174.5 188.5>
VStem: 29 89 227 100<96 104 104 162 162 164>
LayerCount: 2
Fore
SplineSet
327 467 m 0
 319 465 306 465 299 471 c 2
 191 562 l 1
 90 471 l 2
 75 457 40 471 51 489 c 2
 139 634 l 2
 144 641 151 645 158 648 c 0
 166 649 210 650 224 649 c 0
 236 648 241 646 248 635 c 2
 335 493 l 2
 339 484 342 471 327 467 c 0
233 36 m 1
 233 35 l 1
 190 1 168 -12 128 -12 c 0
 67 -12 23 27 23 84 c 0
 23 140 65 173 134 191 c 0
 165 199 193 212 222 225 c 0
 225 227 228 230 228 234 c 2
 227 295 l 2
 226 348 205 371 172 371 c 0
 154 371 127 351 127 338 c 0
 127 325 126 326 132 313 c 1
 119 299 72 279 65 277 c 0
 44 270 29 273 29 301 c 0
 29 330 57 361 94 390 c 0
 131 418 157 431 192 431 c 0
 237 431 284 406 309 372 c 0
 326 348 327 338 327 278 c 2
 327 104 l 2
 327 69 331 67 338 67 c 0
 352 67 361 73 373 82 c 0
 379 86 381 87 389 87 c 0
 409 84 408 60 403 48 c 1
 362 11 320 -12 292 -12 c 0
 260 -12 242 5 233 36 c 1
227 162 m 2
 227 166 224 171 221 170 c 0
 201 160 186 154 164 145 c 0
 128 131 118 116 118 96 c 0
 118 72 137 54 162 54 c 0
 177 54 219 79 227 96 c 1
 227 162 l 2
EndSplineSet
Validated: 33
EndChar
StartChar: atilde
Encoding: 227 227 127
Width: 421
Flags: W
HStem: -12 66<97.5 169.5> 371 60<174.5 188.5> 459 87<295 300> 592 20G<349 352.5>
VStem: 29 89 227 100<96 104 104 162 162 164>
LayerCount: 2
Fore
SplineSet
268 459 m 0
 239 459 206 472 168 497 c 0
 132 521 126 523 117 523 c 0
 107 523 99 520 92 489 c 0
 91 483 89 477 88 471 c 0
 82 459 46 447 42 473 c 1
 46 555 79 607 147 607 c 0xfc
 179 607 203 598 248 569 c 0
 277 550 291 546 299 546 c 0
 335 546 308 610 349 612 c 0
 356 612 370 611 372 598 c 0
 374 592 374 588 374 585 c 0
 374 516 332 459 268 459 c 0
233 36 m 1
 233 35 l 1
 190 1 168 -12 128 -12 c 0
 67 -12 23 27 23 84 c 0
 23 140 65 173 134 191 c 0
 165 199 193 212 222 225 c 0
 225 227 228 230 228 234 c 2
 227 295 l 2
 226 348 205 371 172 371 c 0
 154 371 127 351 127 338 c 0
 127 325 126 326 132 313 c 1
 119 299 72 279 65 277 c 0
 44 270 29 273 29 301 c 0
 29 330 57 361 94 390 c 0
 131 418 157 431 192 431 c 0
 237 431 284 406 309 372 c 0
 326 348 327 338 327 278 c 2
 327 104 l 2
 327 69 331 67 338 67 c 0
 352 67 361 73 373 82 c 0
 379 86 381 87 389 87 c 0
 409 84 408 60 403 48 c 1
 362 11 320 -12 292 -12 c 0
 260 -12 242 5 233 36 c 1
227 162 m 2
 227 166 224 171 221 170 c 0
 201 160 186 154 164 145 c 0
 128 131 118 116 118 96 c 0
 118 72 137 54 162 54 c 0
 177 54 219 79 227 96 c 1
 227 162 l 2
EndSplineSet
Validated: 33
EndChar
StartChar: adieresis
Encoding: 228 228 126
Width: 414
Flags: W
LayerCount: 2
Fore
SplineSet
290 475 m 0
 257 475 229 502 229 537 c 0
 229 570 257 598 290 598 c 0
 325 598 351 570 351 537 c 0
 351 503 325 475 290 475 c 0
126 475 m 0
 93 475 65 501 65 537 c 0
 65 570 93 598 126 598 c 0
 160 598 187 570 187 537 c 0
 187 501 159 475 126 475 c 0
227 35 m 0
 184 0 163 -12 125 -12 c 0
 67 -12 25 26 25 81 c 0
 25 135 64 168 132 186 c 0
 167 195 189 206 222 221 c 0
 225 224 230 228 230 234 c 2
 229 297 l 2
 228 352 206 379 169 379 c 0
 150 379 119 359 119 341 c 0
 119 329 118 327 123 316 c 1
 114 306 67 285 60 283 c 0
 41 277 31 279 31 303 c 0
 31 330 57 360 94 390 c 0
 131 419 156 431 189 431 c 0
 232 431 278 407 302 373 c 0
 318 350 319 341 319 279 c 2
 319 102 l 2
 319 60 327 59 335 59 c 0
 351 59 361 65 373 76 c 0
 378 79 379 80 385 80 c 0
 400 77 401 58 396 47 c 1
 355 11 315 -12 289 -12 c 0
 260 -12 243 4 235 34 c 0
 234 38 231 38 227 35 c 0
221 176 m 0
 201 166 181 157 160 148 c 0
 122 133 110 117 110 94 c 0
 110 67 131 46 159 46 c 0
 176 46 221 73 229 93 c 1
 229 160 l 2
 229 168 226 178 221 176 c 0
EndSplineSet
EndChar
StartChar: aring
Encoding: 229 229 128
Width: 421
Flags: W
HStem: -12 66<97.5 169.5> 371 60<174.5 188.5> 467 64<188 211 188 229> 616 64<188 211>
VStem: 29 89 92 65<562 585.5 562 603> 227 100<96 104 104 162 162 164> 241 65<562 585.5>
LayerCount: 2
Fore
SplineSet
200 467 m 0xf5
 140 467 92 515 92 574 c 0
 92 632 140 680 200 680 c 0
 258 680 306 632 306 574 c 0
 306 515 258 467 200 467 c 0xf5
200 616 m 0
 176 616 157 597 157 574 c 0
 157 550 176 531 200 531 c 0
 222 531 241 550 241 574 c 0
 241 597 222 616 200 616 c 0
233 36 m 1
 233 35 l 1
 190 1 168 -12 128 -12 c 0
 67 -12 23 27 23 84 c 0
 23 140 65 173 134 191 c 0
 165 199 193 212 222 225 c 0
 225 227 228 230 228 234 c 2
 227 295 l 2
 226 348 205 371 172 371 c 0
 154 371 127 351 127 338 c 0
 127 325 126 326 132 313 c 1
 119 299 72 279 65 277 c 0
 44 270 29 273 29 301 c 0
 29 330 57 361 94 390 c 0
 131 418 157 431 192 431 c 0
 237 431 284 406 309 372 c 0
 326 348 327 338 327 278 c 2
 327 104 l 2xfa
 327 69 331 67 338 67 c 0
 352 67 361 73 373 82 c 0
 379 86 381 87 389 87 c 0
 409 84 408 60 403 48 c 1
 362 11 320 -12 292 -12 c 0
 260 -12 242 5 233 36 c 1
227 162 m 2
 227 166 224 171 221 170 c 0
 201 160 186 154 164 145 c 0
 128 131 118 116 118 96 c 0
 118 72 137 54 162 54 c 0
 177 54 219 79 227 96 c 1
 227 162 l 2
EndSplineSet
Validated: 33
EndChar
StartChar: ae
Encoding: 230 230 168
Width: 654
Flags: W
HStem: -17 68<160.5 162.5> -17 82<447 470.5> 252 51<359 501 366 501 501 503 366 602> 369 64 411 20G<191.5 229>
VStem: 40 100<283.5 342.5> 250 99<90 245 146 245 229 245 223.5 287 223.5 316>
LayerCount: 2
Fore
SplineSet
602 252 m 2xb6
 366 252 l 2
 352 252 349 249 349 241 c 0
 349 206 353 165 360 144 c 0
 375 98 423 65 471 65 c 0x76
 510 65 534 79 574 119 c 0
 581 127 593 134 603 124 c 2
 615 114 l 2
 628 103 622 93 614 84 c 0
 570 35 507 -17 434 -17 c 0
 378 -17 329 8 295 53 c 0
 291 57 289 58 286 55 c 0
 244 13 186 -17 139 -17 c 0
 79 -17 31 24 31 80 c 0
 31 144 68 170 167 195 c 0
 204 204 224 213 250 229 c 1
 250 287 l 2
 250 345 227 369 191 369 c 0xb6
 160 369 140 350 140 335 c 0
 140 320 147 307 128 298 c 2
 74 274 l 2
 51 264 40 264 40 303 c 0
 40 333 65 360 109 393 c 0
 145 420 175 431 208 431 c 0xae
 250 431 291 413 319 383 c 0
 322 381 321 381 324 383 c 0
 360 416 409 433 458 433 c 0
 547 433 583 386 614 314 c 0
 618 307 619 305 632 292 c 1
 632 274 l 2
 632 254 621 252 602 252 c 2xb6
436 380 m 0
 399 380 372 358 358 312 c 0
 357 308 355 303 366 303 c 2
 501 303 l 2
 505 303 510 304 508 310 c 0
 496 357 466 380 436 380 c 0
250 146 m 2
 250 158 250 170 243 166 c 0
 231 161 215 154 193 147 c 0
 139 129 130 117 130 93 c 0
 130 66 147 51 174 51 c 0xb6
 195 51 220 62 250 90 c 1
 250 146 l 2
EndSplineSet
Validated: 33
EndChar
StartChar: ccedilla
Encoding: 231 231 129
Width: 434
Flags: W
HStem: -234 21G<193 227.5> -18 72<195 270.5> 314 118<203.5 364.5> 375 57<208.5 244>
VStem: 25 100<164 258 164 258.5> 232 73<-158 -135>
LayerCount: 2
Fore
SplineSet
394 88 m 0xdc
 357 31 309 -5 252 -16 c 1
 237 -44 l 2
 236 -44 233 -46 234 -46 c 0
 272 -55 305 -89 305 -133 c 0
 305 -189 255 -234 200 -234 c 0
 186 -234 173 -233 155 -227 c 0
 145 -223 140 -208 146 -196 c 0
 148 -195 148 -193 150 -191 c 0
 156 -178 171 -181 182 -183 c 0
 185 -184 188 -184 190 -184 c 0
 212 -184 232 -167 232 -149 c 0
 232 -121 199 -112 164 -141 c 0
 154 -150 125 -140 137 -120 c 2
 196 -22 l 2
 198 -19 197 -18 195 -18 c 0
 94 -10 25 79 25 191 c 0
 25 326 136 432 271 432 c 0
 331 432 397 408 397 360 c 0
 397 334 377 314 352 314 c 0xec
 327 314 310 326 284 350 c 0
 264 370 252 375 236 375 c 0
 181 375 125 304 125 212 c 0
 125 116 179 54 248 54 c 0
 293 54 328 77 353 114 c 0
 356 119 367 134 383 130 c 0
 388 127 397 117 399 111 c 0
 402 102 396 91 394 88 c 0xdc
EndSplineSet
Validated: 33
EndChar
StartChar: egrave
Encoding: 232 232 131
Width: 427
Flags: W
HStem: -15 82<213.5 253> 256 51<124 277 142 277 277 279 142 386> 382 50<193.5 228> 637 20G<138.5 145> 638 20G<219 224.5>
VStem: 21 97<180.5 232.5 180.5 268.5>
LayerCount: 2
Fore
SplineSet
253 468 m 0xec
 222 509 165 576 123 621 c 0
 106 640 132 657 145 657 c 2xf4
 219 658 l 2
 230 658 241 657 247 644 c 0
 263 600 285 526 296 483 c 1
 296 455 264 459 253 468 c 0xec
386 256 m 0
 311 253 194 255 131 256 c 0
 117 256 118 237 118 228 c 0
 118 133 176 67 251 67 c 0
 294 67 327 82 364 125 c 0
 369 131 380 135 388 133 c 0
 402 130 412 111 404 97 c 0
 355 41 294 -15 212 -15 c 0
 102 -15 21 84 21 204 c 0
 21 333 110 432 232 432 c 0
 303 432 351 404 381 342 c 0
 389 325 396 310 408 295 c 1
 413 279 412 257 386 256 c 0
210 382 m 0
 177 382 148 360 130 311 c 0
 128 306 140 307 142 307 c 2
 277 307 l 2
 281 307 290 304 289 308 c 0
 275 358 246 382 210 382 c 0
EndSplineSet
Validated: 33
EndChar
StartChar: eacute
Encoding: 233 233 130
Width: 432
Flags: W
LayerCount: 2
Fore
SplineSet
345 638 m 2
 207 469 l 2
 198 459 166 461 173 483 c 2
 221 644 l 2
 224 655 235 661 243 661 c 2
 329 661 l 2
 340 661 350 657 348 646 c 0
 348 643 347 640 345 638 c 2
386 260 m 0
 311 257 194 259 132 260 c 0
 115 260 113 238 113 227 c 0
 113 128 172 58 251 58 c 0
 296 58 331 75 367 119 c 0
 372 124 380 127 387 125 c 0
 398 123 406 107 400 97 c 0
 352 40 292 -15 212 -15 c 0
 105 -15 26 82 26 202 c 0
 26 331 113 429 232 429 c 0
 301 429 348 401 376 340 c 0
 384 323 391 308 403 293 c 1
 409 277 406 261 386 260 c 0
210 388 m 0
 174 388 144 363 125 312 c 0
 122 304 138 302 142 302 c 2
 277 302 l 2
 283 302 295 303 294 309 c 0
 280 362 249 388 210 388 c 0
EndSplineSet
EndChar
StartChar: ecircumflex
Encoding: 234 234 132
Width: 427
Flags: W
HStem: -15 82<213.5 253> 256 51<124 277 142 277 277 279 142 386> 382 50<193.5 228>
VStem: 21 97<180.5 232.5 180.5 268.5>
LayerCount: 2
Fore
SplineSet
366 467 m 0
 358 465 345 465 338 471 c 2
 230 562 l 1
 129 471 l 2
 114 457 79 471 90 489 c 2
 178 634 l 2
 183 641 190 645 197 648 c 0
 205 649 249 650 263 649 c 0
 275 648 280 646 287 635 c 2
 374 493 l 2
 378 484 381 471 366 467 c 0
386 256 m 0
 311 253 194 255 131 256 c 0
 117 256 118 237 118 228 c 0
 118 133 176 67 251 67 c 0
 294 67 327 82 364 125 c 0
 369 131 380 135 388 133 c 0
 402 130 412 111 404 97 c 0
 355 41 294 -15 212 -15 c 0
 102 -15 21 84 21 204 c 0
 21 333 110 432 232 432 c 0
 303 432 351 404 381 342 c 0
 389 325 396 309 408 295 c 1
 413 279 412 257 386 256 c 0
210 382 m 0
 177 382 148 360 130 310 c 0
 128 305 140 307 142 307 c 2
 277 307 l 2
 281 307 290 304 289 308 c 0
 275 358 246 382 210 382 c 0
EndSplineSet
Validated: 33
EndChar
StartChar: edieresis
Encoding: 235 235 133
Width: 427
Flags: W
HStem: -15 82<213.5 253> 256 51<124 277 142 277 277 279 142 386> 382 50<193.5 228> 467 131<132.5 169 296 333>
VStem: 21 97<180.5 232 180.5 268.5> 84 133<514 550.5> 248 132<515 550.5 515 550.5>
LayerCount: 2
Fore
SplineSet
314 467 m 0xf6
 278 467 248 496 248 533 c 0
 248 568 278 598 314 598 c 0
 352 598 380 568 380 533 c 0
 380 497 352 467 314 467 c 0xf6
151 467 m 0
 114 467 84 495 84 533 c 0
 84 568 114 598 151 598 c 0
 187 598 217 568 217 533 c 0
 217 495 187 467 151 467 c 0
386 256 m 0
 311 253 194 255 131 256 c 0
 117 256 118 236 118 228 c 0
 118 133 176 67 251 67 c 0
 294 67 327 82 364 125 c 0
 369 131 380 135 388 133 c 0
 402 130 412 111 404 97 c 0
 355 41 294 -15 212 -15 c 0
 102 -15 21 83 21 204 c 0xfa
 21 333 110 432 232 432 c 0
 303 432 351 403 381 341 c 0
 389 325 396 309 408 295 c 1
 413 278 412 257 386 256 c 0
210 382 m 0
 177 382 148 359 130 310 c 0
 128 305 140 307 142 307 c 2
 277 307 l 2
 281 307 290 304 289 308 c 0
 275 358 246 382 210 382 c 0
EndSplineSet
Validated: 33
EndChar
StartChar: iacute
Encoding: 237 237 134
Width: 273
Flags: W
HStem: -3 56<212 228 212 231> 651 20G<151 235 235 239.5>
VStem: 94 97<121 131 121 131 131 305 305 317.5>
LayerCount: 2
Fore
SplineSet
254 642 m 2
 119 481 l 2
 110 469 70 472 78 499 c 2
 124 652 l 2
 128 664 141 671 151 671 c 2
 235 671 l 2
 244 671 259 668 258 652 c 0
 258 648 256 644 254 642 c 2
256 15 m 0
 256 0 244 -4 231 -3 c 0
 184 0 87 -2 38 -3 c 0
 28 -3 20 11 19 22 c 0
 18 33 22 49 36 50 c 0
 72 53 84 56 90 65 c 0
 93 70 94 76 94 87 c 0
 95 98 94 113 94 131 c 2
 94 305 l 2
 94 330 94 339 92 343 c 0
 90 346 80 347 77 348 c 0
 62 351 51 354 37 359 c 0
 19 365 25 395 35 402 c 0
 69 415 114 431 153 444 c 0
 187 455 191 428 191 410 c 2
 191 131 l 2
 191 111 191 95 192 81 c 0
 194 53 196 53 228 53 c 0
 243 54 254 48 256 33 c 0
 256 30 256 18 256 15 c 0
EndSplineSet
Validated: 33
EndChar
StartChar: icircumflex
Encoding: 238 238 136
Width: 273
Flags: W
HStem: -3 56<212 228 212 231>
VStem: 94 97<121 131 121 131 131 305 305 317.5>
LayerCount: 2
Fore
SplineSet
277 507 m 0
 269 505 256 505 249 511 c 2
 141 602 l 1
 40 511 l 2
 25 497 -10 511 1 529 c 2
 89 674 l 2
 94 681 101 685 108 688 c 0
 116 689 160 690 174 689 c 0
 186 688 191 686 198 675 c 2
 285 533 l 2
 289 524 292 511 277 507 c 0
255 15 m 2
 256 15 l 1
 256 0 244 -4 231 -3 c 0
 184 0 87 -2 38 -3 c 0
 28 -3 20 11 19 22 c 0
 18 33 22 49 36 50 c 0
 72 53 84 56 90 65 c 0
 93 70 94 76 94 87 c 0
 95 98 94 113 94 131 c 2
 94 305 l 2
 94 330 94 339 92 343 c 0
 90 346 80 347 77 348 c 0
 62 351 51 354 37 359 c 0
 19 365 25 395 35 402 c 0
 69 415 114 431 153 443 c 0
 187 454 191 428 191 410 c 2
 191 131 l 2
 191 111 191 95 192 81 c 0
 194 53 196 53 228 53 c 0
 243 54 254 48 256 33 c 0
 256 30 255 18 255 15 c 2
EndSplineSet
Validated: 33
EndChar
StartChar: idieresis
Encoding: 239 239 137
Width: 273
Flags: W
HStem: -3 56<212 228 212 231> 503 128<32.5 69.5 204.5 242>
VStem: -17 137<549 584.5> 94 97<121 131 121 131 131 304 304 317> 154 137<549.5 584.5 549.5 585>
LayerCount: 2
Fore
SplineSet
223 503 m 0xe8
 186 503 154 531 154 567 c 0
 154 603 186 631 223 631 c 0
 261 631 291 602 291 567 c 0
 291 532 261 503 223 503 c 0xe8
51 503 m 0
 14 503 -17 531 -17 567 c 0
 -17 602 14 631 51 631 c 0
 89 631 120 603 120 567 c 0
 120 530 88 503 51 503 c 0
256 15 m 0
 256 0 244 -4 231 -3 c 0
 184 0 87 -2 38 -3 c 0
 28 -3 20 11 19 21 c 0
 18 32 22 49 36 50 c 0
 72 53 84 56 90 65 c 0
 93 70 94 76 94 87 c 0
 95 98 94 113 94 131 c 2
 94 304 l 2
 94 330 94 339 92 343 c 0
 90 346 80 347 77 348 c 0
 62 351 51 354 37 359 c 0
 19 365 25 395 35 402 c 0
 69 414 114 430 153 443 c 0
 187 454 191 427 191 410 c 2
 191 131 l 2xd0
 191 111 191 95 192 81 c 0
 194 53 196 53 228 53 c 0
 243 54 254 48 256 33 c 0
 256 30 256 18 256 15 c 0
EndSplineSet
Validated: 33
EndChar
StartChar: eth
Encoding: 240 240 2
Width: 545
Flags: W
HStem: -17 55<250.5 306> 387 56<228 283.5 206 297>
VStem: 41 105<185.5 278> 402 106<194 242>
LayerCount: 2
Fore
SplineSet
135 611 m 0
 127 614 108 626 118 643 c 2
 125 656 l 2
 133 669 149 674 162 671 c 0
 220 654 245 645 284 623 c 1
 372 666 l 2
 390 671 400 668 407 655 c 0
 422 630 382 612 366 604 c 0
 357 600 349 596 341 593 c 0
 335 589 335 588 341 584 c 0
 382 553 425 499 450 455 c 0
 487 390 508 311 508 240 c 0
 508 148 487 88 433 41 c 0
 391 4 336 -17 276 -17 c 0
 139 -17 41 80 41 213 c 0
 41 343 141 443 271 443 c 0
 296 443 314 440 334 433 c 0
 337 432 338 430 338 432 c 0
 338 440 320 468 315 476 c 0
 300 498 289 511 262 535 c 0
 257 540 243 542 235 538 c 2
 110 473 l 2
 101 470 88 473 81 486 c 0
 74 502 77 514 92 522 c 2
 199 578 l 2
 201 579 201 581 199 582 c 0
 181 593 165 601 135 611 c 0
258 387 m 0
 198 387 146 329 146 246 c 0
 146 125 213 38 288 38 c 0
 352 38 402 94 402 181 c 0
 402 303 336 387 258 387 c 0
EndSplineSet
Validated: 33
EndChar
StartChar: ntilde
Encoding: 241 241 138
Width: 523
Flags: W
LayerCount: 2
Fore
SplineSet
426 619 m 0
 426 547 385 492 324 492 c 0
 296 492 264 505 226 531 c 0
 190 556 183 559 172 559 c 0
 157 559 149 552 141 517 c 0
 141 511 139 505 138 499 c 0
 132 487 104 482 101 500 c 0
 105 586 138 638 202 638 c 0
 233 638 257 628 301 598 c 0
 331 577 346 572 356 572 c 0
 371 572 382 579 389 632 c 0
 390 638 399 643 407 643 c 0
 413 644 424 641 424 633 c 0
 426 626 426 622 426 619 c 0
506 36 m 0
 511 28 512 4 502 -1 c 0
 498 -2 493 -2 489 -2 c 0
 440 -3 354 0 303 -2 c 0
 287 -3 283 4 282 19 c 0
 282 29 287 41 295 41 c 2
 302 41 l 1
 343 45 352 54 355 91 c 0
 361 148 361 206 361 264 c 0
 361 339 339 367 296 367 c 0
 271 367 225 345 182 312 c 1
 182 93 l 2
 182 45 189 41 236 41 c 0
 242 41 249 29 250 19 c 0
 250 5 245 -2 231 -3 c 0
 181 -1 95 -4 44 -2 c 2
 40 -2 l 2
 34 -2 28 0 25 6 c 0
 21 18 25 39 38 39 c 2
 44 39 l 2
 84 39 93 48 93 136 c 2
 93 271 l 2
 93 328 92 343 90 348 c 0
 88 352 88 354 57 361 c 2
 37 365 l 2
 23 367 27 397 37 402 c 0
 57 408 96 424 123 434 c 0
 133 438 143 442 152 444 c 0
 173 449 182 443 182 422 c 2
 182 378 l 2
 182 371 185 361 190 364 c 0
 230 392 288 431 336 431 c 0
 440 431 450 319 450 249 c 0
 450 190 443 131 443 71 c 0
 443 47 446 41 485 41 c 1
 492 45 501 43 506 36 c 0
EndSplineSet
EndChar
StartChar: ograve
Encoding: 242 242 140
Width: 500
Flags: W
HStem: -15 56<228.5 295 228.5 317.5> 382 55<206 272> 647 20G<176.5 182> 648 20G<258 262>
VStem: 20 106<183.5 275> 375 108
LayerCount: 2
Fore
SplineSet
292 478 m 0xdc
 260 519 203 586 160 631 c 0
 144 649 171 667 182 667 c 2xec
 258 668 l 2
 266 668 277 668 286 655 c 0
 303 610 324 536 334 494 c 1
 337 464 301 470 292 478 c 0xdc
253 -15 m 0
 121 -15 20 82 20 210 c 0
 20 340 119 437 250 437 c 0
 382 437 484 338 483 209 c 0
 482 84 382 -15 253 -15 c 0
236 382 m 0
 176 382 126 325 126 242 c 0
 126 125 192 41 265 41 c 0
 325 41 375 98 375 186 c 0
 375 296 308 382 236 382 c 0
EndSplineSet
Validated: 33
EndChar
StartChar: oacute
Encoding: 243 243 139
Width: 518
Flags: W
LayerCount: 2
Fore
SplineSet
396 642 m 2
 396 641 l 2
 395 638 255 469 255 469 c 2
 246 459 214 461 221 483 c 2
 269 645 l 2
 273 655 283 661 291 661 c 2
 378 661 l 2
 388 661 400 657 397 646 c 0
 397 645 397 643 396 642 c 2
260 -15 m 0
 130 -15 32 82 32 209 c 0
 32 338 129 434 257 434 c 0
 386 434 486 336 485 208 c 0
 485 83 386 -15 260 -15 c 0
243 387 m 0
 179 387 128 327 128 240 c 0
 128 121 195 32 272 32 c 0
 336 32 387 93 387 184 c 0
 387 297 319 387 243 387 c 0
EndSplineSet
EndChar
StartChar: ocircumflex
Encoding: 244 244 141
Width: 500
Flags: W
HStem: -15 56<228.5 295 228.5 317.5> 378 55<206 272>
VStem: 20 106<181.5 273.5> 375 108
LayerCount: 2
Fore
SplineSet
385 476 m 0
 377 474 364 474 357 480 c 2
 249 571 l 1
 148 480 l 2
 133 466 98 480 109 498 c 2
 197 643 l 2
 202 650 209 654 216 657 c 0
 224 658 268 659 282 658 c 0
 294 657 299 655 306 644 c 2
 393 502 l 2
 397 493 400 479 385 476 c 0
253 -15 m 0
 121 -15 20 82 20 209 c 0
 20 338 119 433 250 433 c 0
 381 433 484 336 483 208 c 0
 482 83 382 -15 253 -15 c 0
236 378 m 0
 176 378 126 322 126 239 c 0
 126 124 192 41 265 41 c 0
 325 41 375 98 375 185 c 0
 375 294 308 378 236 378 c 0
EndSplineSet
Validated: 33
EndChar
StartChar: otilde
Encoding: 245 245 143
Width: 500
Flags: W
HStem: -15 56<228.5 295 228.5 317.5> 378 55<206 272> 470 87<345 350> 603 20G<399 402.5>
VStem: 20 106<181.5 273> 375 108
LayerCount: 2
Fore
SplineSet
318 470 m 0
 289 470 256 483 218 508 c 0
 182 532 176 534 167 534 c 0
 157 534 149 531 142 500 c 0
 141 494 139 488 138 482 c 0
 132 470 96 458 92 484 c 1
 96 566 129 618 197 618 c 0xfc
 229 618 253 609 298 580 c 0
 327 561 341 557 349 557 c 0
 385 557 358 621 399 623 c 0
 406 623 420 622 422 610 c 0
 424 603 424 599 424 596 c 0
 424 527 382 470 318 470 c 0
253 -15 m 0
 121 -15 20 82 20 209 c 0
 20 337 119 433 250 433 c 0
 381 433 484 335 483 208 c 0
 482 83 382 -15 253 -15 c 0
236 378 m 0
 176 378 126 322 126 239 c 0
 126 124 192 41 265 41 c 0
 325 41 375 97 375 184 c 0
 375 294 308 378 236 378 c 0
EndSplineSet
Validated: 33
EndChar
StartChar: odieresis
Encoding: 246 246 142
Width: 500
Flags: W
HStem: -15 56<228.5 295 228.5 317.5> 380 56<206 272> 467 131<153 189 317 354>
VStem: 20 106<183 274.5> 105 132<514 550.5> 269 133<515 550.5 515 550.5> 375 108
LayerCount: 2
Fore
SplineSet
335 467 m 0xec
 299 467 269 496 269 533 c 0
 269 568 299 598 335 598 c 0
 373 598 402 568 402 533 c 0
 402 497 373 467 335 467 c 0xec
171 467 m 0
 135 467 105 495 105 533 c 0
 105 568 135 598 171 598 c 0
 207 598 237 568 237 533 c 0
 237 495 207 467 171 467 c 0
253 -15 m 0
 121 -15 20 82 20 210 c 0
 20 339 119 436 250 436 c 0
 382 436 484 337 483 209 c 0xf2
 482 83 382 -15 253 -15 c 0
236 380 m 0
 176 380 126 324 126 241 c 0
 126 125 192 41 265 41 c 0
 325 41 375 98 375 186 c 0
 375 295 308 380 236 380 c 0
EndSplineSet
Validated: 33
EndChar
StartChar: divide
Encoding: 247 247 189
Width: 699
Flags: W
HStem: 87 102<336 364.5 336 365> 297 83<103 104 104 601> 491 101<337 364 337 364>
VStem: 297 105<124.5 152.5 124.5 153 530 545>
LayerCount: 2
Fore
SplineSet
350 491 m 0
 321 491 297 515 297 545 c 0
 298 573 324 592 350 592 c 0
 378 592 402 570 402 542 c 0
 402 514 378 491 350 491 c 0
601 297 m 2
 104 297 l 2
 92 297 69 298 69 318 c 2
 69 352 l 2
 69 377 85 380 103 380 c 2
 604 380 l 2
 636 380 627 381 631 327 c 0
 633 302 621 297 601 297 c 2
350 87 m 0
 322 87 297 110 297 138 c 0
 297 168 322 189 350 189 c 0
 379 189 402 167 402 138 c 0
 402 111 380 87 350 87 c 0
EndSplineSet
Validated: 33
EndChar
StartChar: oslash
Encoding: 248 248 169
Width: 545
Flags: W
HStem: -18 56<274.5 319.5 274.5 343> 378 55<230 276.5>
VStem: 40 110<218 270> 402 108<143 198.5>
LayerCount: 2
Fore
SplineSet
454 355 m 0
 491 313 510 265 510 207 c 0
 510 79 408 -18 278 -18 c 0
 231 -18 185 -5 145 20 c 0
 144 20 144 20 143 19 c 2
 90 -46 l 2
 81 -54 69 -55 60 -46 c 2
 50 -38 l 2
 41 -31 39 -25 52 -9 c 0
 64 5 82 26 99 44 c 0
 102 48 103 53 99 57 c 0
 60 98 40 146 40 205 c 0
 40 335 141 433 275 433 c 0
 321 433 361 422 400 399 c 0
 409 394 408 395 413 401 c 2
 454 447 l 2
 462 457 473 455 480 448 c 0
 486 443 488 440 493 434 c 0
 502 422 496 419 484 405 c 0
 473 393 462 380 452 368 c 0
 449 364 448 361 454 355 c 0
261 378 m 0
 199 378 150 322 150 236 c 0
 150 200 155 169 168 138 c 0
 171 133 174 131 179 136 c 2
 347 326 l 2
 351 331 349 334 346 337 c 0
 321 364 292 378 261 378 c 0
374 280 m 2
 204 87 l 2
 202 84 202 81 206 77 c 0
 230 51 260 38 289 38 c 0
 350 38 402 95 402 183 c 0
 402 214 396 245 382 276 c 0
 380 282 377 284 374 280 c 2
EndSplineSet
Validated: 1
EndChar
StartChar: uacute
Encoding: 250 250 144
Width: 534
Flags: W
HStem: -10 77<227 231> 671 20G<283 370 370 376.5>
VStem: 82 100<134.5 185 185 335 335 343.5> 357 98<124 288 288 310 306 319>
LayerCount: 2
Fore
SplineSet
393 666 m 2
 393 665 l 2
 391 662 250 494 250 494 c 2
 238 482 199 485 207 512 c 2
 255 672 l 2
 261 683 272 691 283 691 c 2
 370 691 l 2
 383 691 397 685 394 671 c 0
 394 669 393 667 393 666 c 2
399 -6 m 0
 382 -10 359 -12 358 17 c 0
 357 19 357 37 356 51 c 0
 356 58 355 59 347 53 c 0
 305 23 259 -10 203 -10 c 0
 118 -10 82 48 82 132 c 2
 82 335 l 2
 82 352 80 356 68 360 c 0
 55 364 42 367 29 371 c 0
 21 372 10 408 38 414 c 0
 68 421 119 438 154 445 c 0
 175 449 182 430 182 420 c 2
 182 185 l 2
 182 84 199 67 255 67 c 0
 281 67 317 84 354 112 c 0
 355 116 357 120 357 124 c 2
 357 288 l 2
 357 294 357 302 357 310 c 0
 357 328 356 360 333 365 c 0
 314 368 296 371 277 374 c 1
 263 382 260 414 280 418 c 0
 321 427 388 442 424 446 c 0
 438 447 455 441 455 421 c 2
 455 115 l 1
 455 85 l 2
 455 66 471 71 484 74 c 0
 490 76 498 78 504 80 c 0
 531 84 534 35 511 30 c 1
 481 17 433 1 399 -6 c 0
EndSplineSet
Validated: 33
EndChar
StartChar: ucircumflex
Encoding: 251 251 146
Width: 534
Flags: W
HStem: -10 77<227 231>
VStem: 82 100<134.5 185 185 335 335 343.5> 357 98<124 288 288 310 306 319>
LayerCount: 2
Fore
SplineSet
391 496 m 0
 383 494 370 494 363 500 c 2
 255 591 l 1
 154 500 l 2
 139 486 104 500 115 518 c 2
 203 663 l 2
 208 670 215 674 222 677 c 0
 230 678 274 679 288 678 c 0
 300 677 305 675 312 664 c 2
 399 522 l 2
 403 513 406 499 391 496 c 0
399 -6 m 0
 382 -10 359 -12 358 17 c 0
 357 19 357 37 356 51 c 0
 356 58 355 59 347 53 c 0
 305 23 259 -10 203 -10 c 0
 118 -10 82 48 82 132 c 2
 82 335 l 2
 82 352 80 356 68 360 c 0
 55 364 42 367 29 371 c 0
 21 372 10 408 38 414 c 0
 68 421 119 438 154 445 c 0
 175 449 182 430 182 420 c 2
 182 185 l 2
 182 84 199 67 255 67 c 0
 281 67 317 84 354 112 c 0
 355 116 357 120 357 124 c 2
 357 288 l 2
 357 294 357 302 357 310 c 0
 357 328 356 360 333 365 c 0
 314 368 296 371 277 374 c 1
 263 382 260 414 280 418 c 0
 321 427 388 442 424 446 c 0
 438 447 455 441 455 421 c 2
 455 115 l 1
 455 85 l 2
 455 66 471 71 484 74 c 0
 490 76 498 78 504 80 c 0
 531 84 534 35 511 30 c 1
 481 17 433 1 399 -6 c 0
EndSplineSet
Validated: 33
EndChar
StartChar: udieresis
Encoding: 252 252 147
Width: 534
Flags: W
LayerCount: 2
Fore
SplineSet
356 475 m 0
 322 475 294 502 294 537 c 0
 294 570 322 598 356 598 c 0
 391 598 417 570 417 537 c 0
 417 503 391 475 356 475 c 0
191 475 m 0
 158 475 130 501 130 537 c 0
 130 570 158 598 191 598 c 0
 225 598 253 570 253 537 c 0
 253 501 225 475 191 475 c 0
350 54 m 0
 306 22 260 -10 203 -10 c 0
 122 -10 87 46 87 130 c 2
 87 337 l 2
 87 356 85 363 69 368 c 0
 56 372 43 375 30 379 c 0
 24 380 8 409 30 414 c 0
 60 421 120 438 155 445 c 0
 170 448 177 432 177 421 c 2
 177 185 l 2
 177 80 195 58 255 58 c 0
 284 58 321 78 358 107 c 0
 360 112 362 117 362 122 c 2
 362 289 l 2
 362 314 367 366 334 373 c 0
 326 374 319 375 312 377 c 0
 307 378 299 379 279 382 c 1
 267 389 268 414 282 418 c 0
 322 427 389 442 424 446 c 0
 437 447 450 442 450 425 c 2
 450 113 l 1
 450 82 l 2
 450 57 469 62 485 66 c 0
 492 68 499 70 506 72 c 0
 525 75 527 34 509 30 c 0
 480 17 432 1 398 -6 c 0
 380 -10 364 -11 363 13 c 0
 362 15 362 33 360 46 c 0
 359 59 355 58 350 54 c 0
EndSplineSet
EndChar
StartChar: yacute
Encoding: 253 253 8
Width: 488
Flags: W
LayerCount: 2
Fore
SplineSet
361 642 m 2
 361 641 l 2
 359 638 220 468 220 468 c 2
 210 459 179 460 185 482 c 2
 233 645 l 2
 238 654 246 661 256 661 c 2
 343 661 l 2
 353 661 364 657 362 646 c 0
 362 644 361 643 361 642 c 2
465 379 m 1
 429 376 413 361 374 254 c 2
 255 -74 l 2
 238 -121 225 -153 214 -180 c 0
 203 -206 192 -224 178 -241 c 0
 166 -256 143 -264 125 -264 c 0
 98 -264 72 -238 72 -211 c 0
 72 -184 95 -173 126 -165 c 0
 163 -155 198 -132 212 -50 c 2
 221 -6 l 1
 100 288 l 2
 66 372 64 375 19 379 c 0
 7 382 0 420 28 419 c 0
 30 419 38 419 40 419 c 0
 89 419 176 419 205 419 c 0
 235 420 223 381 213 379 c 0
 169 378 170 369 170 359 c 0
 170 354 172 347 181 327 c 0
 212 256 234 193 263 120 c 0
 266 116 270 111 271 115 c 2
 329 270 l 2
 336 289 352 329 352 349 c 0
 352 368 350 378 299 379 c 0
 290 383 286 416 302 418 c 0
 305 419 308 418 311 418 c 0
 369 418 405 419 458 419 c 0
 488 419 474 379 465 379 c 1
 465 379 l 1
EndSplineSet
EndChar
StartChar: thorn
Encoding: 254 254 10
Width: 523
Flags: W
HStem: -252 55<28 61 28 250> -6 63<269.5 313 269.5 319.5> 364 82<302.5 303>
VStem: 81 100<-104 -4 104 322 395 405 405 534 534 560 560 568.5> 389 100<172.5 248.5>
LayerCount: 2
Fore
SplineSet
189 388 m 0
 247 427 283 446 322 446 c 0
 414 446 489 345 489 238 c 0
 489 107 382 -6 257 -6 c 0
 235 -6 213 -3 188 5 c 0
 184 6 181 3 181 -4 c 2
 181 -104 l 2
 181 -191 190 -201 234 -198 c 0
 267 -196 274 -196 276 -231 c 0
 277 -248 267 -252 250 -252 c 0
 196 -251 73 -250 26 -252 c 0
 7 -253 1 -243 2 -226 c 0
 3 -207 4 -198 28 -197 c 0
 94 -197 81 -149 81 -104 c 2
 81 534 l 1
 81 560 l 2
 81 577 79 578 63 582 c 0
 44 588 27 588 20 603 c 0
 18 608 18 615 18 623 c 0
 17 630 20 635 26 639 c 0
 27 640 30 641 32 642 c 2
 139 708 l 2
 162 722 181 716 181 683 c 2
 181 405 l 2
 181 385 182 384 189 388 c 0
272 364 m 0
 247 364 214 350 181 322 c 1
 181 104 l 1
 214 74 254 57 285 57 c 0
 341 57 389 113 389 200 c 0
 389 297 334 364 272 364 c 0
EndSplineSet
Validated: 33
EndChar
StartChar: ydieresis
Encoding: 255 255 190
Width: 494
Flags: W
HStem: -264 21G<113 137.5> 369 50 489 138<152 190 325 363.5>
VStem: 101 139<538.5 577> 275 139<539 577>
LayerCount: 2
Fore
SplineSet
344 489 m 0
 306 489 275 520 275 558 c 0
 275 596 306 627 344 627 c 0
 383 627 414 596 414 558 c 0
 414 520 383 489 344 489 c 0
171 489 m 0
 133 489 101 519 101 558 c 0
 101 596 133 627 171 627 c 0
 209 627 240 596 240 558 c 0
 240 519 209 489 171 489 c 0
278 136 m 2
 327 269 l 2
 334 287 350 326 350 345 c 0
 350 362 347 369 301 369 c 1
 290 375 280 414 304 418 c 0
 308 419 311 418 314 418 c 0
 372 418 408 419 461 419 c 0
 486 419 488 393 482 378 c 0
 479 371 473 370 468 369 c 0
 437 367 421 356 382 250 c 2
 263 -74 l 2
 246 -120 233 -152 221 -178 c 0
 210 -204 199 -222 185 -240 c 0
 171 -256 147 -264 128 -264 c 0
 98 -264 70 -236 70 -207 c 0
 70 -177 97 -165 128 -156 c 0
 201 -137 207 -67 218 -5 c 1
 99 284 l 2
 65 366 63 366 22 370 c 0
 6 373 -4 420 31 419 c 0
 33 419 41 419 43 419 c 0
 92 419 179 419 208 419 c 0
 244 420 234 373 217 369 c 0
 209 369 196 369 187 366 c 0
 169 361 183 336 188 326 c 0
 218 259 240 196 267 128 c 0
 270 121 274 125 278 136 c 2
EndSplineSet
Validated: 33
EndChar
StartChar: dotlessi
Encoding: 305 305 218
Width: 273
Flags: W
HStem: -2 51<35 37 37 47 47 71 228 238>
VStem: 94 95<129 300 300 312.5>
LayerCount: 2
Fore
SplineSet
238 -2 m 0
 189 -1 101 -1 37 -2 c 0
 28 -2 19 10 18 21 c 0
 17 32 21 49 35 49 c 2
 47 49 l 2
 95 49 94 54 94 129 c 2
 94 300 l 2
 94 325 94 334 92 338 c 0
 90 341 80 342 77 343 c 0
 62 346 50 349 36 353 c 0
 18 360 24 389 34 396 c 2
 156 438 l 2
 176 445 189 437 189 416 c 2
 189 129 l 2
 189 110 189 93 190 80 c 0
 192 50 193 49 228 49 c 2
 239 49 l 1
 253 45 254 29 254 22 c 0
 253 12 245 -2 238 -2 c 0
EndSplineSet
Validated: 33
EndChar
StartChar: Lslash
Encoding: 321 321 3
Width: 583
Flags: W
HStem: -7 21G -5 68<415 417 288 478> 604 55 641 20G
VStem: 116 117<97 106 106 212 190.5 222.5 447 451 451 548 548 557>
LayerCount: 2
Fore
SplineSet
509 13 m 0x68
 503 1 489 -5 467 -5 c 0x68
 363 -5 100 -3 48 -7 c 0
 21 -6 20 -3 16 11 c 0
 16 17 14 30 16 36 c 0
 22 52 36 55 51 55 c 0
 95 55 114 57 116 97 c 0
 117 140 116 169 116 212 c 0
 116 233 112 232 106 227 c 0
 83 207 50 183 27 165 c 0
 11 150 -3 148 -3 182 c 2
 -3 228 l 2
 -3 240 -2 247 6 253 c 2
 105 335 l 2
 114 343 116 352 116 356 c 2
 116 548 l 2
 116 594 104 604 51 604 c 0xa8
 42 604 25 601 24 621 c 0
 24 624 25 642 25 645 c 0
 25 657 36 659 48 661 c 0x58
 118 659 262 659 334 659 c 0
 339 659 344 656 347 649 c 0
 352 639 352 623 347 614 c 0
 343 608 337 603 326 603 c 0
 312 602 283 602 262 600 c 0
 239 598 233 590 233 557 c 2
 233 451 l 2
 233 443 236 442 242 446 c 0
 256 458 307 502 321 514 c 0
 335 526 353 538 353 508 c 2
 353 448 l 2
 353 436 349 428 340 421 c 2
 246 342 l 2
 241 337 233 325 233 314 c 2
 233 106 l 2
 233 63 244 63 288 63 c 2
 382 63 l 2
 452 63 457 64 503 126 c 2
 540 174 l 1
 563 174 l 2
 590 174 589 158 578 138 c 0
 568 118 545 82 509 13 c 0x68
EndSplineSet
Validated: 33
EndChar
StartChar: lslash
Encoding: 322 322 4
Width: 251
Flags: W
LayerCount: 2
Fore
SplineSet
267 405 m 2
 183 332 l 2
 176 326 173 320 173 309 c 2
 173 146 l 1
 173 101 l 2
 173 47 183 38 230 38 c 0
 258 38 253 -4 232 -4 c 0
 180 -3 72 -2 17 -4 c 0
 7 -2 2 5 2 14 c 0
 2 26 3 38 21 38 c 0
 71 38 85 52 85 100 c 2
 85 139 l 1
 85 245 l 2
 85 248 84 250 81 247 c 0
 -7 172 -30 145 -30 183 c 2
 -30 263 l 1
 6 294 43 323 77 355 c 0
 83 361 85 366 85 374 c 2
 85 556 l 1
 85 609 l 2
 85 612 82 619 81 619 c 0
 74 624 14 631 12 631 c 0
 7 635 2 641 3 650 c 0
 2 658 6 665 12 668 c 2
 150 708 l 2
 169 713 173 701 173 684 c 2
 173 446 l 2
 173 439 175 437 178 440 c 2
 258 509 l 2
 279 527 283 511 283 492 c 2
 283 435 l 2
 283 426 276 413 267 405 c 2
EndSplineSet
EndChar
StartChar: OE
Encoding: 338 338 181
Width: 1036
Flags: W
HStem: -12 58<348 427> -12 76 -4 21G<882.5 951> -3 21G<559.5 653> 304 68<662 789 674 789 789 798> 590 68<676.5 677 677 835> 609 49 637 20G<579 589.5> 644 20G<381.5 437>
VStem: 49 130<255.5 387.5> 534 122<229 280 379 383 383 504 504 539>
LayerCount: 2
Fore
SplineSet
984 23 m 0x4c60
 980 -4 960 -4 942 -4 c 0x2c60
 823 -4 713 -3 593 -3 c 0x1c60
 526 -3 460 -12 394 -12 c 0
 205 -12 49 135 49 321 c 0
 49 454 129 574 246 630 c 0
 296 654 345 664 418 664 c 0x88e0
 456 664 492 662 529 660 c 0
 562 658 574 657 584 657 c 0x8960
 595 657 606 658 638 658 c 2
 922 658 l 2
 942 658 950 653 952 632 c 0
 954 620 959 529 957 498 c 0
 957 490 946 489 940 489 c 0
 934 489 928 488 922 489 c 0
 915 490 911 496 908 507 c 2
 903 526 l 2
 888 588 883 590 835 590 c 2
 677 590 l 2
 676 590 656 588 656 579 c 2
 656 383 l 2
 656 375 670 372 674 372 c 2
 789 372 l 2
 827 372 838 375 845 381 c 0
 853 390 857 418 859 431 c 0
 859 436 863 451 879 451 c 2
 893 451 l 2
 908 451 909 442 911 431 c 0
 909 376 912 299 911 250 c 0
 911 240 911 225 897 225 c 2
 879 225 l 2
 863 225 859 239 859 248 c 0
 854 299 846 304 798 304 c 2
 665 304 l 2
 659 304 656 284 656 280 c 2
 656 80 l 2
 656 74 665 64 673 64 c 2
 814 64 l 2
 891 64 899 68 916 88 c 0
 931 106 945 137 948 159 c 0
 950 173 956 176 969 176 c 2
 980 176 l 2
 996 176 998 166 998 150 c 0
 997 111 989 58 984 23 c 0x4c60
534 504 m 2
 534 574 498 609 405 609 c 0
 264 609 179 512 179 341 c 0
 179 170 283 46 413 46 c 0x8a60
 448 46 475 55 498 72 c 0
 528 95 534 110 534 229 c 2
 534 504 l 2
EndSplineSet
Validated: 33
EndChar
StartChar: oe
Encoding: 339 339 182
Width: 775
Flags: W
LayerCount: 2
Fore
SplineSet
729 258 m 2
 494 258 l 2
 481 258 471 260 471 249 c 0
 471 134 530 50 597 50 c 0
 624 50 658 69 707 118 c 0
 716 127 724 124 731 116 c 0
 740 106 745 99 734 87 c 0
 709 60 678 33 649 14 c 0
 618 -6 585 -17 552 -17 c 0
 505 -17 465 5 434 48 c 0
 433 49 432 49 432 48 c 0
 392 4 341 -17 278 -17 c 0
 148 -17 47 77 47 205 c 0
 47 329 149 431 276 431 c 0
 333 431 384 410 419 369 c 0
 421 366 424 365 430 371 c 0
 471 413 515 431 571 431 c 0
 645 431 693 399 719 333 c 0
 727 312 732 304 747 290 c 1
 747 273 l 2
 747 260 735 258 729 258 c 2
556 392 m 0
 516 392 488 364 477 304 c 0
 476 299 485 300 493 300 c 2
 622 300 l 2
 628 300 630 303 630 308 c 0
 625 359 593 392 556 392 c 0
258 386 m 0
 198 386 145 324 145 233 c 0
 145 122 216 31 287 31 c 0
 345 31 385 81 385 182 c 0
 385 307 328 386 258 386 c 0
EndSplineSet
EndChar
StartChar: Scaron
Encoding: 352 352 5
Width: 513
Flags: W
HStem: -19 60<235 279 228 316> 611 56<219.5 256.5 185 278> 667 21G<216 222 222 256.5> 865 20G<389 398> 866 20G
VStem: 54 110<503.5 552.5> 354 114<114.5 178>
LayerCount: 2
Fore
SplineSet
318 696 m 2xee
 311 689 306 688 296 688 c 2
 222 688 l 2
 210 688 199 692 196 701 c 2
 102 864 l 2
 96 875 104 882 108 884 c 0
 112 886 117 886 121 886 c 0xee
 128 886 139 884 144 878 c 2
 267 782 l 1
 371 879 l 2
 377 883 386 885 392 885 c 0xf6
 404 885 417 877 414 866 c 2
 318 696 l 2xee
253 -19 m 0
 217 -19 183 -8 149 2 c 0
 128 8 126 8 123 8 c 0
 121 8 120 7 115 0 c 1
 101 -7 75 -9 72 12 c 0
 65 52 58 103 51 164 c 0
 49 180 89 186 99 175 c 1
 119 115 135 90 169 67 c 0
 196 48 212 41 244 41 c 0
 314 41 354 84 354 140 c 0
 354 216 267 262 211 299 c 0
 137 348 54 408 54 505 c 0
 54 600 131 667 239 667 c 0
 274 667 292 660 324 650 c 0
 345 643 352 642 356 642 c 0
 358 642 360 643 361 645 c 2
 367 649 l 2
 375 652 384 652 392 651 c 0
 402 652 406 644 407 635 c 0
 418 552 422 523 423 509 c 0
 421 474 380 493 377 499 c 0
 348 571 308 611 248 611 c 0
 191 611 164 579 164 534 c 0
 164 473 243 424 289 393 c 0
 369 340 468 277 468 169 c 0
 468 60 379 -19 253 -19 c 0
EndSplineSet
Validated: 8388641
EndChar
StartChar: scaron
Encoding: 353 353 6
Width: 324
Flags: W
HStem: -10 50<147 168.5 137.5 194> 382 56<143.5 170> 678 20G 679 20G
VStem: 29 85<322.5 350> 204 92<85.5 108>
LayerCount: 2
Fore
SplineSet
223 511 m 2xdc
 217 504 200 502 191 502 c 2
 135 502 l 2
 123 502 105 507 101 516 c 2
 8 678 l 2xec
 2 695 15 699 27 699 c 0xdc
 34 699 45 697 50 691 c 2
 172 596 l 1
 275 692 l 2
 281 696 290 698 296 698 c 0xec
 307 698 321 690 317 679 c 2
 223 511 l 2xdc
157 -10 m 0
 137 -10 115 -7 96 1 c 0
 94 2 92 3 90 3 c 0
 89 2 88 0 86 -7 c 1
 77 -10 69 -14 60 -12 c 0
 52 -10 43 -6 42 7 c 0
 38 46 35 84 33 117 c 0
 32 131 50 137 66 135 c 0
 77 131 79 123 80 118 c 0
 93 62 121 40 154 40 c 0
 183 40 204 63 204 92 c 0
 204 124 175 147 151 164 c 0
 99 202 29 237 29 312 c 0
 29 388 92 438 172 438 c 0
 199 438 228 431 263 417 c 1
 265 385 266 336 264 311 c 0
 264 304 251 297 241 297 c 0
 232 297 220 301 218 310 c 0
 209 360 184 382 156 382 c 0
 131 382 114 365 114 342 c 0
 114 303 186 266 214 246 c 0
 256 218 296 179 296 122 c 0
 296 49 231 -10 157 -10 c 0
EndSplineSet
Validated: 33
EndChar
StartChar: Ydieresis
Encoding: 376 376 191
Width: 729
Flags: W
LayerCount: 2
Fore
SplineSet
459 695 m 0
 423 695 394 724 394 759 c 0
 394 795 423 824 459 824 c 0
 495 824 523 795 523 759 c 0
 523 724 495 695 459 695 c 0
284 695 m 0
 249 695 219 723 219 759 c 0
 219 795 249 824 284 824 c 0
 320 824 349 795 349 759 c 0
 349 723 320 695 284 695 c 0
717 610 m 0
 643 607 620 554 588 500 c 2
 443 254 l 1
 444 205 443 131 443 103 c 0
 443 57 468 42 508 44 c 0
 527 46 543 41 543 18 c 0
 543 9 539 -4 526 -4 c 0
 406 -2 357 0 250 -3 c 0
 232 -3 230 23 234 33 c 0
 238 44 250 46 259 46 c 0
 268 47 277 45 286 45 c 0
 320 47 334 69 336 103 c 0
 338 135 339 204 337 242 c 1
 158 523 l 2
 111 596 93 608 36 609 c 2
 32 609 l 2
 17 609 14 624 17 636 c 0
 18 646 25 652 33 652 c 0
 101 651 245 651 298 652 c 0
 313 653 327 611 295 611 c 0
 244 611 239 601 239 597 c 0
 239 588 240 583 269 538 c 2
 401 335 l 2
 405 329 414 340 419 348 c 2
 524 526 l 2
 551 572 555 581 555 590 c 0
 555 603 550 610 504 610 c 2
 493 610 l 1
 480 615 472 653 497 652 c 0
 547 651 639 650 717 652 c 0
 727 653 731 642 731 632 c 0
 731 624 726 610 717 610 c 0
EndSplineSet
EndChar
StartChar: Zcaron
Encoding: 381 381 11
Width: 705
Flags: W
HStem: -3 70<227 332> -2 21G<55.5 67 553 592.5> 583 67<199.5 246 246 448> 650 38<313.5 318 318 393> 865 20G<486 496> 866 20G
LayerCount: 2
Fore
SplineSet
415 696 m 2xb4
 408 689 403 688 393 688 c 2
 318 688 l 2
 309 688 294 691 292 702 c 2
 197 864 l 2
 191 875 200 882 204 884 c 0
 207 886 212 886 216 886 c 0xb4
 224 886 233 884 239 878 c 2
 364 782 l 1
 469 879 l 2
 474 883 482 885 490 885 c 0xb8
 502 885 515 877 512 866 c 2
 415 696 l 2xb4
628 18 m 0
 625 5 597 -2 588 -2 c 0x78
 518 -2 388 -3 276 -3 c 0xb8
 167 -3 73 -2 61 -2 c 0x78
 50 -2 28 3 31 26 c 0
 32 32 35 41 38 45 c 2
 446 574 l 2
 448 577 449 583 448 583 c 2
 246 583 l 2
 153 583 144 579 133 488 c 1
 132 483 l 2
 131 474 81 470 81 492 c 0
 81 530 82 598 86 632 c 0
 89 643 106 648 117 650 c 2
 585 650 l 2
 594 650 609 651 615 640 c 0
 618 635 624 619 615 604 c 2
 201 72 l 2
 196 67 224 67 227 67 c 2
 457 67 l 2
 562 67 576 99 586 196 c 0
 587 205 587 210 601 211 c 0
 609 212 620 211 625 211 c 0
 638 211 642 206 642 198 c 0
 640 149 633 63 628 18 c 0
EndSplineSet
Validated: 8388641
EndChar
StartChar: zcaron
Encoding: 382 382 12
Width: 410
Flags: W
LayerCount: 2
Fore
SplineSet
270 481 m 2
 265 474 260 473 253 473 c 2
 178 473 l 2
 167 473 158 476 156 484 c 2
 62 648 l 2
 58 659 69 663 77 663 c 0
 84 663 93 661 97 657 c 2
 223 556 l 1
 330 657 l 2
 334 660 342 662 349 662 c 0
 359 662 366 655 364 649 c 2
 270 481 l 2
241 360 m 0
 198 360 165 357 121 357 c 0
 100 357 91 354 70 270 c 0
 64 256 28 258 31 278 c 0
 31 279 31 281 32 282 c 0
 40 331 54 410 61 438 c 0
 64 444 99 444 99 436 c 0
 99 418 102 415 135 416 c 0
 192 417 291 418 347 418 c 0
 358 417 372 421 382 411 c 1
 384 401 385 390 379 383 c 0
 297 275 190 120 154 67 c 0
 150 62 154 56 161 56 c 0
 197 56 237 55 295 57 c 0
 326 57 332 67 355 120 c 1
 359 125 l 2
 366 140 401 137 395 119 c 2
 355 9 l 2
 352 3 345 -1 340 -2 c 0
 274 -1 105 -2 21 -2 c 0
 16 -2 13 12 15 23 c 0
 16 30 21 31 24 37 c 2
 250 350 l 2
 255 357 250 360 241 360 c 0
EndSplineSet
EndChar
StartChar: florin
Encoding: 402 402 173
Width: 523
Flags: W
HStem: -231 131<50.5 61.5 32.5 116.5> 406 68 607 129<437.5 496.5>
VStem: -7 104<-149 -145> 434 98<646.5 655>
LayerCount: 2
Fore
SplineSet
443 679 m 1
 442 679 l 2
 424 678 412 673 397 589 c 0
 394 575 382 515 377 480 c 0
 377 478 376 475 376 473 c 0
 376 472 374 472 375 472 c 2
 439 472 l 2
 450 472 463 467 463 452 c 2
 456 423 l 2
 453 409 441 408 429 406 c 2
 364 406 l 2
 363 406 363 405 362 404 c 0
 351 341 346 321 323 225 c 0
 306 156 288 90 271 28 c 0
 227 -133 162 -231 71 -231 c 0
 30 -231 -7 -203 -7 -161 c 0
 -7 -129 16 -100 49 -100 c 0
 74 -100 97 -119 97 -145 c 0
 97 -153 93 -161 90 -167 c 1
 109 -160 132 -123 151 -28 c 2
 195 190 l 1
 244 390 l 2
 245 394 250 405 247 406 c 2
 181 406 l 2
 168 408 159 418 163 428 c 2
 170 458 l 2
 175 470 185 472 194 474 c 0
 258 476 260 478 285 554 c 0
 322 660 347 703 401 726 c 0
 415 733 430 736 445 736 c 0
 492 736 532 707 532 661 c 0
 532 632 512 607 481 607 c 0
 458 607 434 625 434 651 c 0
 434 659 436 668 441 676 c 2
 443 679 l 1
EndSplineSet
Validated: 1
EndChar
StartChar: circumflex
Encoding: 710 710 219
Width: 349
Flags: W
HStem: 473 174
VStem: 29 290
LayerCount: 2
Fore
SplineSet
311 473 m 0
 303 471 290 472 283 477 c 2
 172 564 l 1
 68 477 l 2
 52 464 18 477 29 494 c 2
 115 633 l 2
 120 641 127 644 134 647 c 0
 143 648 196 649 210 648 c 0
 222 647 227 645 234 634 c 2
 319 498 l 2
 323 489 326 477 311 473 c 0
EndSplineSet
Validated: 33
EndChar
StartChar: caron
Encoding: 711 711 228
Width: 349
Flags: W
HStem: 481 21G<138.5 143 143 212> 642 20G 643 20G<38 43.5>
LayerCount: 2
Fore
SplineSet
233 489 m 2xc0
 226 483 222 481 212 481 c 2
 143 481 l 2
 134 481 120 483 116 494 c 2
 21 642 l 2xc0
 15 652 24 659 28 661 c 0
 31 663 36 663 40 663 c 0xa0
 47 663 57 661 62 656 c 2
 185 568 l 1
 288 656 l 2
 293 660 302 662 309 662 c 0
 319 662 331 656 331 645 c 1
 233 489 l 2xc0
EndSplineSet
Validated: 1
EndChar
StartChar: breve
Encoding: 728 728 222
Width: 349
Flags: W
LayerCount: 2
Fore
SplineSet
175 481 m 0
 94 481 33 539 25 626 c 0
 25 640 56 640 60 629 c 0
 82 589 114 572 176 572 c 0
 239 572 275 593 289 629 c 0
 292 634 300 636 308 636 c 0
 319 636 325 631 325 626 c 0
 317 539 256 481 175 481 c 0
EndSplineSet
EndChar
StartChar: dotaccent
Encoding: 729 729 223
Width: 349
Flags: W
HStem: 476 121<157 193>
VStem: 110 130<520.5 553>
LayerCount: 2
Fore
SplineSet
175 476 m 0
 139 476 110 504 110 537 c 0
 110 569 139 597 175 597 c 0
 211 597 240 570 240 537 c 0
 240 504 211 476 175 476 c 0
EndSplineSet
Validated: 1
EndChar
StartChar: ring
Encoding: 730 730 224
Width: 349
Flags: W
HStem: 474 60<160.5 184.5 160.5 202> 620 60<160.5 184.5>
VStem: 65 62<565 589 565 605.5> 217 62<565 589>
LayerCount: 2
Fore
SplineSet
173 474 m 0
 113 474 65 520 65 577 c 0
 65 634 113 680 173 680 c 0
 231 680 279 634 279 577 c 0
 279 520 231 474 173 474 c 0
173 620 m 0
 148 620 127 601 127 577 c 0
 127 553 148 534 173 534 c 0
 196 534 217 553 217 577 c 0
 217 601 196 620 173 620 c 0
EndSplineSet
Validated: 1
EndChar
StartChar: ogonek
Encoding: 731 731 227
Width: 349
Flags: W
HStem: -191 68<211.5 214.5> -7 20G<115 174 174 174>
VStem: 68 83<-121.5 -41>
LayerCount: 2
Fore
SplineSet
194 -191 m 0
 123 -191 68 -153 68 -90 c 0
 68 -54 84 -16 115 13 c 1
 174 13 l 1
 152 -27 151 -34 151 -48 c 0
 151 -90 186 -123 237 -123 c 0
 255 -123 270 -119 302 -109 c 1
 327 -146 l 1
 257 -184 235 -191 194 -191 c 0
EndSplineSet
Validated: 1
EndChar
StartChar: tilde
Encoding: 732 732 220
Width: 349
Flags: W
LayerCount: 2
Fore
SplineSet
235 467 m 0
 207 467 175 479 138 504 c 0
 102 528 95 532 84 532 c 0
 70 532 61 525 54 493 c 0
 53 487 51 481 51 475 c 0
 45 464 17 459 14 476 c 0
 18 558 51 607 114 607 c 0
 145 607 168 598 212 569 c 0
 242 550 256 545 266 545 c 0
 281 545 292 551 299 602 c 0
 300 607 308 612 317 612 c 0
 323 613 333 610 334 602 c 0
 336 596 336 592 336 589 c 0
 336 521 295 467 235 467 c 0
EndSplineSet
EndChar
StartChar: hungarumlaut
Encoding: 733 733 226
Width: 349
Flags: W
HStem: 473 21G<199.5 204> 642 20G<86 170 170 170 235 322 322 322>
LayerCount: 2
Fore
SplineSet
226 480 m 2
 222 474 213 472 204 473 c 0
 195 473 183 479 183 487 c 2
 215 648 l 2
 219 657 225 662 235 662 c 2
 322 662 l 1
 340 657 336 645 334 639 c 2
 226 480 l 2
72 479 m 1
 62 472 31 474 31 487 c 2
 63 646 l 2
 66 661 79 662 86 662 c 2
 170 662 l 2
 180 659 192 652 182 638 c 2
 72 479 l 1
EndSplineSet
Validated: 33
EndChar
StartChar: endash
Encoding: 8211 8211 183
Width: 610
Flags: W
HStem: 212 59<48.5 556 55 553>
LayerCount: 2
Fore
SplineSet
553 212 m 0
 428 213 179 213 54 212 c 0
 43 212 36 222 36 230 c 0
 37 237 35 245 37 252 c 0
 38 261 41 269 55 271 c 0
 178 270 428 270 556 271 c 0
 569 271 576 262 576 253 c 2
 576 226 l 2
 574 215 565 212 553 212 c 0
EndSplineSet
Validated: 33
EndChar
StartChar: emdash
Encoding: 8212 8212 184
Width: 855
Flags: W
HStem: 201 62<101.5 743 110 742>
LayerCount: 2
Fore
SplineSet
766 211 m 0
 762 205 754 201 742 201 c 0
 585 199 290 200 107 201 c 0
 96 201 81 204 81 218 c 0
 82 226 82 238 82 246 c 0
 83 253 87 263 110 263 c 0
 266 262 582 262 743 263 c 0
 758 260 762 259 765 253 c 0
 769 244 767 224 766 211 c 0
EndSplineSet
Validated: 33
EndChar
StartChar: quoteleft
Encoding: 8216 8216 187
Width: 272
Flags: W
HStem: 452 118<152 162.5>
VStem: 66 142<520.5 528.5 495.5 577.5>
LayerCount: 2
Fore
SplineSet
145 452 m 0
 97 452 66 496 66 545 c 0
 66 610 114 667 183 692 c 0
 204 700 224 669 198 650 c 0
 154 625 134 595 134 570 c 0
 134 567 140 568 144 569 c 0
 147 570 150 570 154 570 c 0
 186 570 208 544 208 513 c 0
 208 478 180 452 145 452 c 0
EndSplineSet
Validated: 33
EndChar
StartChar: quoteright
Encoding: 8217 8217 188
Width: 272
Flags: W
HStem: 576 118<112.5 123.5>
VStem: 66 141<617.5 628.5 573.5 650.5>
LayerCount: 2
Fore
SplineSet
141 580 m 1
 134 578 127 576 120 576 c 0
 88 576 66 602 66 633 c 0
 66 668 95 694 130 694 c 0
 177 694 207 654 207 603 c 0
 207 544 167 489 106 460 c 0
 68 442 55 484 76 496 c 0
 121 523 141 551 141 575 c 0
 141 576 141 577 141 579 c 2
 141 580 l 1
EndSplineSet
Validated: 33
EndChar
StartChar: quotesinglbase
Encoding: 8218 8218 200
Width: 257
Flags: W
LayerCount: 2
Fore
SplineSet
75 -112 m 0
 118 -85 137 -57 137 -30 c 0
 137 -25 138 -22 133 -22 c 0
 129 -23 125 -24 120 -25 c 2
 113 -25 l 2
 86 -25 67 -2 67 26 c 0
 67 58 93 81 123 81 c 0
 164 81 191 42 191 -4 c 0
 191 -65 150 -121 88 -147 c 0
 81 -150 74 -144 71 -133 c 0
 70 -124 72 -115 75 -112 c 0
EndSplineSet
EndChar
StartChar: quotedblleft
Encoding: 8220 8220 185
Width: 502
Flags: W
HStem: 452 118<167 178 385.5 396.5>
VStem: 75 152<517.5 528.5 495.5 573> 293 152<517.5 528.5 495.5 573>
LayerCount: 2
Fore
SplineSet
378 452 m 0
 328 452 293 493 293 542 c 0
 293 604 340 661 408 688 c 0
 416 691 430 696 440 685 c 0
 445 678 451 659 434 650 c 0
 387 625 366 594 366 570 c 0
 366 565 370 567 372 567 c 0
 378 568 383 570 388 570 c 0
 422 570 445 544 445 513 c 0
 445 478 415 452 378 452 c 0
160 452 m 0
 109 452 75 493 75 542 c 0
 75 604 122 661 190 688 c 0
 221 701 237 662 216 650 c 0
 169 624 148 594 148 570 c 0
 148 567 151 568 154 568 c 0
 160 569 164 570 170 570 c 0
 203 570 227 544 227 513 c 0
 227 478 196 452 160 452 c 0
EndSplineSet
Validated: 33
EndChar
StartChar: quotedblright
Encoding: 8221 8221 186
Width: 501
Flags: W
HStem: 579 113<126.5 133 133 141 141 152>
VStem: 82 134<618.5 627 573.5 649.5> 297 134<615 623 570 646.5>
LayerCount: 2
Fore
SplineSet
141 579 m 2
 133 579 l 2
 103 579 82 604 82 633 c 0
 82 666 110 692 143 692 c 0
 188 692 216 650 216 604 c 0
 216 543 173 488 110 463 c 0
 98 459 89 468 86 479 c 0
 85 488 85 496 92 499 c 2
 96 502 l 2
 119 516 150 538 152 579 c 0
 152 584 145 580 141 579 c 2
356 576 m 2
 348 576 l 2
 318 576 297 600 297 630 c 0
 297 663 325 689 358 689 c 0
 403 689 431 646 431 600 c 0
 431 540 388 485 325 460 c 0
 313 455 304 465 301 476 c 0
 300 485 300 492 307 496 c 2
 311 499 l 2
 333 512 365 534 367 576 c 0
 367 580 360 577 356 576 c 2
EndSplineSet
Validated: 1
EndChar
StartChar: quotedblbase
Encoding: 8222 8222 201
Width: 473
Flags: W
HStem: -30 111<116.5 123 123 131 131 142 323 330 330 337 337 348>
VStem: 72 134<9 17 -36 40.5> 278 135<9 17 -36 40.5>
LayerCount: 2
Fore
SplineSet
131 -30 m 2
 123 -30 l 2
 93 -30 72 -6 72 24 c 0
 72 57 100 81 133 81 c 0
 178 81 206 40 206 -6 c 0
 206 -66 163 -121 100 -146 c 0
 88 -151 79 -141 76 -130 c 0
 75 -121 75 -114 82 -110 c 2
 86 -107 l 2
 108 -94 140 -72 142 -30 c 0
 142 -26 135 -29 131 -30 c 2
337 -30 m 2
 330 -30 l 2
 300 -30 278 -6 278 24 c 0
 278 57 307 81 339 81 c 0
 384 81 413 40 413 -6 c 0
 413 -66 370 -121 306 -146 c 0
 294 -151 286 -141 282 -130 c 0
 281 -121 282 -114 288 -110 c 2
 293 -107 l 2
 315 -94 347 -72 348 -30 c 0
 348 -26 341 -29 337 -30 c 2
EndSplineSet
Validated: 1
EndChar
StartChar: dagger
Encoding: 8224 8224 148
Width: 523
Flags: W
HStem: 346 124<40.5 55 39 55.5 470.5 489> 669 20G<247 284 284 294>
VStem: 215 97<446 446>
LayerCount: 2
Fore
SplineSet
476 346 m 0
 460 346 434 350 403 355 c 0
 373 360 339 366 305 370 c 0
 298 371 299 362 300 355 c 2
 328 -176 l 2
 333 -197 333 -232 295 -230 c 0
 271 -229 255 -229 233 -230 c 0
 200 -226 200 -203 201 -178 c 2
 230 350 l 2
 231 369 232 371 223 369 c 0
 166 362 120 358 68 348 c 0
 63 347 58 346 53 346 c 0
 28 346 23 368 23 392 c 2
 23 429 l 2
 23 450 27 470 51 470 c 0
 59 470 66 467 73 467 c 2
 215 446 l 2
 229 444 230 451 228 461 c 0
 220 531 212 589 205 659 c 0
 203 685 220 689 247 689 c 2
 284 689 l 2
 304 689 325 686 325 662 c 0
 325 590 309 528 301 456 c 0
 300 450 305 444 312 445 c 0
 329 448 358 453 394 459 c 0
 428 465 464 470 477 470 c 0
 506 470 507 448 507 429 c 2
 507 392 l 2
 507 369 502 346 476 346 c 0
EndSplineSet
Validated: 33
EndChar
StartChar: daggerdbl
Encoding: 8225 8225 198
Width: 627
Flags: W
HStem: -5 21G<338.5 346 346 586> -4 56<36.5 71.5 47 71.5 47 273> 342 81<496.5 583.5> 401 20G<209 370 370 375> 404 20G<568 574.5> 647 77<565 642.5>
VStem: 100 104<103 329 329 332 102 335.5> 387 102<144 323>
LayerCount: 2
Fore
SplineSet
728 613 m 0x67
 709 584 690 598 671 612 c 0
 646 633 609 647 583 647 c 0
 547 647 514 624 501 590 c 0
 483 539 488 483 489 430 c 0
 489 423 492 423 501 423 c 2x67
 568 424 l 2x4f
 581 424 586 423 593 412 c 0
 597 404 601 370 602 359 c 0
 602 345 590 342 577 342 c 0
 565 342 521 343 498 344 c 1
 491 340 489 334 489 323 c 2
 489 140 l 2
 489 62 493 52 548 52 c 0x67
 554 53 578 51 588 51 c 0
 596 51 605 39 604 30 c 0
 604 28 604 17 604 15 c 0
 606 -3 599 -5 586 -5 c 0
 523 -3 407 -4 346 -5 c 0xa7
 331 -5 322 1 322 12 c 0
 322 20 319 31 323 38 c 0
 328 49 339 52 349 52 c 0
 372 52 380 54 383 64 c 0
 389 80 387 128 387 144 c 2
 387 334 l 2
 386 340 383 344 378 344 c 0
 324 346 268 344 216 343 c 0
 210 343 206 338 204 332 c 0
 204 254 202 182 204 102 c 0
 205 91 204 77 208 67 c 0
 216 48 232 51 249 51 c 0
 256 51 270 51 280 49 c 0
 285 47 291 46 293 41 c 0
 298 31 296 12 294 5 c 0
 290 -3 281 -4 273 -4 c 0
 185 -2 103 -2 39 -4 c 0
 34 -4 25 -2 20 5 c 0
 15 14 14 46 28 49 c 0
 35 49 40 53 47 52 c 0
 96 52 100 56 100 103 c 2
 100 329 l 2
 100 342 96 342 95 342 c 2
 51 342 l 1
 51 342 43 342 30 343 c 1
 25 348 22 352 21 357 c 0
 19 363 17 379 23 388 c 0
 28 393 37 396 41 397 c 0
 65 402 81 405 100 417 c 1
 103 441 104 461 106 479 c 0
 114 551 139 583 194 631 c 0
 260 690 393 742 478 671 c 0
 483 665 486 664 486 665 c 0
 532 706 577 724 626 724 c 0
 659 724 719 712 743 676 c 0
 747 671 748 664 748 660 c 0
 748 647 737 628 728 613 c 0x67
415 589 m 0
 412 593 408 596 403 600 c 0
 373 628 353 633 320 633 c 0
 271 633 222 592 211 541 c 0
 206 518 204 503 204 429 c 0
 204 425 207 421 209 421 c 0
 253 418 322 419 370 421 c 0x57
 380 421 387 420 388 428 c 0
 389 480 388 530 415 579 c 1
 415 579 417 586 415 589 c 0
EndSplineSet
Validated: 33
EndChar
StartChar: bullet
Encoding: 8226 8226 153
Width: 371
Flags: W
HStem: 215 21G<153.5 218.5> 421 20G<153.5 218.5>
LayerCount: 2
Fore
SplineSet
186 215 m 0
 121 215 70 265 70 328 c 0
 70 390 121 441 186 441 c 0
 251 441 302 390 302 328 c 0
 302 265 251 215 186 215 c 0
EndSplineSet
Validated: 1
EndChar
StartChar: ellipsis
Encoding: 8230 8230 176
Width: 1082
Flags: W
HStem: -17 118<172.5 211.5 880.5 919> 80 20G<527 567>
VStem: 125 131<25 55.5 23 59> 482 131<21.5 54.5 21.5 55.5> 836 128<25.5 55.5 22.5 59>
LayerCount: 2
Fore
SplineSet
900 -17 m 0xb8
 861 -17 836 9 836 42 c 0
 836 76 860 101 899 101 c 0
 939 101 964 72 964 39 c 0
 964 6 940 -17 900 -17 c 0xb8
548 -17 m 0
 508 -17 482 5 482 38 c 0
 482 73 507 100 547 100 c 0x78
 587 100 613 71 613 38 c 0
 613 5 587 -17 548 -17 c 0
192 -17 m 0
 152 -17 125 8 125 42 c 0
 125 76 153 101 192 101 c 0
 232 101 256 72 256 39 c 0
 256 7 231 -17 192 -17 c 0
EndSplineSet
Validated: 1
EndChar
StartChar: perthousand
Encoding: 8240 8240 202
Width: 1047
Flags: W
HStem: -34 53<504.5 548 504.5 568 827 870> 218 51<502.5 546 824.5 868.5> 312 53<195 239 195 259> 563 52<193.5 237>
VStem: 65 78<430 497 430 507> 290 78<465 465> 374 79<84 151.5 84 161> 600 77<119 119> 697 78<84.5 151.5 84.5 161> 923 76<119 119>
LayerCount: 2
Fore
SplineSet
848 -34 m 0
 768 -34 697 30 697 116 c 0
 697 206 764 269 847 269 c 0
 930 269 1001 209 999 119 c 0
 997 30 932 -34 848 -34 c 0
217 312 m 0
 136 312 65 375 65 462 c 0
 65 552 133 615 215 615 c 0
 297 615 369 555 368 465 c 0
 366 376 301 312 217 312 c 0
205 -45 m 2
 197 -59 182 -62 169 -59 c 0
 144 -53 139 -41 148 -24 c 2
 534 636 l 2
 544 648 560 649 569 646 c 2
 581 643 l 2
 600 636 594 621 590 611 c 2
 205 -45 l 2
526 -34 m 0
 445 -34 374 30 374 116 c 0
 374 206 442 269 524 269 c 0
 606 269 678 209 677 119 c 0
 675 30 610 -34 526 -34 c 0
845 218 m 0
 804 218 775 185 775 118 c 0
 775 51 806 19 848 19 c 0
 892 19 923 51 923 119 c 0
 923 186 892 218 845 218 c 0
214 563 m 0
 173 563 143 530 143 464 c 0
 143 396 173 365 217 365 c 0
 261 365 290 397 290 465 c 0
 290 533 260 563 214 563 c 0
523 218 m 0
 482 218 453 185 453 118 c 0
 453 50 483 19 526 19 c 0
 570 19 600 51 600 119 c 0
 600 187 569 218 523 218 c 0
EndSplineSet
Validated: 33
EndChar
StartChar: guilsinglleft
Encoding: 8249 8249 194
Width: 264
Flags: HW
LayerCount: 2
Fore
SplineSet
124.875 232 m 1
 216.875 48 l 2
 221.875 38 220.875 32 212.875 32 c 2
 190.875 32 l 2
 184.875 32 182.875 33 175.875 43 c 2
 36.875 221 l 2
 29.875 230 35.875 242 40.875 249 c 2
 177.875 422 l 2
 184.875 431 182.875 429 189.875 429 c 2
 211.875 429 l 2
 220.875 429 223.875 427 220.875 422 c 2
 124.875 232 l 1
EndSplineSet
EndChar
StartChar: guilsinglright
Encoding: 8250 8250 195
Width: 860
Flags: W
HStem: -5 56 -4 21G<329 339 339 550 613 618 618 817 817 826> 342 84 401 20G<222 373 373 379> 646 61
VStem: 103 106<134.5 137 137 327> 387 105<138 327 327 334.5> 672 102<98 138 435 614 614 614>
LayerCount: 2
Fore
SplineSet
826 -4 m 0x6f
 823 -5 820 -4 817 -4 c 0
 771 -2 675 -2 618 -4 c 0
 608 -4 603 -3 599 9 c 0
 597 16 596 25 599 32 c 0
 602 41 605 45 611 48 c 0
 621 51 635 48 647 50 c 0
 672 52 672 58 672 138 c 2
 673 337 l 2
 673 350 662 351 658 351 c 0
 609 352 542 355 503 351 c 0
 496 350 495 348 492 336 c 2
 492 95 l 2
 492 53 497 47 538 47 c 0
 543 48 548 47 553 46 c 0
 572 42 572 -5 550 -4 c 0
 488 -2 413 -3 339 -4 c 0x6f
 319 -4 312 44 340 47 c 0
 349 48 370 49 377 55 c 0
 383 59 386 67 386 89 c 0
 387 100 387 116 387 138 c 2
 387 327 l 2
 387 342 380 346 370 346 c 0
 329 345 266 344 225 346 c 0
 219 346 211 338 209 327 c 2
 209 137 l 2
 209 132 207 77 212 66 c 0
 220 46 238 48 256 49 c 0
 269 49 279 48 289 46 c 0
 309 38 310 -6 286 -5 c 0
 192 -1 104 -2 37 -5 c 0
 20 -6 15 24 25 40 c 0
 28 45 30 46 38 48 c 0
 48 51 58 49 68 50 c 0
 94 51 103 54 103 100 c 2
 103 330 l 2
 103 333 93 342 91 342 c 2
 55 342 l 2
 42 342 31 341 24 356 c 0
 23 365 23 381 27 388 c 0
 32 395 36 394 43 397 c 0
 69 402 84 405 103 417 c 1
 106 455 108 496 120 533 c 0
 132 565 155 593 198 631 c 0
 265 690 399 743 482 672 c 0
 487 668 493 662 495 663 c 0
 534 696 573 712 624 712 c 0
 645 712 666 707 687 707 c 0
 702 707 711 710 726 728 c 1
 745 735 774 734 774 713 c 2
 774 95 l 2
 774 72 767 52 795 51 c 0xaf
 805 50 816 51 822 50 c 0
 829 49 836 46 840 36 c 0
 842 28 842 16 840 9 c 0
 838 3 834 -3 826 -4 c 0x6f
672 614 m 1
 641 634 608 646 583 646 c 0
 561 646 544 634 529 614 c 0
 510 587 493 530 492 435 c 0
 492 428 493 426 507 426 c 0
 567 423 616 426 654 426 c 0
 659 426 672 428 672 435 c 2
 672 614 l 1
420 588 m 0
 417 591 415 594 408 600 c 0
 378 629 358 633 324 633 c 0
 275 633 227 592 215 542 c 0
 210 519 209 503 209 429 c 0
 209 426 219 421 222 421 c 0
 267 418 324 420 373 421 c 0x9f
 385 421 387 420 388 430 c 0
 391 477 401 526 421 569 c 0
 426 579 424 583 420 588 c 0
EndSplineSet
Validated: 33
EndChar
StartChar: fraction
Encoding: 8260 8260 192
Width: 242
Flags: W
HStem: -204 21G<-52.5 -46 -46 1> 671 20G<285 337 337 342>
LayerCount: 2
Fore
SplineSet
1 -204 m 1
 -46 -204 l 2
 -59 -204 -64 -200 -60 -188 c 2
 285 691 l 1
 337 691 l 2
 347 691 351 689 344 672 c 2
 1 -204 l 1
EndSplineSet
Validated: 1
EndChar
StartChar: Euro
Encoding: 8364 8364 193
Width: 464
Flags: W
LayerCount: 2
Fore
SplineSet
309 201 m 2
 166 201 l 1
 177 89 207 33 272 33 c 0
 332 33 369 82 385 137 c 0
 390 155 439 156 436 138 c 0
 427 90 415 49 400 4 c 1
 391 8 385 8 381 8 c 0
 342 8 316 -14 260 -14 c 0
 166 -14 89 59 66 201 c 1
 24 201 l 2
 10 201 -1 206 -1 220 c 2
 -1 237 l 2
 -1 251 9 256 16 256 c 2
 61 256 l 1
 60 267 60 279 60 292 c 2
 60 321 l 1
 24 321 l 2
 10 321 -1 326 -1 340 c 2
 -1 357 l 2
 -1 371 9 376 16 376 c 2
 65 376 l 1
 86 539 171 614 271 614 c 0
 305 614 326 608 358 587 c 0
 365 582 374 575 381 584 c 0
 384 589 418 587 418 580 c 0
 420 532 422 501 423 451 c 0
 421 436 383 438 379 450 c 0
 361 539 324 565 271 565 c 0
 200 565 171 495 164 376 c 1
 317 376 l 2
 324 376 334 371 334 357 c 2
 334 340 l 2
 334 326 323 321 309 321 c 2
 162 321 l 1
 162 311 l 2
 162 291 162 273 163 256 c 1
 317 256 l 2
 324 256 334 251 334 237 c 2
 334 220 l 2
 334 206 323 201 309 201 c 2
EndSplineSet
EndChar
StartChar: trademark
Encoding: 8482 8482 158
Width: 1025
Flags: W
HStem: 276 21G 278 48<125 302 125 158.5> 572 128 651 49 681 20G
VStem: 161 117<374 375 375 632> 432 121<293 375 303 375> 489 64<374 375 375 533> 846 116<374 375 375 538 538 540>
LayerCount: 2
Fore
SplineSet
723 453 m 2x4e80
 727 443 731 445 731 445 c 1
 842 680 l 2
 848 694 854 701 866 701 c 0
 901 700 955 701 987 701 c 0x4e80
 1003 701 1017 699 1017 677 c 0
 1017 666 1016 654 1002 652 c 0
 998 651 995 651 991 651 c 0
 966 650 962 649 962 601 c 2
 962 375 l 2
 962 333 963 329 993 327 c 0
 996 326 998 326 1001 326 c 0
 1017 326 1017 312 1017 300 c 0
 1017 284 1009 278 991 278 c 0
 948 278 863 280 820 278 c 0x5680
 797 277 785 281 785 297 c 2xa680
 785 312 l 2
 785 326 796 327 804 327 c 0
 807 327 810 326 813 327 c 0
 842 329 846 332 846 374 c 2
 846 538 l 2
 846 542 843 540 841 536 c 2
 726 295 l 2
 720 283 714 278 704 278 c 2
 690 278 l 2
 683 278 681 277 677 284 c 2
 674 291 l 1
 559 530 l 2
 556 537 553 545 553 533 c 2
 553 375 l 2
 553 329 557 326 584 326 c 2
 599 326 l 2x6680
 606 326 618 324 618 311 c 0
 618 301 616 280 605 276 c 1
 594 276 l 1xa680
 577 282 483 279 463 278 c 0
 451 276 432 276 432 293 c 2
 432 303 l 2x6680
 432 322 447 325 456 326 c 0
 486 327 489 328 489 374 c 2
 489 600 l 2
 489 647 488 651 457 651 c 0x5580
 446 651 439 654 435 660 c 0
 432 669 432 669 432 678 c 0
 432 698 442 701 456 701 c 0x4e80
 486 700 554 699 585 700 c 0x5680
 601 701 608 689 612 681 c 2
 723 453 l 2x4e80
429 592 m 0
 431 571 424 572 406 572 c 2
 382 572 l 1
 374 628 357 641 299 641 c 0
 291 641 278 644 278 632 c 2
 278 375 l 2
 278 339 275 330 311 327 c 0
 316 326 319 326 324 324 c 0
 332 320 338 279 314 278 c 0
 310 277 305 278 302 278 c 0
 253 280 175 278 142 278 c 0
 120 277 111 281 111 302 c 0
 111 314 110 322 125 326 c 0
 128 326 129 326 131 326 c 0
 160 330 161 334 161 374 c 2
 161 633 l 2
 161 642 152 641 139 641 c 0
 84 641 68 629 58 572 c 1
 32 572 l 2x6680
 11 572 8 576 12 605 c 2
 21 676 l 2
 24 696 33 701 52 701 c 0
 130 699 296 699 384 701 c 0
 407 702 418 698 421 672 c 2
 429 601 l 2
 429 598 429 595 429 592 c 0
EndSplineSet
Validated: 33
EndChar
StartChar: minus
Encoding: 8722 8722 20
Width: 698
Flags: W
LayerCount: 2
Fore
SplineSet
598 305 m 0
 463 304 219 305 110 306 c 0
 86 306 71 302 71 324 c 2
 71 351 l 2
 71 368 78 372 96 372 c 0
 231 372 498 372 605 372 c 0
 627 372 630 363 630 350 c 2
 630 324 l 2
 630 300 620 305 598 305 c 0
EndSplineSet
EndChar
StartChar: fi
Encoding: 64257 64257 196
Width: 559
Flags: W
HStem: -3 21G<324.5 330> -2 21G<402.5 434> -1 21G<129 162> 340 69 577 138<271 418.5> 656 59<271 303.5>
VStem: 99 97<120 322 431.5 438.5> 367 97<120 281>
LayerCount: 2
Fore
SplineSet
512 -4 m 1x37
 480 -2 451 -2 417 -2 c 0x5b
 388 -2 359 0 330 -3 c 0x9b
 319 -3 313 1 309 12 c 0
 303 32 310 42 329 46 c 0
 333 47 338 47 342 48 c 0
 358 50 362 51 364 58 c 0
 368 70 367 108 367 120 c 2
 367 288 l 2
 367 336 365 339 332 340 c 0
 303 341 235 341 207 340 c 0
 198 339 196 338 196 322 c 2
 196 120 l 2
 196 54 197 50 222 48 c 2
 252 45 l 2
 279 42 264 0 250 -4 c 1
 208 -2 179 -1 145 -1 c 0
 113 -1 88 -2 61 -4 c 0
 51 -5 41 -4 36 10 c 0
 32 19 32 36 48 44 c 1
 72 48 l 2
 99 51 99 54 99 120 c 2
 99 322 l 2
 99 337 96 337 88 338 c 2
 53 341 l 1
 42 347 30 370 47 382 c 0
 59 392 99 395 99 410 c 0
 99 467 107 524 130 578 c 0
 151 629 213 715 329 715 c 0
 396 715 461 679 461 628 c 0
 461 590 427 577 410 577 c 0x3b
 392 577 381 586 374 597 c 0
 347 642 313 656 294 656 c 0
 230 656 196 587 196 435 c 0
 196 428 196 418 198 413 c 0
 199 411 201 407 212 407 c 0
 267 405 324 406 379 409 c 0
 399 410 418 412 432 414 c 0
 447 420 458 422 468 405 c 1
 466 367 464 321 464 281 c 2
 464 120 l 2
 464 54 465 51 492 48 c 2
 512 45 l 2
 536 41 529 4 512 -4 c 1x37
EndSplineSet
Validated: 33
Ligature2: "'liga' Standard Ligatures in Latin lookup 0-1" f i
EndChar
StartChar: fl
Encoding: 64258 64258 197
Width: 539
Flags: W
HStem: -3 53<484 502 484 515> 351 76 647 69<287 290>
VStem: 86 102<139 335> 364 100<138 335 335 340 445 615 615 615>
LayerCount: 2
Fore
SplineSet
515 -3 m 0
 456 -1 376 -3 316 -3 c 2
 312 -3 l 2
 304 -3 294 -4 291 6 c 0
 288 13 287 32 292 41 c 0
 296 48 305 48 312 48 c 0
 366 48 364 49 364 138 c 2
 364 335 l 2
 364 345 356 353 351 353 c 0
 302 354 249 353 204 352 c 0
 197 352 192 352 188 335 c 1
 188 96 l 2
 188 54 192 48 234 48 c 0
 237 49 243 49 247 47 c 0
 264 44 265 1 248 -3 c 1
 241 -3 l 2
 208 -3 118 1 44 -3 c 0
 33 -4 28 -2 24 4 c 0
 18 12 18 35 23 40 c 0
 30 47 33 48 43 48 c 0
 70 50 73 52 78 58 c 0
 84 66 86 69 86 139 c 2
 86 341 l 2
 86 346 82 350 78 351 c 2
 35 351 l 2
 30 351 24 352 22 358 c 0
 18 366 19 381 21 386 c 0
 23 392 29 399 35 400 c 2
 76 417 l 2
 85 422 86 423 86 424 c 0
 90 500 111 580 165 639 c 0
 209 688 256 716 318 716 c 0
 340 716 359 711 380 711 c 0
 395 711 404 714 418 732 c 1
 437 739 461 737 464 724 c 2
 464 100 l 2
 464 60 466 50 502 50 c 0
 509 52 513 49 519 47 c 0
 532 45 540 -4 515 -3 c 0
364 615 m 1
 333 635 302 647 278 647 c 0
 255 647 237 635 223 615 c 0
 204 588 189 531 188 437 c 0
 188 431 193 427 200 427 c 0
 260 425 318 427 355 427 c 0
 358 427 363 435 364 445 c 2
 364 615 l 1
EndSplineSet
Validated: 33
Ligature2: "'liga' Standard Ligatures in Latin lookup 0-1" f l
EndChar
StartChar: ffi
Encoding: 64259 64259 233
Width: 880
Flags: W
HStem: -5 46<32.2675 104.445 205.787 294.013 331.293 399.1 501.918 591.995 628.016 696.303 793.049 854.266> 347 46<29.2337 106.04> 351 66<203.001 386.805> 352 67<362.877 401.924 498.051 693.394> 604 21G<727 742>
VStem: 107 96<44.908 346.9> 402 95<45.8904 351.946 423.055 565.941> 699 92<42.8411 349.625>
LayerCount: 2
Fore
SplineSet
640 -4 m 0xcf
 633 -4 628 6 628 17 c 0
 628 30 629 44 650 41 c 0
 701 41 699 46 699 135 c 2
 699 287 l 2
 699 328 693 355 649 357 c 0
 619 357 552 360 512 358 c 0
 505 357 499 348 498 344 c 2
 497 135 l 2
 496 59 496 41 552 41 c 2
 571 41 l 2
 592 41 592 31 592 17 c 0
 592 6 585 -4 581 -4 c 0
 486 -2 412 -3 344 -5 c 0
 336 -5 331 5 331 15 c 0
 331 24 335 36 343 39 c 2
 352 39 l 2
 401 39 402 41 402 133 c 2
 402 331 l 2
 401 340 399 351 389 352 c 0x9f
 343 355 243 354 214 351 c 0xaf
 209 350 204 344 203 334 c 0
 203 256 201 171 203 90 c 0
 204 49 210 42 255 42 c 0
 266 42 276 43 287 41 c 0
 306 33 298 -7 285 -5 c 0
 191 -2 106 -2 39 -5 c 0
 25 -6 17 26 33 36 c 0
 39 41 45 39 52 39 c 0
 101 39 107 48 107 96 c 2
 107 334 l 2
 107 340 98 347 96 347 c 2
 53 347 l 2
 43 347 32 345 28 357 c 0
 26 364 26 378 29 385 c 0
 34 389 38 390 43 393 c 0
 69 398 87 401 108 414 c 1
 111 449 113 501 125 533 c 0
 136 565 158 592 200 631 c 0
 266 690 403 740 484 672 c 0
 500 655 513 662 518 665 c 0
 587 715 700 750 773 689 c 0
 784 680 791 665 791 653 c 0
 791 635 751 604 733 604 c 0
 721 604 714 611 706 619 c 0
 675 648 654 658 619 658 c 0
 567 658 515 614 504 561 c 0
 498 538 497 517 497 443 c 0
 497 436 501 424 509 423 c 0
 538 420 611 421 681 424 c 0
 710 425 722 425 766 440 c 0
 781 445 791 423 791 411 c 2
 791 92 l 2
 791 43 799 41 834 41 c 0
 839 42 845 42 850 41 c 0
 867 38 858 -1 849 -4 c 0
 794 -2 709 -2 640 -4 c 0xcf
417 607 m 0
 386 636 358 641 324 641 c 0
 272 641 221 598 209 545 c 0
 204 521 203 509 203 434 c 0
 203 429 204 417 211 417 c 0xaf
 257 414 330 414 393 419 c 0
 409 420 403 453 404 464 c 0
 406 511 412 547 431 582 c 0
 436 590 422 602 417 607 c 0
EndSplineSet
Validated: 33
Ligature2: "'liga' Standard Ligatures in Latin lookup 0-1" f f i
EndChar
StartChar: ffl
Encoding: 64260 64260 231
Width: 860
Flags: W
HStem: -5 55 -4 21G<329 339 339 550 613 618 618 817 817 826> 342 84 401 20G<215 373 373 379> 646 61
VStem: 103 106<134.5 137 137 337> 387 105<138 327 327 334.5> 672 102<98.5 138 435 614 614 614>
LayerCount: 2
Fore
SplineSet
826 -4 m 0x6f
 823 -5 820 -4 817 -4 c 0
 771 -2 675 -2 618 -4 c 0x6f
 608 -4 601 -3 597 9 c 0
 595 16 594 25 597 32 c 0
 606 56 628 47 647 50 c 0xaf
 672 52 672 59 672 138 c 2
 673 337 l 2
 673 350 669 351 665 351 c 0
 616 352 542 355 503 351 c 0
 496 350 495 348 492 336 c 2
 492 95 l 2
 492 53 497 47 538 47 c 0
 543 48 548 47 553 46 c 0
 572 42 572 -5 550 -4 c 0
 488 -2 413 -3 339 -4 c 0x6f
 319 -4 312 44 340 47 c 0
 349 48 370 49 377 55 c 0
 383 59 386 67 386 89 c 0
 387 100 387 116 387 138 c 2
 387 327 l 2
 387 342 388 346 378 346 c 0
 337 345 259 344 218 346 c 0
 214 346 210 345 209 337 c 2
 209 137 l 2
 209 132 207 77 212 66 c 0
 212 65 213 64 214 63 c 2
 216 60 l 1
 218 57 l 2
 220 54 221 53 224 51 c 0
 229 50 238 49 256 49 c 0
 266 51 279 48 289 46 c 0
 309 38 310 -6 286 -5 c 0
 192 -1 104 -2 37 -5 c 0
 15 -6 7 40 38 48 c 0
 48 51 58 49 68 50 c 0
 94 51 103 55 103 100 c 2
 103 337 l 2
 103 340 102 342 100 342 c 2
 55 342 l 2
 42 342 31 341 24 356 c 0
 23 365 23 381 27 388 c 0
 32 395 36 394 43 397 c 0
 69 402 84 405 103 417 c 1
 106 455 108 496 120 533 c 0
 132 565 155 593 198 631 c 0
 265 690 399 743 482 672 c 2
 488 667 l 2
 489 666 494 662 495 663 c 0
 534 696 573 712 624 712 c 0
 645 712 666 707 687 707 c 0
 702 707 711 710 726 728 c 1
 745 735 774 734 774 713 c 2
 774 95 l 2
 774 88 773 63 777 56 c 0
 783 47 811 52 822 50 c 0xaf
 829 49 836 46 840 36 c 0
 842 28 842 16 840 9 c 0
 838 3 834 -3 826 -4 c 0x6f
672 614 m 1
 641 634 608 646 583 646 c 0
 561 646 544 634 529 614 c 0
 510 587 493 530 492 435 c 0
 492 428 493 426 507 426 c 0
 567 423 623 426 661 426 c 0
 666 426 672 428 672 435 c 2
 672 614 l 1
420 588 m 0
 417 591 415 594 408 600 c 0
 378 629 358 633 324 633 c 0
 275 633 227 592 215 542 c 0
 210 519 209 503 209 429 c 0
 209 426 212 421 215 421 c 0
 260 418 324 420 373 421 c 0x9f
 385 421 387 420 388 430 c 0
 391 477 401 526 421 569 c 0
 426 579 424 583 420 588 c 0
EndSplineSet
Validated: 33
Ligature2: "'liga' Standard Ligatures in Latin lookup 0-1" f f l
EndChar
